<?xml version="1.0" encoding="utf-8"?>
<!-- Generator: Adobe Illustrator 25.1.0, SVG Export Plug-In . SVG Version: 6.00 Build 0)  -->
<svg version="1.1"
	 id="svg3561" inkscape:export-filename="C:\Users\xine\Documents\2018-debian-buster\futurePrototype-source\tshirt\png\tshirt.png" inkscape:export-xdpi="54.791428" inkscape:export-ydpi="54.791428" inkscape:version="0.92.2 (5c3e80d, 2017-08-06)" sodipodi:docname="tshirt.svg" xmlns:cc="http://creativecommons.org/ns#" xmlns:dc="http://purl.org/dc/elements/1.1/" xmlns:inkscape="http://www.inkscape.org/namespaces/inkscape" xmlns:ns2="http://ns.adobe.com/AdobeIllustrator/10.0/" xmlns:rdf="http://www.w3.org/1999/02/22-rdf-syntax-ns#" xmlns:sodipodi="http://sodipodi.sourceforge.net/DTD/sodipodi-0.dtd" xmlns:svg="http://www.w3.org/2000/svg"
	 xmlns="http://www.w3.org/2000/svg" xmlns:xlink="http://www.w3.org/1999/xlink" x="0px" y="0px" viewBox="0 0 1000 560"
	 style="enable-background:new 0 0 1000 560;" xml:space="preserve">
<style type="text/css">
	.st0{fill:#1A1A1A;}
	.st1{fill:#545454;}
	.st2{fill:#FFFFFF;}
	.st3{fill:#EDF0F4;}
	.st4{fill:#E2E7ED;}
	.st5{fill:#F4F6F9;}
	.st6{fill:#C2C6CC;}
</style>
<sodipodi:namedview  bordercolor="#cc00a6" borderlayer="true" borderopacity="1" id="base" inkscape:bbox-nodes="true" inkscape:bbox-paths="true" inkscape:current-layer="layer1" inkscape:cx="527.03095" inkscape:cy="299.07215" inkscape:document-units="px" inkscape:object-paths="true" inkscape:pageopacity="0.0" inkscape:pageshadow="2" inkscape:showpageshadow="false" inkscape:snap-bbox="true" inkscape:snap-bbox-edge-midpoints="true" inkscape:snap-bbox-midpoints="true" inkscape:snap-intersection-paths="true" inkscape:snap-midpoints="true" inkscape:snap-page="true" inkscape:snap-smooth-nodes="true" inkscape:window-height="1017" inkscape:window-maximized="1" inkscape:window-width="1920" inkscape:window-x="-8" inkscape:window-y="-8" inkscape:zoom="0.6929202" pagecolor="#ffffff" showgrid="false">
	</sodipodi:namedview>
<g>
	<g>
		<g>
			<g>
				<g>
					<path d="M590.7,232.8l-6.1,14.1l-76.2-39.3c0,0,2.1-5.6,5.6-14.3l0.2,0.1L590.7,232.8z"/>
					<path d="M683.7,40h129.5c0,15.2-15.2,45.7-64.8,45.7C698.9,85.7,683.7,55.2,683.7,40z"/>
					<path d="M988.4,207.6l-76.2,39.2l-6.1-14.1l76.6-39.5C986.3,202.1,988.4,207.6,988.4,207.6z"/>
				</g>
				<g>
					<path class="st0" d="M921.5,84.1C904.5,68.9,813.2,40,813.2,40c0,15.2-15.2,45.7-64.8,45.7c-49.5,0-64.8-30.5-64.8-45.7
						c0,0-91.3,28.9-108.3,44.1c-13.3,11.9-48.9,78-61.3,109.2l0.2,0.1l76.4,39.4l16.8-32.8v312.4c0,4.2,3.4,7.6,7.6,7.6h266.7
						c4.2,0,7.6-3.4,7.6-7.6V200l16.8,32.8l76.6-39.5C970.4,162.1,934.7,96,921.5,84.1z"/>
					<path class="st1" d="M760.2,59h-22.9c-2.1,0-3.8-1.7-3.8-3.8c0-2.1,1.7-3.8,3.8-3.8h22.9c2.1,0,3.8,1.7,3.8,3.8
						C764,57.3,762.3,59,760.2,59z"/>
				</g>
			</g>
		</g>
		<g>
			<g>
				<g>
					<g>
						<polygon class="st2" points="689.4,155.4 662.6,155.4 661.2,163.9 669.1,163.9 664.3,192.5 675,192.5 679.8,163.9 
							687.9,163.9 						"/>
					</g>
					<g>
						<path class="st2" d="M716.4,164.5c-1,0-1.8,0.1-2.5,0.4c-0.7,0.2-1.3,0.5-1.9,0.9c-0.5,0.4-1,0.8-1.4,1.2
							c-0.4,0.4-0.7,0.9-1,1.3c-0.4-1-1.1-1.9-2.1-2.7c-1-0.8-2.3-1.2-3.9-1.2c-1.7,0-3,0.2-4.1,0.7c-1.1,0.5-2,1.2-2.7,2.1l0.3-2.1
							h-7.9l-3.9,27.3h8.5l2.9-19.5c0.3-0.5,0.7-0.9,1.1-1.2c0.4-0.3,0.9-0.5,1.4-0.5c0,0,0.2,0,0.4,0.1c0.2,0,0.4,0.1,0.6,0.3
							c0.2,0.1,0.4,0.4,0.6,0.7c0.2,0.3,0.3,0.7,0.3,1.3c0,0.3,0,0.6-0.1,1.1c0,0.4-0.1,0.8-0.2,1.1l-2.4,16.7h8.6l2.7-19
							c0.3-0.6,0.7-1,1.2-1.4c0.5-0.4,1-0.6,1.5-0.6c0.8,0,1.3,0.3,1.5,0.8c0.2,0.6,0.4,1.1,0.4,1.6c0,0.3,0,0.6-0.1,0.9
							c0,0.4-0.1,0.7-0.1,0.9l-2.4,16.8h8.8l2.6-17.8c0-0.3,0.1-0.7,0.1-1.2c0.1-0.5,0.1-1,0.1-1.5c0-2.3-0.6-4.2-1.9-5.5
							C720.1,165.2,718.4,164.5,716.4,164.5z"/>
					</g>
					<g>
						<path class="st2" d="M748.4,185.7c-0.3,0-0.6-0.1-0.8-0.3c-0.3-0.2-0.3-0.8-0.2-1.7l1.2-10c0.3-2,0.2-3.6-0.2-4.9
							c-0.4-1.2-1-2.2-1.8-2.9c-0.8-0.7-1.8-1.1-3-1.3c-1.2-0.2-2.5-0.3-3.9-0.3c-0.9,0-1.8,0.1-2.7,0.2c-0.9,0.2-1.8,0.4-2.7,0.7
							c-0.9,0.3-1.7,0.6-2.5,1c-0.8,0.4-1.4,0.7-2,1.1l-1.2,6.6c1.3-0.8,2.6-1.5,4-1.9c1.4-0.5,3-0.7,4.8-0.7c0.8,0,1.5,0.2,2,0.5
							c0.6,0.4,0.8,1,0.7,1.8l-0.2,1.4c-1.7,0.1-3.3,0.3-4.7,0.5c-1.4,0.3-2.8,0.7-4.3,1.4c-1.2,0.5-2.2,1.1-3,1.8
							c-0.8,0.7-1.5,1.4-2.1,2.2c-0.5,0.8-0.9,1.6-1.2,2.4c-0.2,0.8-0.4,1.6-0.4,2.4c0,1.4,0.2,2.6,0.5,3.5c0.3,0.9,0.8,1.7,1.4,2.2
							c0.6,0.6,1.4,1,2.3,1.2c0.9,0.2,2,0.4,3.2,0.4c1.6,0,2.9-0.3,4-1c1.1-0.7,2.1-1.6,2.9-2.7c1.1,2.5,2.9,3.7,5.5,3.7
							c0.7,0,1.4-0.1,2-0.2c0.6-0.1,1.2-0.3,1.7-0.4l1.6-7.2C749,185.6,748.6,185.7,748.4,185.7z M738,185.6c-0.7,0.7-1.6,1-2.8,1
							c-0.4,0-0.8-0.1-1.1-0.4c-0.3-0.3-0.4-0.9-0.4-1.8c0-0.7,0.1-1.4,0.4-1.9c0.3-0.6,0.7-1,1.2-1.4c0.5-0.4,1.1-0.7,1.7-0.9
							c0.6-0.2,1.3-0.4,1.9-0.5L738,185.6z"/>
					</g>
					<g>
						<polygon class="st2" points="770.6,165.2 766.4,171.9 763.7,165.2 754.2,165.2 759.2,177.3 749.4,192.5 757,192.5 
							762.4,183.5 766,192.5 775.6,192.5 769.6,177.8 777.9,165.2 						"/>
					</g>
					<g>
						<path class="st2" d="M825.7,170.7c0.6,0.6,1.5,1.4,2.5,2.3c0.7,0.7,1.4,1.3,2,1.9c0.6,0.6,1.1,1.2,1.5,1.9
							c0.4,0.7,0.7,1.4,1,2.2c0.2,0.8,0.3,1.6,0.3,2.6c0,0,0,0,0,0c0-1-0.1-1.9-0.3-2.7c-0.2-0.8-0.5-1.5-1-2.2
							c-0.4-0.7-0.9-1.3-1.5-1.9c-0.6-0.6-1.3-1.2-2-1.9C827.2,172.1,826.3,171.3,825.7,170.7c-0.6-0.7-1-1.6-1-2.7c0,0,0,0,0,0
							C824.7,169.2,825.1,170.1,825.7,170.7z"/>
					</g>
					<g>
						<path class="st2" d="M831.8,157.2c-1.4-0.4-2.8-0.6-4.3-0.6c-2,0-3.8,0.3-5.5,1c-1.7,0.7-3.2,1.5-4.4,2.7
							c-1.3,1.1-2.3,2.4-3,3.8c-0.7,1.4-1.1,3-1.1,4.6c0,0,0,0,0,0c0-1.6,0.4-3.1,1.1-4.5c0.7-1.4,1.7-2.7,3-3.8
							c1.3-1.1,2.7-2,4.4-2.7c1.7-0.7,3.5-1,5.5-1C829.1,156.7,830.5,156.9,831.8,157.2c1.3,0.5,2.6,1.2,3.8,2.1l0-0.1
							C834.5,158.3,833.2,157.6,831.8,157.2z"/>
					</g>
					<g>
						<path class="st2" d="M814.8,184.9c1.1,0.6,2.3,0.9,3.7,0.9c2.7,0,4-1.2,4-3.7c0,0,0,0,0,0c0,2.5-1.3,3.7-4,3.7
							C817.2,185.8,815.9,185.5,814.8,184.9c-1.1-0.7-2.1-1.5-2.9-2.6l-1.7,8c0,0,0,0,0,0l1.6-7.9
							C812.7,183.5,813.7,184.3,814.8,184.9z"/>
					</g>
					<g>
						<path class="st2" d="M829.4,189.5c-1.2,1.1-2.6,2-4.3,2.7c-1.7,0.7-3.7,1-5.8,1c-1.8,0-3.4-0.2-4.9-0.6
							c-1.5-0.4-2.9-1.1-4.1-2.2l0,0.1c1.2,1,2.6,1.8,4.1,2.2c1.5,0.4,3.1,0.6,4.9,0.6c2.2,0,4.1-0.3,5.8-1
							C826.8,191.6,828.3,190.7,829.4,189.5c1.2-1,2.1-2.3,2.7-3.7c0.6-1.4,0.9-2.8,0.9-4.2c0,0,0,0,0,0c0,1.4-0.3,2.8-0.9,4.2
							C831.5,187.2,830.6,188.4,829.4,189.5z"/>
					</g>
					<g>
						<path class="st2" d="M821.5,179.5c-0.7-0.8-1.5-1.5-2.4-2.2c-1.9-1.5-3.3-2.9-4.2-4.3c-0.9-1.4-1.3-2.8-1.3-4.4c0,0,0,0,0,0
							c0,1.6,0.4,3,1.3,4.4c0.9,1.4,2.3,2.8,4.2,4.3C820.1,178.1,820.9,178.8,821.5,179.5c0.7,0.9,1,1.7,1,2.6c0,0,0,0,0,0
							C822.6,181.2,822.2,180.3,821.5,179.5z"/>
					</g>
					<g>
						<path class="st2" d="M831.6,165.1c-0.9-0.5-1.9-0.8-3.1-0.8c-1.4,0-2.3,0.4-2.9,1.1c-0.6,0.7-0.9,1.6-0.9,2.6c0,0,0,0,0,0
							c0-1,0.3-1.8,0.9-2.6c0.6-0.7,1.6-1.1,2.9-1.1C829.7,164.4,830.8,164.6,831.6,165.1c0.9,0.6,1.7,1.3,2.4,2.1l1.7-7.9
							c0,0,0,0,0,0l-1.6,7.8C833.3,166.3,832.5,165.6,831.6,165.1z"/>
					</g>
					<g>
						<path class="st2" d="M827.6,156.7c-2,0-3.8,0.3-5.5,1c-1.7,0.7-3.2,1.5-4.4,2.7c-1.3,1.1-2.3,2.4-3,3.8
							c-0.7,1.4-1.1,2.9-1.1,4.5c0,1.6,0.4,3,1.3,4.4c0.9,1.4,2.3,2.8,4.2,4.3c0.9,0.7,1.7,1.4,2.4,2.2c0.7,0.8,1,1.6,1,2.5
							c0,0,0,0,0,0c0,0,0,0,0,0c0,2.5-1.3,3.7-4,3.7c-1.4,0-2.6-0.3-3.7-0.9c-1.1-0.6-2.1-1.4-2.9-2.5l-1.6,7.9
							c1.2,1,2.6,1.8,4.1,2.2c1.5,0.4,3.1,0.6,4.9,0.6c2.2,0,4.1-0.3,5.8-1c1.7-0.7,3.2-1.6,4.3-2.7c1.2-1.1,2.1-2.3,2.7-3.7
							c0.6-1.4,0.9-2.8,0.9-4.2c0-1-0.1-1.9-0.3-2.6c-0.2-0.8-0.5-1.5-1-2.2c-0.4-0.7-0.9-1.3-1.5-1.9c-0.6-0.6-1.3-1.2-2-1.9
							c-1-0.9-1.9-1.7-2.5-2.3c-0.6-0.6-1-1.5-1-2.7c0,0,0,0,0,0c0,0,0,0,0,0c0-1,0.3-1.9,0.9-2.6c0.6-0.7,1.6-1.1,2.9-1.1
							c1.2,0,2.2,0.3,3.1,0.8c0.9,0.5,1.7,1.2,2.4,2.1l1.6-7.8c-1.2-0.9-2.5-1.6-3.8-2C830.5,156.9,829.1,156.7,827.6,156.7z"/>
					</g>
					<g>
						<path class="st2" d="M797.7,156.5c-4.6,0-8.6,1.7-12,5c-3.4,3.4-5.6,7.8-6.6,13.4c-1,5.5-0.3,10,1.9,13.3
							c2.2,3.4,5.6,5,10.2,5c4.6,0,8.6-1.7,12-5c3.4-3.4,5.6-7.8,6.6-13.3c1-5.6,0.4-10-1.9-13.4
							C805.7,158.2,802.3,156.5,797.7,156.5z M799.1,174.9c-0.6,3.4-1.4,6-2.6,7.7c-1.1,1.8-2.4,2.6-4,2.6c-1.5,0-2.6-0.9-3-2.6
							c-0.5-1.8-0.4-4.3,0.2-7.7c0.6-3.4,1.5-6,2.6-7.8c1.1-1.8,2.4-2.7,4-2.7c1.5,0,2.5,0.9,3,2.7
							C799.8,168.9,799.7,171.5,799.1,174.9z"/>
					</g>
				</g>
			</g>
		</g>
	</g>
	<g>
		<g>
			<g>
				<g>
					<path class="st3" d="M93.9,232.8l-6.1,14.1l-76.2-39.3c0,0,2.1-5.6,5.6-14.3l0.2,0.1L93.9,232.8z"/>
					<path class="st4" d="M186.8,40h129.5c0,15.2-15.2,45.7-64.8,45.7S186.8,55.2,186.8,40z"/>
					<path class="st3" d="M491.6,207.6l-76.2,39.2l-6.1-14.1l76.6-39.5C489.5,202.1,491.6,207.6,491.6,207.6z"/>
				</g>
				<g>
					<path class="st5" d="M424.6,84.1C407.6,68.9,316.3,40,316.3,40c0,15.2-15.2,45.7-64.8,45.7S186.8,55.2,186.8,40
						c0,0-91.3,28.9-108.3,44.1c-13.3,11.9-48.9,78-61.3,109.2l0.2,0.1l76.4,39.4l16.8-32.8v312.4c0,4.2,3.4,7.6,7.6,7.6h266.7
						c4.2,0,7.6-3.4,7.6-7.6V200l16.8,32.8l76.6-39.5C473.5,162.1,437.9,96,424.6,84.1z"/>
					<path class="st6" d="M263.4,59h-22.9c-2.1,0-3.8-1.7-3.8-3.8c0-2.1,1.7-3.8,3.8-3.8h22.9c2.1,0,3.8,1.7,3.8,3.8
						C267.2,57.3,265.5,59,263.4,59z"/>
				</g>
			</g>
		</g>
		<g>
			<g>
				<g>
					<polygon points="192.5,155.4 165.8,155.4 164.3,163.9 172.2,163.9 167.5,192.5 178.2,192.5 182.9,163.9 191.1,163.9 					"/>
					<path d="M219.5,164.5c-1,0-1.8,0.1-2.5,0.4c-0.7,0.2-1.3,0.5-1.9,0.9c-0.5,0.4-1,0.8-1.4,1.2c-0.4,0.4-0.7,0.9-1,1.3
						c-0.4-1-1.1-1.9-2.1-2.7c-1-0.8-2.3-1.2-3.9-1.2c-1.7,0-3,0.2-4.1,0.7c-1.1,0.5-2,1.2-2.7,2.1l0.3-2.1h-7.9l-3.9,27.3h8.5
						l2.9-19.5c0.3-0.5,0.7-0.9,1.1-1.2c0.4-0.3,0.9-0.5,1.4-0.5c0,0,0.2,0,0.4,0.1c0.2,0,0.4,0.1,0.6,0.3c0.2,0.1,0.4,0.4,0.6,0.7
						c0.2,0.3,0.3,0.7,0.3,1.3c0,0.3,0,0.6-0.1,1.1c0,0.4-0.1,0.8-0.2,1.1l-2.4,16.7h8.6l2.7-19c0.3-0.6,0.7-1,1.2-1.4
						c0.5-0.4,1-0.6,1.5-0.6c0.8,0,1.3,0.3,1.5,0.8c0.2,0.6,0.4,1.1,0.4,1.6c0,0.3,0,0.6-0.1,0.9c0,0.4-0.1,0.7-0.1,0.9l-2.4,16.8
						h8.8l2.6-17.8c0-0.3,0.1-0.7,0.1-1.2c0.1-0.5,0.1-1,0.1-1.5c0-2.3-0.6-4.2-1.9-5.5C223.3,165.2,221.6,164.5,219.5,164.5z"/>
					<path d="M251.5,185.7c-0.3,0-0.6-0.1-0.8-0.3c-0.3-0.2-0.3-0.8-0.2-1.7l1.2-10c0.3-2,0.2-3.6-0.2-4.9c-0.4-1.2-1-2.2-1.8-2.9
						c-0.8-0.7-1.8-1.1-3-1.3c-1.2-0.2-2.5-0.3-3.9-0.3c-0.9,0-1.8,0.1-2.7,0.2c-0.9,0.2-1.8,0.4-2.7,0.7c-0.9,0.3-1.7,0.6-2.5,1
						c-0.8,0.4-1.4,0.7-2,1.1l-1.2,6.6c1.3-0.8,2.6-1.5,4-1.9c1.4-0.5,3-0.7,4.8-0.7c0.8,0,1.5,0.2,2,0.5c0.6,0.4,0.8,1,0.7,1.8
						L243,175c-1.7,0.1-3.3,0.3-4.7,0.5c-1.4,0.3-2.8,0.7-4.3,1.4c-1.2,0.5-2.2,1.1-3,1.8c-0.8,0.7-1.5,1.4-2.1,2.2
						c-0.5,0.8-0.9,1.6-1.2,2.4c-0.2,0.8-0.4,1.6-0.4,2.4c0,1.4,0.2,2.6,0.5,3.5c0.3,0.9,0.8,1.7,1.4,2.2c0.6,0.6,1.4,1,2.3,1.2
						c0.9,0.2,2,0.4,3.2,0.4c1.6,0,2.9-0.3,4-1c1.1-0.7,2.1-1.6,2.9-2.7c1.1,2.5,2.9,3.7,5.5,3.7c0.7,0,1.4-0.1,2-0.2
						c0.6-0.1,1.2-0.3,1.7-0.4l1.6-7.2C252.2,185.6,251.8,185.7,251.5,185.7z M241.2,185.6c-0.7,0.7-1.6,1-2.8,1
						c-0.4,0-0.8-0.1-1.1-0.4c-0.3-0.3-0.4-0.9-0.4-1.8c0-0.7,0.1-1.4,0.4-1.9c0.3-0.6,0.7-1,1.2-1.4c0.5-0.4,1.1-0.7,1.7-0.9
						c0.6-0.2,1.3-0.4,1.9-0.5L241.2,185.6z"/>
					<polygon points="273.7,165.2 269.6,171.9 266.8,165.2 257.4,165.2 262.3,177.3 252.6,192.5 260.2,192.5 265.5,183.5 
						269.1,192.5 278.8,192.5 272.8,177.8 281.1,165.2 					"/>
					<path d="M328.9,170.7c0.6,0.6,1.5,1.4,2.5,2.3c0.7,0.7,1.4,1.3,2,1.9c0.6,0.6,1.1,1.2,1.5,1.9c0.4,0.7,0.7,1.4,1,2.2
						c0.2,0.8,0.3,1.6,0.3,2.6c0,0,0,0,0,0c0-1-0.1-1.9-0.3-2.7c-0.2-0.8-0.5-1.5-1-2.2c-0.4-0.7-0.9-1.3-1.5-1.9
						c-0.6-0.6-1.3-1.2-2-1.9C330.3,172.1,329.5,171.3,328.9,170.7c-0.6-0.7-1-1.6-1-2.7c0,0,0,0,0,0
						C327.9,169.2,328.2,170.1,328.9,170.7z"/>
					<path d="M335,157.2c-1.4-0.4-2.8-0.6-4.3-0.6c-2,0-3.8,0.3-5.5,1c-1.7,0.7-3.2,1.5-4.4,2.7c-1.3,1.1-2.3,2.4-3,3.8
						c-0.7,1.4-1.1,3-1.1,4.6c0,0,0,0,0,0c0-1.6,0.4-3.1,1.1-4.5c0.7-1.4,1.7-2.7,3-3.8c1.3-1.1,2.7-2,4.4-2.7c1.7-0.7,3.5-1,5.5-1
						C332.2,156.7,333.7,156.9,335,157.2c1.3,0.5,2.6,1.2,3.8,2.1l0-0.1C337.6,158.3,336.4,157.6,335,157.2z"/>
					<path d="M318,184.9c1.1,0.6,2.3,0.9,3.7,0.9c2.7,0,4-1.2,4-3.7c0,0,0,0,0,0c0,2.5-1.3,3.7-4,3.7
						C320.3,185.8,319.1,185.5,318,184.9c-1.1-0.7-2.1-1.5-2.9-2.6l-1.7,8c0,0,0,0,0,0l1.6-7.9C315.9,183.5,316.9,184.3,318,184.9z"
						/>
					<path d="M332.6,189.5c-1.2,1.1-2.6,2-4.3,2.7c-1.7,0.7-3.7,1-5.8,1c-1.8,0-3.4-0.2-4.9-0.6c-1.5-0.4-2.9-1.1-4.1-2.2l0,0.1
						c1.2,1,2.6,1.8,4.1,2.2c1.5,0.4,3.1,0.6,4.9,0.6c2.2,0,4.1-0.3,5.8-1C330,191.6,331.4,190.7,332.6,189.5c1.2-1,2.1-2.3,2.7-3.7
						c0.6-1.4,0.9-2.8,0.9-4.2c0,0,0,0,0,0c0,1.4-0.3,2.8-0.9,4.2C334.7,187.2,333.8,188.4,332.6,189.5z"/>
					<path d="M324.7,179.5c-0.7-0.8-1.5-1.5-2.4-2.2c-1.9-1.5-3.3-2.9-4.2-4.3c-0.9-1.4-1.3-2.8-1.3-4.4c0,0,0,0,0,0
						c0,1.6,0.4,3,1.3,4.4c0.9,1.4,2.3,2.8,4.2,4.3C323.2,178.1,324,178.8,324.7,179.5c0.7,0.9,1,1.7,1,2.6c0,0,0,0,0,0
						C325.7,181.2,325.4,180.3,324.7,179.5z"/>
					<path d="M334.8,165.1c-0.9-0.5-1.9-0.8-3.1-0.8c-1.4,0-2.3,0.4-2.9,1.1c-0.6,0.7-0.9,1.6-0.9,2.6c0,0,0,0,0,0
						c0-1,0.3-1.8,0.9-2.6c0.6-0.7,1.6-1.1,2.9-1.1C332.9,164.4,333.9,164.6,334.8,165.1c0.9,0.6,1.7,1.3,2.4,2.1l1.7-7.9
						c0,0,0,0,0,0l-1.6,7.8C336.5,166.3,335.7,165.6,334.8,165.1z"/>
					<path d="M330.7,156.7c-2,0-3.8,0.3-5.5,1c-1.7,0.7-3.2,1.5-4.4,2.7c-1.3,1.1-2.3,2.4-3,3.8c-0.7,1.4-1.1,2.9-1.1,4.5
						c0,1.6,0.4,3,1.3,4.4c0.9,1.4,2.3,2.8,4.2,4.3c0.9,0.7,1.7,1.4,2.4,2.2c0.7,0.8,1,1.6,1,2.5c0,0,0,0,0,0c0,0,0,0,0,0
						c0,2.5-1.3,3.7-4,3.7c-1.4,0-2.6-0.3-3.7-0.9c-1.1-0.6-2.1-1.4-2.9-2.5l-1.6,7.9c1.2,1,2.6,1.8,4.1,2.2
						c1.5,0.4,3.1,0.6,4.9,0.6c2.2,0,4.1-0.3,5.8-1c1.7-0.7,3.2-1.6,4.3-2.7c1.2-1.1,2.1-2.3,2.7-3.7c0.6-1.4,0.9-2.8,0.9-4.2
						c0-1-0.1-1.9-0.3-2.6c-0.2-0.8-0.5-1.5-1-2.2c-0.4-0.7-0.9-1.3-1.5-1.9c-0.6-0.6-1.3-1.2-2-1.9c-1-0.9-1.9-1.7-2.5-2.3
						c-0.6-0.6-1-1.5-1-2.7c0,0,0,0,0,0c0,0,0,0,0,0c0-1,0.3-1.9,0.9-2.6c0.6-0.7,1.6-1.1,2.9-1.1c1.2,0,2.2,0.3,3.1,0.8
						c0.9,0.5,1.7,1.2,2.4,2.1l1.6-7.8c-1.2-0.9-2.5-1.6-3.8-2C333.7,156.9,332.2,156.7,330.7,156.7z"/>
					<path d="M300.9,156.5c-4.6,0-8.6,1.7-12,5c-3.4,3.4-5.6,7.8-6.6,13.4c-1,5.5-0.3,10,1.9,13.3c2.2,3.4,5.6,5,10.2,5
						c4.6,0,8.6-1.7,12-5c3.4-3.4,5.6-7.8,6.6-13.3c1-5.6,0.4-10-1.9-13.4C308.9,158.2,305.5,156.5,300.9,156.5z M302.3,174.9
						c-0.6,3.4-1.4,6-2.6,7.7c-1.1,1.8-2.4,2.6-4,2.6c-1.5,0-2.6-0.9-3-2.6c-0.5-1.8-0.4-4.3,0.2-7.7c0.6-3.4,1.5-6,2.6-7.8
						c1.1-1.8,2.4-2.7,4-2.7c1.5,0,2.5,0.9,3,2.7C303,168.9,302.9,171.5,302.3,174.9z"/>
				</g>
			</g>
		</g>
	</g>
</g>
</svg>
