<?xml version="1.0" encoding="utf-8"?>
<!-- Generator: Adobe Illustrator 25.1.0, SVG Export Plug-In . SVG Version: 6.00 Build 0)  -->
<svg version="1.1"
	 id="svg8" inkscape:export-filename="C:\Users\xine\Documents\2018-debian-buster\futurePrototype-source\stickers\png\sticker-04.png" inkscape:export-xdpi="96" inkscape:export-ydpi="96" inkscape:version="0.92.2 (5c3e80d, 2017-08-06)" sodipodi:docname="sticker-04.svg" xmlns:cc="http://creativecommons.org/ns#" xmlns:dc="http://purl.org/dc/elements/1.1/" xmlns:inkscape="http://www.inkscape.org/namespaces/inkscape" xmlns:ns2="http://ns.adobe.com/AdobeIllustrator/10.0/" xmlns:rdf="http://www.w3.org/1999/02/22-rdf-syntax-ns#" xmlns:sodipodi="http://sodipodi.sourceforge.net/DTD/sodipodi-0.dtd" xmlns:svg="http://www.w3.org/2000/svg"
	 xmlns="http://www.w3.org/2000/svg" xmlns:xlink="http://www.w3.org/1999/xlink" x="0px" y="0px" viewBox="0 0 171 213"
	 style="enable-background:new 0 0 171 213;" xml:space="preserve">
<style type="text/css">
	.st0{fill:#F2F2F2;stroke:#1A4D9A;stroke-width:5;stroke-linecap:square;stroke-miterlimit:15.1181;}
	.st1{fill:#1A4D9A;}
	.st2{fill:#D90000;}
</style>
<sodipodi:namedview  bordercolor="#b20eb2" borderlayer="true" borderopacity="1" id="base" inkscape:bbox-nodes="true" inkscape:bbox-paths="true" inkscape:current-layer="layer1" inkscape:cx="-174.18305" inkscape:cy="148.81211" inkscape:document-units="px" inkscape:object-paths="true" inkscape:pageopacity="0.0" inkscape:pageshadow="2" inkscape:showpageshadow="false" inkscape:snap-bbox="true" inkscape:snap-bbox-edge-midpoints="true" inkscape:snap-bbox-midpoints="true" inkscape:snap-intersection-paths="true" inkscape:snap-midpoints="true" inkscape:snap-page="true" inkscape:snap-smooth-nodes="true" inkscape:window-height="1017" inkscape:window-maximized="1" inkscape:window-width="1920" inkscape:window-x="-8" inkscape:window-y="-8" inkscape:zoom="1.3858405" pagecolor="#ffffff" showborder="true" showgrid="false" units="px">
	</sodipodi:namedview>
<g id="layer1" transform="translate(0,-240.64374)" inkscape:groupmode="layer" inkscape:label="Layer 1">
	<path id="rect812" class="st0" d="M12.7,244h145.6c5.5,0,10,4.5,10,10v186.4c0,5.5-4.5,10-10,10H12.7c-5.5,0-10-4.5-10-10V254
		C2.7,248.4,7.2,244,12.7,244z"/>
</g>
<g>
	<polygon class="st1" points="72.6,74.7 50.6,74.7 55.7,50.6 135.4,50.6 130.3,74.7 108.2,74.7 94.2,140.3 58.7,140.3 	"/>
	<polygon class="st2" points="81.7,63.7 40.2,63.7 48.9,25.1 90.5,25.1 	"/>
</g>
<g>
	<g>
		<g>
			<polygon points="39.1,161.1 17.1,161.1 15.9,168.1 22.4,168.1 18.5,191.6 27.3,191.6 31.2,168.1 37.9,168.1 			"/>
			<path d="M61.4,168.6c-0.8,0-1.5,0.1-2.1,0.3c-0.6,0.2-1.1,0.4-1.6,0.8c-0.4,0.3-0.8,0.6-1.1,1c-0.3,0.4-0.6,0.7-0.8,1.1
				c-0.4-0.8-0.9-1.5-1.7-2.2c-0.8-0.7-1.9-1-3.2-1c-1.4,0-2.5,0.2-3.4,0.6c-0.9,0.4-1.7,1-2.3,1.8l0.2-1.7h-6.5l-3.2,22.5h7
				l2.4-16.1c0.2-0.4,0.6-0.7,0.9-1c0.4-0.3,0.8-0.4,1.2-0.4c0,0,0.1,0,0.3,0c0.2,0,0.3,0.1,0.5,0.2c0.2,0.1,0.3,0.3,0.5,0.6
				c0.2,0.3,0.2,0.6,0.2,1.1c0,0.2,0,0.5,0,0.9c0,0.3-0.1,0.6-0.1,0.9l-2,13.8h7.1l2.2-15.7c0.2-0.5,0.6-0.9,1-1.2
				c0.4-0.3,0.8-0.5,1.2-0.5c0.6,0,1.1,0.2,1.3,0.7c0.2,0.5,0.3,0.9,0.3,1.3c0,0.2,0,0.5,0,0.8c0,0.3-0.1,0.6-0.1,0.8l-2,13.8h7.3
				l2.1-14.7c0-0.2,0.1-0.6,0.1-1c0-0.4,0.1-0.8,0.1-1.2c0-1.9-0.5-3.4-1.5-4.5C64.4,169.1,63.1,168.6,61.4,168.6z"/>
			<path d="M87.7,186c-0.2,0-0.5-0.1-0.7-0.2c-0.2-0.2-0.3-0.6-0.2-1.4l1-8.2c0.2-1.6,0.2-3-0.2-4c-0.3-1-0.8-1.8-1.5-2.4
				c-0.7-0.5-1.5-0.9-2.5-1.1c-1-0.2-2.1-0.3-3.2-0.3c-0.7,0-1.5,0.1-2.2,0.2c-0.8,0.1-1.5,0.3-2.2,0.6c-0.7,0.2-1.4,0.5-2.1,0.8
				c-0.6,0.3-1.2,0.6-1.6,0.9l-1,5.4c1-0.7,2.1-1.2,3.3-1.6c1.2-0.4,2.5-0.6,4-0.6c0.6,0,1.2,0.1,1.7,0.4c0.5,0.3,0.7,0.8,0.6,1.5
				l-0.1,1.1c-1.4,0.1-2.7,0.2-3.8,0.4c-1.2,0.2-2.3,0.6-3.6,1.1c-1,0.4-1.8,0.9-2.5,1.5c-0.7,0.6-1.2,1.2-1.7,1.8
				c-0.4,0.7-0.8,1.3-1,2c-0.2,0.7-0.3,1.3-0.3,2c0,1.2,0.1,2.1,0.4,2.9c0.3,0.8,0.7,1.4,1.2,1.8c0.5,0.5,1.2,0.8,1.9,1
				c0.8,0.2,1.6,0.3,2.6,0.3c1.3,0,2.4-0.3,3.3-0.8c0.9-0.6,1.7-1.3,2.4-2.2c0.9,2,2.4,3.1,4.6,3.1c0.6,0,1.2,0,1.6-0.1
				c0.5-0.1,1-0.2,1.4-0.4l1.3-5.9C88.3,185.9,88,186,87.7,186z M79.2,185.9c-0.5,0.6-1.3,0.8-2.3,0.8c-0.4,0-0.7-0.1-0.9-0.4
				c-0.2-0.2-0.3-0.7-0.3-1.5c0-0.6,0.1-1.1,0.4-1.6c0.2-0.5,0.6-0.8,1-1.2c0.4-0.3,0.9-0.6,1.4-0.8c0.5-0.2,1-0.3,1.6-0.4
				L79.2,185.9z"/>
			<polygon points="106.1,169.1 102.6,174.6 100.3,169.1 92.6,169.1 96.6,179.1 88.6,191.6 94.9,191.6 99.3,184.2 102.3,191.6 
				110.2,191.6 105.2,179.5 112.1,169.1 			"/>
			<path d="M151.5,173.7c0.5,0.5,1.2,1.2,2.1,1.9c0.6,0.6,1.2,1.1,1.7,1.6c0.5,0.5,0.9,1,1.3,1.6c0.4,0.5,0.6,1.1,0.8,1.8
				c0.2,0.6,0.3,1.4,0.3,2.2c0,0,0,0,0,0c0-0.8-0.1-1.6-0.3-2.2c-0.2-0.6-0.4-1.2-0.8-1.8c-0.3-0.5-0.8-1.1-1.3-1.6
				c-0.5-0.5-1.1-1-1.7-1.6C152.7,174.8,152,174.2,151.5,173.7c-0.5-0.6-0.8-1.3-0.8-2.2c0,0,0,0,0,0
				C150.7,172.4,151,173.2,151.5,173.7z"/>
			<path d="M156.5,162.6c-1.1-0.4-2.3-0.5-3.5-0.5c-1.6,0-3.1,0.3-4.5,0.8c-1.4,0.5-2.6,1.3-3.7,2.2c-1,0.9-1.9,2-2.5,3.2
				c-0.6,1.2-0.9,2.4-0.9,3.8c0,0,0,0,0,0c0-1.3,0.3-2.5,0.9-3.7c0.6-1.2,1.4-2.2,2.5-3.2c1-0.9,2.3-1.7,3.7-2.2
				c1.4-0.5,2.9-0.8,4.5-0.8C154.3,162.1,155.4,162.3,156.5,162.6c1.1,0.4,2.2,1,3.2,1.7l0-0.1C158.7,163.5,157.7,162.9,156.5,162.6
				z"/>
			<path d="M142.5,185.4c0.9,0.5,1.9,0.8,3.1,0.8c2.2,0,3.3-1,3.3-3.1c0,0,0,0,0,0c0,2-1.1,3-3.3,3
				C144.5,186.1,143.4,185.9,142.5,185.4c-0.9-0.6-1.7-1.3-2.4-2.1l-1.4,6.6c0,0,0,0,0,0l1.4-6.5
				C140.8,184.2,141.6,184.9,142.5,185.4z"/>
			<path d="M154.6,189.2c-1,0.9-2.2,1.6-3.6,2.2c-1.4,0.6-3,0.8-4.8,0.8c-1.5,0-2.8-0.2-4-0.5c-1.2-0.3-2.4-0.9-3.4-1.8l0,0.1
				c1,0.8,2.2,1.4,3.4,1.8c1.2,0.4,2.6,0.5,4,0.5c1.8,0,3.4-0.3,4.8-0.8C152.4,190.9,153.6,190.2,154.6,189.2c1-0.8,1.7-1.9,2.2-3
				c0.5-1.1,0.8-2.3,0.8-3.5c0,0,0,0,0,0c0,1.2-0.3,2.3-0.8,3.4C156.3,187.3,155.5,188.3,154.6,189.2z"/>
			<path d="M148.1,180.9c-0.6-0.7-1.2-1.3-1.9-1.8c-1.6-1.2-2.8-2.4-3.5-3.5c-0.7-1.1-1.1-2.3-1.1-3.6c0,0,0,0,0,0
				c0,1.3,0.4,2.5,1.1,3.6c0.7,1.1,1.9,2.3,3.5,3.5C146.8,179.7,147.5,180.3,148.1,180.9c0.6,0.7,0.8,1.4,0.8,2.1c0,0,0,0,0,0
				C148.9,182.3,148.6,181.6,148.1,180.9z"/>
			<path d="M156.4,169c-0.7-0.4-1.6-0.6-2.6-0.6c-1.1,0-1.9,0.3-2.4,0.9c-0.5,0.6-0.7,1.3-0.7,2.1c0,0,0,0,0,0
				c0-0.8,0.2-1.5,0.7-2.1c0.5-0.6,1.3-0.9,2.4-0.9C154.8,168.5,155.7,168.7,156.4,169c0.7,0.5,1.4,1,2,1.8l1.4-6.5c0,0,0,0,0,0
				l-1.4,6.5C157.8,170,157.1,169.5,156.4,169z"/>
			<path d="M153,162.1c-1.6,0-3.1,0.3-4.5,0.8c-1.4,0.5-2.6,1.3-3.7,2.2c-1,0.9-1.9,2-2.5,3.2c-0.6,1.2-0.9,2.4-0.9,3.7
				c0,1.3,0.4,2.5,1.1,3.6c0.7,1.1,1.9,2.3,3.5,3.5c0.7,0.6,1.4,1.2,1.9,1.8c0.6,0.7,0.8,1.4,0.8,2.1c0,0,0,0,0,0c0,0,0,0,0,0
				c0,2.1-1.1,3.1-3.3,3.1c-1.1,0-2.2-0.3-3.1-0.8c-0.9-0.5-1.7-1.2-2.4-2l-1.4,6.5c1,0.8,2.1,1.4,3.4,1.8c1.2,0.4,2.6,0.5,4,0.5
				c1.8,0,3.4-0.3,4.8-0.8c1.4-0.6,2.6-1.3,3.6-2.2c1-0.9,1.7-1.9,2.2-3.1c0.5-1.1,0.8-2.3,0.8-3.4c0-0.8-0.1-1.5-0.3-2.2
				c-0.2-0.6-0.4-1.2-0.8-1.8c-0.3-0.5-0.8-1.1-1.3-1.6c-0.5-0.5-1.1-1-1.7-1.6c-0.8-0.7-1.5-1.4-2.1-1.9c-0.5-0.5-0.8-1.3-0.8-2.2
				c0,0,0,0,0,0c0,0,0,0,0,0c0-0.8,0.2-1.5,0.7-2.1c0.5-0.6,1.3-0.9,2.4-0.9c1,0,1.9,0.2,2.6,0.6c0.7,0.4,1.4,1,2,1.7l1.4-6.5
				c-1-0.8-2-1.3-3.2-1.7C155.4,162.3,154.3,162.1,153,162.1z"/>
			<path d="M128.4,162c-3.8,0-7.1,1.4-9.9,4.1c-2.8,2.8-4.6,6.4-5.4,11c-0.8,4.6-0.3,8.2,1.6,11c1.8,2.8,4.7,4.2,8.4,4.2
				c3.8,0,7.1-1.4,9.9-4.2c2.8-2.8,4.6-6.4,5.4-11c0.8-4.6,0.3-8.3-1.5-11C135,163.3,132.2,162,128.4,162z M129.6,177.1
				c-0.5,2.8-1.2,4.9-2.1,6.4c-0.9,1.5-2,2.2-3.3,2.2c-1.3,0-2.1-0.7-2.5-2.2c-0.4-1.5-0.4-3.6,0.1-6.4c0.5-2.8,1.2-5,2.1-6.4
				c0.9-1.5,2-2.2,3.3-2.2c1.3,0,2.1,0.7,2.5,2.2C130.1,172.2,130.1,174.3,129.6,177.1z"/>
		</g>
	</g>
</g>
</svg>
