<?xml version="1.0" encoding="utf-8"?>
<!-- Generator: Adobe Illustrator 25.1.0, SVG Export Plug-In . SVG Version: 6.00 Build 0)  -->
<svg version="1.1"
	 id="svg8" inkscape:export-filename="C:\Users\xine\Documents\2018-debian-buster\futurePrototype-source\stickers\png\sticker-03.png" inkscape:export-xdpi="96" inkscape:export-ydpi="96" inkscape:version="0.92.2 (5c3e80d, 2017-08-06)" sodipodi:docname="sticker-03.svg" xmlns:cc="http://creativecommons.org/ns#" xmlns:dc="http://purl.org/dc/elements/1.1/" xmlns:inkscape="http://www.inkscape.org/namespaces/inkscape" xmlns:ns2="http://ns.adobe.com/AdobeIllustrator/10.0/" xmlns:rdf="http://www.w3.org/1999/02/22-rdf-syntax-ns#" xmlns:sodipodi="http://sodipodi.sourceforge.net/DTD/sodipodi-0.dtd" xmlns:svg="http://www.w3.org/2000/svg"
	 xmlns="http://www.w3.org/2000/svg" xmlns:xlink="http://www.w3.org/1999/xlink" x="0px" y="0px" viewBox="0 0 171 213"
	 style="enable-background:new 0 0 171 213;" xml:space="preserve">
<style type="text/css">
	.st0{fill:#1A4D9A;}
	.st1{fill:#FFFFFF;}
	.st2{fill:#D90000;}
</style>
<sodipodi:namedview  bordercolor="#b20eb2" borderlayer="true" borderopacity="1" id="base" inkscape:bbox-nodes="true" inkscape:bbox-paths="true" inkscape:current-layer="layer1" inkscape:cx="-1.7597791" inkscape:cy="136.71465" inkscape:document-units="px" inkscape:object-paths="true" inkscape:pageopacity="0.0" inkscape:pageshadow="2" inkscape:showpageshadow="false" inkscape:snap-bbox="true" inkscape:snap-bbox-edge-midpoints="true" inkscape:snap-bbox-midpoints="true" inkscape:snap-global="true" inkscape:snap-intersection-paths="true" inkscape:snap-midpoints="true" inkscape:snap-page="true" inkscape:snap-smooth-nodes="true" inkscape:window-height="1017" inkscape:window-maximized="1" inkscape:window-width="1920" inkscape:window-x="-8" inkscape:window-y="-8" inkscape:zoom="1.3858404" pagecolor="#ffffff" showborder="true" showgrid="false" units="px">
	</sodipodi:namedview>
<g id="layer1" transform="translate(0,-240.64374)" inkscape:groupmode="layer" inkscape:label="Layer 1">
	<rect id="rect812" x="0" y="240.6" class="st0" width="171" height="213"/>
</g>
<g>
	<g>
		<polygon class="st1" points="72.6,126.7 50.6,126.7 55.7,102.6 135.4,102.6 130.3,126.7 108.2,126.7 94.2,192.3 58.7,192.3 		"/>
		<polygon class="st2" points="81.7,115.7 40.2,115.7 48.9,77.1 90.5,77.1 		"/>
	</g>
	<g>
		<g>
			<g>
				<g>
					<polygon class="st1" points="39.1,20.7 17.1,20.7 15.9,27.7 22.4,27.7 18.5,51.3 27.3,51.3 31.2,27.7 37.9,27.7 					"/>
				</g>
				<g>
					<path class="st1" d="M61.4,28.2c-0.8,0-1.5,0.1-2.1,0.3c-0.6,0.2-1.1,0.4-1.6,0.8c-0.4,0.3-0.8,0.6-1.1,1
						c-0.3,0.4-0.6,0.7-0.8,1.1c-0.4-0.8-0.9-1.5-1.7-2.2c-0.8-0.7-1.9-1-3.2-1c-1.4,0-2.5,0.2-3.4,0.6c-0.9,0.4-1.7,1-2.3,1.8
						l0.2-1.7h-6.5l-3.2,22.5h7l2.4-16.1c0.2-0.4,0.6-0.7,0.9-1c0.4-0.3,0.8-0.4,1.2-0.4c0,0,0.1,0,0.3,0c0.2,0,0.3,0.1,0.5,0.2
						c0.2,0.1,0.3,0.3,0.5,0.6c0.2,0.3,0.2,0.6,0.2,1.1c0,0.2,0,0.5,0,0.9c0,0.3-0.1,0.6-0.1,0.9l-2,13.8h7.1l2.2-15.7
						c0.2-0.5,0.6-0.9,1-1.2c0.4-0.3,0.8-0.5,1.2-0.5c0.6,0,1.1,0.2,1.3,0.7c0.2,0.5,0.3,0.9,0.3,1.3c0,0.2,0,0.5,0,0.8
						c0,0.3-0.1,0.6-0.1,0.8l-2,13.8h7.3l2.1-14.7c0-0.2,0.1-0.6,0.1-1c0-0.4,0.1-0.8,0.1-1.2c0-1.9-0.5-3.4-1.5-4.5
						C64.4,28.8,63.1,28.2,61.4,28.2z"/>
				</g>
				<g>
					<path class="st1" d="M87.7,45.7c-0.2,0-0.5-0.1-0.7-0.2c-0.2-0.2-0.3-0.6-0.2-1.4l1-8.2c0.2-1.6,0.2-3-0.2-4
						c-0.3-1-0.8-1.8-1.5-2.4c-0.7-0.5-1.5-0.9-2.5-1.1c-1-0.2-2.1-0.3-3.2-0.3c-0.7,0-1.5,0.1-2.2,0.2c-0.8,0.1-1.5,0.3-2.2,0.6
						c-0.7,0.2-1.4,0.5-2.1,0.8c-0.6,0.3-1.2,0.6-1.6,0.9l-1,5.4c1-0.7,2.1-1.2,3.3-1.6c1.2-0.4,2.5-0.6,4-0.6
						c0.6,0,1.2,0.1,1.7,0.4c0.5,0.3,0.7,0.8,0.6,1.5l-0.1,1.1c-1.4,0.1-2.7,0.2-3.8,0.4c-1.2,0.2-2.3,0.6-3.6,1.1
						c-1,0.4-1.8,0.9-2.5,1.5c-0.7,0.6-1.2,1.2-1.7,1.8c-0.4,0.7-0.8,1.3-1,2c-0.2,0.7-0.3,1.3-0.3,2c0,1.2,0.1,2.1,0.4,2.9
						c0.3,0.8,0.7,1.4,1.2,1.8c0.5,0.5,1.2,0.8,1.9,1c0.8,0.2,1.6,0.3,2.6,0.3c1.3,0,2.4-0.3,3.3-0.8c0.9-0.6,1.7-1.3,2.4-2.2
						c0.9,2,2.4,3.1,4.6,3.1c0.6,0,1.2,0,1.6-0.1c0.5-0.1,1-0.2,1.4-0.4l1.3-5.9C88.3,45.6,88,45.7,87.7,45.7z M79.2,45.6
						c-0.5,0.6-1.3,0.8-2.3,0.8c-0.4,0-0.7-0.1-0.9-0.4c-0.2-0.2-0.3-0.7-0.3-1.5c0-0.6,0.1-1.1,0.4-1.6c0.2-0.5,0.6-0.8,1-1.2
						c0.4-0.3,0.9-0.6,1.4-0.8c0.5-0.2,1-0.3,1.6-0.4L79.2,45.6z"/>
				</g>
				<g>
					<polygon class="st1" points="106.1,28.8 102.6,34.3 100.3,28.8 92.6,28.8 96.6,38.8 88.6,51.3 94.9,51.3 99.3,43.8 102.3,51.3 
						110.2,51.3 105.2,39.2 112.1,28.8 					"/>
				</g>
				<g>
					<path class="st1" d="M151.5,33.3c0.5,0.5,1.2,1.2,2.1,1.9c0.6,0.6,1.2,1.1,1.7,1.6c0.5,0.5,0.9,1,1.3,1.6
						c0.4,0.5,0.6,1.1,0.8,1.8c0.2,0.6,0.3,1.4,0.3,2.2c0,0,0,0,0,0c0-0.8-0.1-1.6-0.3-2.2c-0.2-0.6-0.4-1.2-0.8-1.8
						c-0.3-0.5-0.8-1.1-1.3-1.6c-0.5-0.5-1.1-1-1.7-1.6C152.7,34.4,152,33.8,151.5,33.3c-0.5-0.6-0.8-1.3-0.8-2.2c0,0,0,0,0,0
						C150.7,32.1,151,32.8,151.5,33.3z"/>
				</g>
				<g>
					<path class="st1" d="M156.5,22.2c-1.1-0.4-2.3-0.5-3.5-0.5c-1.6,0-3.1,0.3-4.5,0.8c-1.4,0.5-2.6,1.3-3.7,2.2
						c-1,0.9-1.9,2-2.5,3.2c-0.6,1.2-0.9,2.4-0.9,3.8c0,0,0,0,0,0c0-1.3,0.3-2.5,0.9-3.7c0.6-1.2,1.4-2.2,2.5-3.2
						c1-0.9,2.3-1.7,3.7-2.2c1.4-0.5,2.9-0.8,4.5-0.8C154.3,21.7,155.4,21.9,156.5,22.2c1.1,0.4,2.2,1,3.2,1.7l0-0.1
						C158.7,23.1,157.7,22.5,156.5,22.2z"/>
				</g>
				<g>
					<path class="st1" d="M142.5,45c0.9,0.5,1.9,0.8,3.1,0.8c2.2,0,3.3-1,3.3-3.1c0,0,0,0,0,0c0,2-1.1,3-3.3,3
						C144.5,45.7,143.4,45.5,142.5,45c-0.9-0.6-1.7-1.3-2.4-2.1l-1.4,6.6c0,0,0,0,0,0l1.4-6.5C140.8,43.8,141.6,44.5,142.5,45z"/>
				</g>
				<g>
					<path class="st1" d="M154.6,48.8c-1,0.9-2.2,1.6-3.6,2.2c-1.4,0.6-3,0.8-4.8,0.8c-1.5,0-2.8-0.2-4-0.5
						c-1.2-0.3-2.4-0.9-3.4-1.8l0,0.1c1,0.8,2.2,1.4,3.4,1.8c1.2,0.4,2.6,0.5,4,0.5c1.8,0,3.4-0.3,4.8-0.8
						C152.4,50.5,153.6,49.8,154.6,48.8c1-0.8,1.7-1.9,2.2-3c0.5-1.1,0.8-2.3,0.8-3.5c0,0,0,0,0,0c0,1.2-0.3,2.3-0.8,3.4
						C156.3,46.9,155.5,47.9,154.6,48.8z"/>
				</g>
				<g>
					<path class="st1" d="M148.1,40.6c-0.6-0.7-1.2-1.3-1.9-1.8c-1.6-1.2-2.8-2.4-3.5-3.5c-0.7-1.1-1.1-2.3-1.1-3.6c0,0,0,0,0,0
						c0,1.3,0.4,2.5,1.1,3.6c0.7,1.1,1.9,2.3,3.5,3.5C146.8,39.4,147.5,40,148.1,40.6c0.6,0.7,0.8,1.4,0.8,2.1c0,0,0,0,0,0
						C148.9,41.9,148.6,41.2,148.1,40.6z"/>
				</g>
				<g>
					<path class="st1" d="M156.4,28.7c-0.7-0.4-1.6-0.6-2.6-0.6c-1.1,0-1.9,0.3-2.4,0.9c-0.5,0.6-0.7,1.3-0.7,2.1c0,0,0,0,0,0
						c0-0.8,0.2-1.5,0.7-2.1c0.5-0.6,1.3-0.9,2.4-0.9C154.8,28.1,155.7,28.3,156.4,28.7c0.7,0.5,1.4,1,2,1.8l1.4-6.5c0,0,0,0,0,0
						l-1.4,6.5C157.8,29.7,157.1,29.1,156.4,28.7z"/>
				</g>
				<g>
					<path class="st1" d="M153,21.7c-1.6,0-3.1,0.3-4.5,0.8c-1.4,0.5-2.6,1.3-3.7,2.2c-1,0.9-1.9,2-2.5,3.2
						c-0.6,1.2-0.9,2.4-0.9,3.7c0,1.3,0.4,2.5,1.1,3.6c0.7,1.1,1.9,2.3,3.5,3.5c0.7,0.6,1.4,1.2,1.9,1.8c0.6,0.7,0.8,1.4,0.8,2.1
						c0,0,0,0,0,0c0,0,0,0,0,0c0,2.1-1.1,3.1-3.3,3.1c-1.1,0-2.2-0.3-3.1-0.8c-0.9-0.5-1.7-1.2-2.4-2l-1.4,6.5
						c1,0.8,2.1,1.4,3.4,1.8c1.2,0.4,2.6,0.5,4,0.5c1.8,0,3.4-0.3,4.8-0.8c1.4-0.6,2.6-1.3,3.6-2.2c1-0.9,1.7-1.9,2.2-3.1
						c0.5-1.1,0.8-2.3,0.8-3.4c0-0.8-0.1-1.5-0.3-2.2c-0.2-0.6-0.4-1.2-0.8-1.8c-0.3-0.5-0.8-1.1-1.3-1.6c-0.5-0.5-1.1-1-1.7-1.6
						c-0.8-0.7-1.5-1.4-2.1-1.9c-0.5-0.5-0.8-1.3-0.8-2.2c0,0,0,0,0,0c0,0,0,0,0,0c0-0.8,0.2-1.5,0.7-2.1c0.5-0.6,1.3-0.9,2.4-0.9
						c1,0,1.9,0.2,2.6,0.6c0.7,0.4,1.4,1,2,1.7l1.4-6.5c-1-0.8-2-1.3-3.2-1.7C155.4,21.9,154.3,21.7,153,21.7z"/>
				</g>
				<g>
					<path class="st1" d="M128.4,21.6c-3.8,0-7.1,1.4-9.9,4.1c-2.8,2.8-4.6,6.4-5.4,11c-0.8,4.6-0.3,8.2,1.6,11
						c1.8,2.8,4.7,4.2,8.4,4.2c3.8,0,7.1-1.4,9.9-4.2c2.8-2.8,4.6-6.4,5.4-11c0.8-4.6,0.3-8.3-1.5-11C135,23,132.2,21.6,128.4,21.6z
						 M129.6,36.8c-0.5,2.8-1.2,4.9-2.1,6.4c-0.9,1.5-2,2.2-3.3,2.2c-1.3,0-2.1-0.7-2.5-2.2c-0.4-1.5-0.4-3.6,0.1-6.4
						c0.5-2.8,1.2-5,2.1-6.4c0.9-1.5,2-2.2,3.3-2.2c1.3,0,2.1,0.7,2.5,2.2C130.1,31.8,130.1,34,129.6,36.8z"/>
				</g>
			</g>
		</g>
	</g>
</g>
</svg>
