<?xml version="1.0" encoding="utf-8"?>
<!-- Generator: Adobe Illustrator 25.1.0, SVG Export Plug-In . SVG Version: 6.00 Build 0)  -->
<svg version="1.1"
	 id="svg124" inkscape:export-filename="C:\Users\xine\Documents\2018-debian-buster\futurePrototype-source\wiki-banner\png\wiki-banner.png" inkscape:export-xdpi="96" inkscape:export-ydpi="96" inkscape:version="0.92.2 (5c3e80d, 2017-08-06)" sodipodi:docname="wiki-banner.svg" xmlns:cc="http://creativecommons.org/ns#" xmlns:dc="http://purl.org/dc/elements/1.1/" xmlns:inkscape="http://www.inkscape.org/namespaces/inkscape" xmlns:ns2="http://ns.adobe.com/AdobeIllustrator/10.0/" xmlns:rdf="http://www.w3.org/1999/02/22-rdf-syntax-ns#" xmlns:sodipodi="http://sodipodi.sourceforge.net/DTD/sodipodi-0.dtd" xmlns:svg="http://www.w3.org/2000/svg"
	 xmlns="http://www.w3.org/2000/svg" xmlns:xlink="http://www.w3.org/1999/xlink" x="0px" y="0px" viewBox="0 0 380 380"
	 style="enable-background:new 0 0 380 380;" xml:space="preserve">
<style type="text/css">
	.st0{fill:#082E66;}
	.st1{fill:none;}
	.st2{opacity:0.15;fill:#7793C4;enable-background:new    ;}
	.st3{opacity:0.15;fill:none;}
	.st4{opacity:0.15;}
	.st5{opacity:7.000000e-02;fill:#FFFFFF;enable-background:new    ;}
	.st6{opacity:0.1;fill:#FFFFFF;enable-background:new    ;}
	.st7{opacity:0.4;fill:#123777;enable-background:new    ;}
	.st8{opacity:0.1;enable-background:new    ;}
	.st9{fill:#FFFFFF;}
</style>
<path class="st0" d="M380,372.1V7.9c0-4.4-3.5-7.9-7.9-7.9H7.9C3.5,0,0,3.5,0,7.9v364.2c0,4.4,3.5,7.9,7.9,7.9h364.2
	C376.5,380,380,376.5,380,372.1z"/>
<path class="st1" d="M372.1,380H7.9c-4.4,0-7.9-3.5-7.9-7.9V7.9C0,3.5,3.5,0,7.9,0h364.2c4.4,0,7.9,3.5,7.9,7.9v364.2
	C380,376.5,376.5,380,372.1,380z"/>
<g>
	<path class="st1" d="M380,7.9c0-4.4-3.5-7.9-7.9-7.9h-34.7L380,29.2V7.9z"/>
	<path class="st2" d="M178.2,219.8c96,0,176.9-64.4,201.8-152.4V7.9c0-4.4-3.5-7.9-7.9-7.9H7.9C3.5,0,0,3.5,0,7.9v112.9
		C37,180.3,103,219.8,178.2,219.8z"/>
	<g>
		<path class="st1" d="M380,7.9c0-4.4-3.5-7.9-7.9-7.9H7.9C3.5,0,0,3.5,0,7.9v364.2c0,4.4,3.5,7.9,7.9,7.9h241.5l29.8-51.5h2.4
			L251.8,380h4.9l29.8-51.5h2.5L259.2,380h4.9l29.8-51.5h2.5L266.5,380h4.9l29.8-51.5h2.5L273.8,380h4.9l29.8-51.5h2.4L281.1,380
			h4.9l29.8-51.5h2.5L288.5,380h4.9l29.8-51.5h2.5L295.8,380h4.9l29.8-51.5h2.5L303.1,380h4.9l29.8-51.5h2.4L310.4,380h4.9
			l29.8-51.5h2.5L317.8,380h4.9l29.8-51.5h2.5L325.1,380h4.9l29.8-51.5h2.5L332.4,380h4.9l29.8-51.5h2.4L339.7,380h4.9l28.5-49.4
			l1.2,2.1L347.1,380h4.9l24.9-43.1l1.2,2.2L354.4,380h4.9l20.7-35.8"/>
		<g>
			<path class="st3" d="M380,361.1L369.1,380h3c0.7,0,1.4-0.1,2-0.3l5.9-10.2V361.1z"/>
			<polygon class="st3" points="380,348.4 361.7,380 366.6,380 380,356.8 			"/>
			<path class="st3" d="M379.7,374.4l-1.8,3C378.7,376.6,379.3,375.6,379.7,374.4z"/>
			<polygon class="st4" points="279.2,328.5 249.4,380 251.8,380 281.6,328.5 			"/>
			<polygon class="st4" points="286.5,328.5 256.7,380 259.2,380 288.9,328.5 			"/>
			<polygon class="st4" points="293.8,328.5 264,380 266.5,380 296.3,328.5 			"/>
			<polygon class="st4" points="301.1,328.5 271.3,380 273.8,380 303.6,328.5 			"/>
			<polygon class="st4" points="308.5,328.5 278.7,380 281.1,380 310.9,328.5 			"/>
			<polygon class="st4" points="315.8,328.5 286,380 288.5,380 318.2,328.5 			"/>
			<polygon class="st4" points="323.1,328.5 293.3,380 295.8,380 325.6,328.5 			"/>
			<polygon class="st4" points="330.4,328.5 300.7,380 303.1,380 332.9,328.5 			"/>
			<polygon class="st4" points="337.8,328.5 308,380 310.4,380 340.2,328.5 			"/>
			<polygon class="st4" points="345.1,328.5 315.3,380 317.8,380 347.6,328.5 			"/>
			<polygon class="st4" points="352.4,328.5 322.6,380 325.1,380 354.9,328.5 			"/>
			<polygon class="st4" points="359.7,328.5 330,380 332.4,380 362.2,328.5 			"/>
			<polygon class="st4" points="367.1,328.5 337.3,380 339.7,380 369.5,328.5 			"/>
			<polygon class="st4" points="373.2,330.6 344.6,380 347.1,380 374.4,332.7 			"/>
			<polygon class="st4" points="376.8,336.9 352,380 354.4,380 378.1,339.1 			"/>
			<polygon class="st4" points="380,344.2 359.3,380 361.7,380 380,348.4 			"/>
			<polygon class="st4" points="380,356.8 366.6,380 369.1,380 380,361.1 			"/>
			<path class="st4" d="M377.9,377.5l1.8-3c0.2-0.7,0.3-1.5,0.3-2.3v-2.6l-5.9,10.2C375.6,379.4,376.9,378.6,377.9,377.5z"/>
		</g>
	</g>
	<rect y="25.9" class="st5" width="103.3" height="6.3"/>
	<circle class="st6" cx="303.8" cy="197.2" r="45.6"/>
	<g>
		<polygon class="st7" points="354,308.2 41.3,233.4 6.2,380 336.8,380 		"/>
	</g>
	<g>
		<path class="st8" d="M33,0v176.1v85.1c0,18-14.6,32.6-32.6,32.6c-0.1,0-0.3,0-0.4,0v58.5c0.1,0,0.3,0,0.4,0
			c50.3,0,91.1-40.8,91.1-91.1V0H33z"/>
	</g>
</g>
<sodipodi:namedview  bordercolor="#cc009d" borderlayer="true" borderopacity="1" gridtolerance="10" guidetolerance="10" id="namedview126" inkscape:current-layer="svg124" inkscape:cx="110.40111" inkscape:cy="223.82911" inkscape:pageopacity="0" inkscape:pageshadow="2" inkscape:showpageshadow="false" inkscape:window-height="1017" inkscape:window-maximized="1" inkscape:window-width="1920" inkscape:window-x="-8" inkscape:window-y="-8" inkscape:zoom="0.98252467" objecttolerance="10" pagecolor="#ffffff" showgrid="false">
	</sodipodi:namedview>
<g id="Layer_1">
	<g id="Layer_1_1_">
	</g>
</g>
<g>
	<g>
		<g>
			<g>
				<polygon class="st9" points="97.3,160.3 55.2,160.3 53,173.6 65.4,173.6 57.9,218.5 74.7,218.5 82.2,173.6 95,173.6 				"/>
			</g>
			<g>
				<path class="st9" d="M139.7,174.5c-1.5,0-2.8,0.2-4,0.6c-1.1,0.4-2.1,0.9-3,1.4c-0.8,0.6-1.6,1.2-2.2,1.9
					c-0.6,0.7-1.1,1.4-1.5,2c-0.7-1.5-1.8-2.9-3.3-4.2s-3.6-2-6.2-2s-4.8,0.4-6.5,1.2s-3.2,1.9-4.3,3.4l0.4-3.2H96.8l-6.2,42.9H104
					l4.5-30.6c0.5-0.8,1-1.4,1.7-1.9s1.4-0.7,2.3-0.7c0.1,0,0.2,0,0.6,0.1c0.3,0.1,0.7,0.2,1,0.4s0.7,0.6,1,1.1s0.4,1.2,0.4,2
					c0,0.5,0,1-0.1,1.7c-0.1,0.6-0.1,1.2-0.3,1.7l-3.8,26.3h13.5l4.3-29.9c0.5-0.9,1.1-1.6,1.9-2.3c0.8-0.6,1.6-1,2.3-1
					c1.2,0,2,0.4,2.4,1.3c0.4,0.9,0.6,1.7,0.6,2.4c0,0.4,0,0.9-0.1,1.5s-0.1,1.1-0.2,1.5l-3.8,26.4H146l4-27.9
					c0.1-0.5,0.1-1.1,0.2-1.9c0.1-0.8,0.1-1.6,0.1-2.3c0-3.7-1-6.5-2.9-8.7C145.5,175.6,142.9,174.5,139.7,174.5z"/>
			</g>
			<g>
				<path class="st9" d="M189.9,207.8c-0.5,0-0.9-0.1-1.3-0.4c-0.4-0.3-0.5-1.2-0.3-2.7l1.9-15.7c0.4-3.1,0.3-5.7-0.3-7.6
					c-0.6-1.9-1.6-3.4-2.9-4.5c-1.3-1-2.9-1.7-4.8-2.1c-1.9-0.3-3.9-0.5-6.1-0.5c-1.4,0-2.8,0.1-4.3,0.4c-1.5,0.3-2.9,0.6-4.3,1
					c-1.4,0.4-2.7,0.9-3.9,1.5s-2.3,1.2-3.1,1.7l-1.9,10.4c2-1.3,4.1-2.3,6.3-3.1s4.7-1.1,7.5-1.1c1.2,0,2.3,0.3,3.2,0.8
					c0.9,0.6,1.3,1.5,1,2.8l-0.3,2.2c-2.7,0.1-5.1,0.4-7.3,0.8c-2.2,0.4-4.5,1.1-6.8,2.1c-1.9,0.8-3.4,1.8-4.7,2.9
					c-1.3,1.1-2.4,2.3-3.2,3.5s-1.4,2.5-1.8,3.8c-0.4,1.3-0.6,2.6-0.6,3.8c0,2.2,0.3,4,0.8,5.5s1.3,2.6,2.3,3.5s2.2,1.5,3.7,1.9
					c1.4,0.4,3.1,0.6,5,0.6c2.4,0,4.5-0.5,6.3-1.6c1.8-1,3.3-2.5,4.6-4.3c1.7,3.9,4.6,5.8,8.7,5.8c1.2,0,2.2-0.1,3.1-0.3
					c0.9-0.2,1.8-0.4,2.7-0.7l2.4-11.2C190.9,207.6,190.4,207.8,189.9,207.8z M173.7,207.6c-1,1-2.5,1.6-4.4,1.6
					c-0.7,0-1.2-0.2-1.7-0.7c-0.4-0.5-0.6-1.4-0.6-2.9c0-1.2,0.2-2.2,0.7-3c0.5-0.9,1.1-1.6,1.9-2.2c0.8-0.6,1.7-1.1,2.7-1.5
					s2-0.6,3-0.7L173.7,207.6z"/>
			</g>
			<g>
				<polygon class="st9" points="224.8,175.6 218.3,186.1 213.9,175.6 199.1,175.6 206.9,194.7 191.6,218.5 203.5,218.5 
					211.9,204.3 217.6,218.5 232.7,218.5 223.2,195.4 236.3,175.6 				"/>
			</g>
			<g>
				<path class="st9" d="M311.4,184.3c1,1,2.3,2.2,3.9,3.6c1.2,1.1,2.2,2.1,3.2,3c0.9,0.9,1.8,1.9,2.4,3c0.7,1,1.2,2.2,1.5,3.4
					s0.5,2.6,0.5,4.1c0,0,0,0,0-0.1c0-1.6-0.2-3-0.5-4.2s-0.8-2.4-1.5-3.4s-1.5-2-2.4-3c-1-0.9-2-2-3.2-3c-1.6-1.4-2.9-2.6-3.9-3.6
					s-1.5-2.4-1.5-4.1c0,0,0,0,0,0.1C309.9,181.9,310.4,183.3,311.4,184.3z"/>
			</g>
			<g>
				<path class="st9" d="M321,163.1c-2.1-0.7-4.4-1-6.7-1c-3.1,0-5.9,0.5-8.6,1.5s-5,2.4-7,4.2s-3.5,3.8-4.7,6
					c-1.1,2.3-1.7,4.6-1.7,7.2l0,0c0-2.5,0.6-4.9,1.7-7.1c1.1-2.3,2.7-4.3,4.7-6c2-1.8,4.3-3.2,7-4.2s5.5-1.5,8.6-1.5
					C316.6,162.2,318.9,162.5,321,163.1c2.1,0.8,4.1,1.8,6,3.3v-0.1C325.1,164.8,323.1,163.8,321,163.1z"/>
			</g>
			<g>
				<path class="st9" d="M294.3,206.6c1.7,1,3.7,1.5,5.9,1.5c4.2,0,6.3-2,6.3-5.9l0,0c0,3.9-2.1,5.8-6.3,5.8
					C298,208,296.1,207.5,294.3,206.6c-1.7-1.1-3.3-2.4-4.6-4l-2.6,12.6l0,0l2.6-12.5C291,204.3,292.6,205.6,294.3,206.6z"/>
			</g>
			<g>
				<path class="st9" d="M317.2,213.8c-1.8,1.7-4.1,3.1-6.8,4.2c-2.7,1.1-5.8,1.6-9.2,1.6c-2.8,0-5.4-0.3-7.7-1
					c-2.3-0.7-4.5-1.8-6.4-3.4v0.1c1.9,1.6,4.1,2.8,6.4,3.4c2.3,0.7,4.9,1,7.7,1c3.4,0,6.5-0.5,9.2-1.6s5-2.5,6.8-4.2
					s3.3-3.7,4.2-5.9c1-2.2,1.5-4.4,1.5-6.6c0,0,0,0,0-0.1c0,2.2-0.5,4.4-1.5,6.6C320.5,210.1,319.1,212.1,317.2,213.8z"/>
			</g>
			<g>
				<path class="st9" d="M304.8,198.1c-1.1-1.3-2.3-2.4-3.7-3.5c-3-2.3-5.3-4.5-6.7-6.7c-1.4-2.2-2.1-4.5-2.1-6.9c0,0,0,0,0,0.1
					c0,2.5,0.7,4.8,2.1,6.9c1.4,2.2,3.6,4.4,6.7,6.7c1.4,1.1,2.6,2.2,3.7,3.5c1.1,1.2,1.6,2.6,1.6,3.9c0,0,0,0,0-0.1
					C306.4,200.7,305.9,199.4,304.8,198.1z"/>
			</g>
			<g>
				<path class="st9" d="M320.7,175.4c-1.4-0.8-3-1.2-4.9-1.2c-2.1,0-3.6,0.6-4.6,1.7c-0.9,1.1-1.4,2.5-1.4,4.1c0,0,0,0,0,0.1
					c0-1.5,0.5-2.9,1.4-4s2.4-1.7,4.6-1.7c1.9,0,3.5,0.4,4.9,1.2s2.6,1.9,3.7,3.2l2.6-12.4l0,0l-2.6,12.3
					C323.3,177.3,322.1,176.2,320.7,175.4z"/>
			</g>
			<g>
				<path class="st9" d="M314.3,162.2c-3.1,0-5.9,0.5-8.6,1.5s-5,2.4-7,4.2s-3.5,3.8-4.7,6c-1.1,2.2-1.7,4.6-1.7,7.1
					c0,2.4,0.7,4.7,2.1,6.9s3.6,4.4,6.7,6.7c1.4,1.1,2.6,2.2,3.7,3.5s1.6,2.6,1.6,4c0,0,0,0,0,0.1l0,0c0,3.9-2.1,5.9-6.3,5.9
					c-2.2,0-4.1-0.5-5.9-1.5c-1.7-1-3.3-2.3-4.6-3.9l-2.6,12.5c1.9,1.6,4.1,2.7,6.4,3.4s4.9,1,7.7,1c3.4,0,6.5-0.5,9.2-1.6
					s5-2.5,6.8-4.2s3.3-3.7,4.2-5.9c1-2.2,1.5-4.3,1.5-6.6c0-1.5-0.2-2.9-0.5-4.1c-0.3-1.2-0.8-2.4-1.5-3.4s-1.5-2-2.4-3
					c-1-0.9-2-2-3.2-3c-1.6-1.4-2.9-2.6-3.9-3.6s-1.5-2.4-1.5-4.2c0,0,0,0,0-0.1c0,0,0,0,0-0.1c0-1.6,0.5-2.9,1.4-4.1
					c0.9-1.1,2.4-1.7,4.6-1.7c1.9,0,3.5,0.4,4.9,1.2s2.6,1.9,3.7,3.2l2.6-12.3c-1.9-1.4-3.9-2.5-6-3.2
					C318.9,162.5,316.6,162.2,314.3,162.2z"/>
			</g>
			<g>
				<path class="st9" d="M267.4,162c-7.2,0-13.5,2.6-18.9,7.9c-5.3,5.3-8.8,12.3-10.3,21s-0.5,15.7,3,21s8.9,7.9,16.1,7.9
					c7.2,0,13.4-2.6,18.8-7.9c5.4-5.3,8.8-12.3,10.4-21c1.5-8.7,0.6-15.7-2.9-21C280,164.6,274.6,162,267.4,162z M269.7,190.8
					c-0.9,5.3-2.3,9.4-4,12.1c-1.7,2.8-3.8,4.2-6.2,4.2c-2.4,0-4-1.4-4.8-4.2s-0.7-6.8,0.3-12.1c0.9-5.4,2.3-9.4,4-12.2
					c1.8-2.8,3.8-4.2,6.3-4.2c2.4,0,4,1.4,4.7,4.2C270.7,181.4,270.6,185.5,269.7,190.8z"/>
			</g>
		</g>
	</g>
</g>
</svg>
