<?xml version="1.0" encoding="utf-8"?>
<!-- Generator: Adobe Illustrator 25.1.0, SVG Export Plug-In . SVG Version: 6.00 Build 0)  -->
<svg version="1.1"
	 id="svg124" inkscape:export-filename="C:\Users\xine\Documents\2018-debian-buster\futurePrototype-source\wiki-banner\png\wiki-banner-02.png" inkscape:export-xdpi="96" inkscape:export-ydpi="96" inkscape:version="0.92.2 (5c3e80d, 2017-08-06)" sodipodi:docname="wiki-banner-02.svg" xmlns:cc="http://creativecommons.org/ns#" xmlns:dc="http://purl.org/dc/elements/1.1/" xmlns:inkscape="http://www.inkscape.org/namespaces/inkscape" xmlns:ns2="http://ns.adobe.com/AdobeIllustrator/10.0/" xmlns:rdf="http://www.w3.org/1999/02/22-rdf-syntax-ns#" xmlns:sodipodi="http://sodipodi.sourceforge.net/DTD/sodipodi-0.dtd" xmlns:svg="http://www.w3.org/2000/svg"
	 xmlns="http://www.w3.org/2000/svg" xmlns:xlink="http://www.w3.org/1999/xlink" x="0px" y="0px" viewBox="0 0 680 340"
	 style="enable-background:new 0 0 680 340;" xml:space="preserve">
<style type="text/css">
	.st0{clip-path:url(#SVGID_2_);fill:#082E66;}
	.st1{clip-path:url(#SVGID_4_);}
	.st2{opacity:0.4;fill:#123777;enable-background:new    ;}
	.st3{opacity:0.15;fill:#7793C4;enable-background:new    ;}
	.st4{opacity:0.1;fill:#7793C4;enable-background:new    ;}
	.st5{opacity:0.1;enable-background:new    ;}
	.st6{fill:#325DA8;}
	.st7{opacity:0.15;}
	.st8{fill:#1944A4;}
	.st9{opacity:7.000000e-02;fill:#FFFFFF;enable-background:new    ;}
	.st10{opacity:0.1;fill:#FFFFFF;enable-background:new    ;}
	.st11{fill:#FFFFFF;}
</style>
<g>
	<g>
		<defs>
			<path id="SVGID_1_" d="M670,340H10c-5.5,0-10-4.5-10-10V10C0,4.5,4.5,0,10,0h660c5.5,0,10,4.5,10,10v320
				C680,335.5,675.5,340,670,340z"/>
		</defs>
		<clipPath id="SVGID_2_">
			<use xlink:href="#SVGID_1_"  style="overflow:visible;"/>
		</clipPath>
		<rect class="st0" width="680" height="382.5"/>
	</g>
	<g>
		<defs>
			<path id="SVGID_3_" d="M670,340H10c-5.5,0-10-4.5-10-10V10C0,4.5,4.5,0,10,0h660c5.5,0,10,4.5,10,10v320
				C680,335.5,675.5,340,670,340z"/>
		</defs>
		<clipPath id="SVGID_4_">
			<use xlink:href="#SVGID_3_"  style="overflow:visible;"/>
		</clipPath>
		<g class="st1">
			<g>
				<polygon class="st2" points="339.6,0 605.1,182.2 680,73.1 680,0 				"/>
			</g>
			<path class="st3" d="M390.3,0c0.1,3.4,0.2,6.7,0.2,10.1c0,116.6-94.5,211.2-211.2,211.2c-75.7,0-142.1-39.8-179.3-99.7V0H390.3z"
				/>
			<path class="st4" d="M680,318.8c-11.8,11-20.8,26.2-22.1,43.3H485.7c2.4-114.3,85.3-208.7,194.3-229V318.8z"/>
			<rect x="397.2" y="298.5" class="st5" width="125.4" height="6.4"/>
			<g>
				<polygon class="st6" points="435.5,65.9 398.2,130.5 399.2,132.2 437.5,65.9 				"/>
				<polygon class="st6" points="402.2,137.3 443.4,65.9 441.4,65.9 401.2,135.6 				"/>
				<polygon class="st6" points="405.1,142.4 449.3,65.9 447.3,65.9 404.1,140.7 				"/>
				<polygon class="st6" points="408,147.5 455.2,65.9 453.2,65.9 407,145.8 				"/>
				<polygon class="st6" points="411,152.6 461.1,65.9 459.1,65.9 410,150.9 				"/>
				<polygon class="st6" points="414,157.7 466.9,65.9 465,65.9 413,156 				"/>
				<polygon class="st6" points="416.9,162.8 472.8,65.9 470.9,65.9 415.9,161.1 				"/>
				<polygon class="st6" points="419.8,167.9 478.7,65.9 476.7,65.9 418.8,166.2 				"/>
				<polygon class="st6" points="422.8,173 484.6,65.9 482.6,65.9 421.8,171.3 				"/>
				<polygon class="st6" points="425.7,178.1 490.5,65.9 488.5,65.9 424.7,176.4 				"/>
				<polygon class="st6" points="428.6,183.2 496.4,65.9 494.4,65.9 427.7,181.5 				"/>
				<polygon class="st6" points="431.6,188.3 502.3,65.9 500.3,65.9 430.6,186.6 				"/>
				<polygon class="st6" points="434.5,193.4 508.2,65.9 506.2,65.9 433.6,191.7 				"/>
				<polygon class="st6" points="439.5,195.1 512.1,69.3 511.1,67.6 437.5,195.1 				"/>
				<polygon class="st6" points="445.3,195.1 515,74.4 514,72.7 443.4,195.1 				"/>
				<polygon class="st6" points="451.2,195.1 518,79.5 517,77.8 449.3,195.1 				"/>
				<polygon class="st6" points="457.1,195.1 520.9,84.6 519.9,82.9 455.1,195.1 				"/>
				<polygon class="st6" points="463,195.1 523.8,89.7 522.9,88 461,195.1 				"/>
				<polygon class="st6" points="468.9,195.1 526.8,94.8 525.8,93.1 466.9,195.1 				"/>
				<polygon class="st6" points="474.8,195.1 529.7,99.9 528.8,98.2 472.8,195.1 				"/>
				<polygon class="st6" points="480.7,195.1 532.7,105 531.7,103.3 478.7,195.1 				"/>
				<polygon class="st6" points="486.6,195.1 535.6,110.1 534.6,108.4 484.6,195.1 				"/>
				<polygon class="st6" points="492.4,195.1 538.6,115.2 537.6,113.5 490.5,195.1 				"/>
				<polygon class="st6" points="498.3,195.1 541.5,120.3 540.5,118.6 496.4,195.1 				"/>
				<polygon class="st6" points="504.2,195.1 544.5,125.4 543.5,123.7 502.2,195.1 				"/>
				<polygon class="st6" points="510.1,195.1 547.4,130.5 546.4,128.8 508.1,195.1 				"/>
			</g>
			<g class="st7">
				<polygon points="281,330.6 251,382.5 253.5,382.5 283.4,330.6 				"/>
				<polygon points="288.4,330.6 258.4,382.5 260.9,382.5 290.8,330.6 				"/>
				<polygon points="295.7,330.6 265.8,382.5 268.2,382.5 298.2,330.6 				"/>
				<polygon points="303.1,330.6 273.1,382.5 275.6,382.5 305.6,330.6 				"/>
				<polygon points="310.5,330.6 280.5,382.5 283,382.5 312.9,330.6 				"/>
				<polygon points="317.9,330.6 287.9,382.5 290.4,382.5 320.3,330.6 				"/>
				<polygon points="325.2,330.6 295.3,382.5 297.7,382.5 327.7,330.6 				"/>
				<polygon points="332.6,330.6 302.6,382.5 305.1,382.5 335.1,330.6 				"/>
				<polygon points="340,330.6 310,382.5 312.5,382.5 342.4,330.6 				"/>
				<polygon points="347.4,330.6 317.4,382.5 319.9,382.5 349.8,330.6 				"/>
				<polygon points="354.7,330.6 324.8,382.5 327.2,382.5 357.2,330.6 				"/>
				<polygon points="362.1,330.6 332.1,382.5 334.6,382.5 364.6,330.6 				"/>
				<polygon points="369.5,330.6 339.5,382.5 342,382.5 371.9,330.6 				"/>
				<polygon points="375.6,332.7 346.9,382.5 349.4,382.5 376.9,334.9 				"/>
				<polygon points="379.3,339.1 354.3,382.5 356.8,382.5 380.6,341.3 				"/>
				<polygon points="383,345.5 361.7,382.5 364.1,382.5 384.2,347.7 				"/>
				<polygon points="386.7,351.9 369,382.5 371.5,382.5 388,354.1 				"/>
				<polygon points="390.4,358.3 376.4,382.5 378.9,382.5 391.6,360.5 				"/>
				<polygon points="394.1,364.7 383.8,382.5 386.3,382.5 395.3,366.8 				"/>
				<polygon points="397.8,371.1 391.1,382.5 393.6,382.5 399,373.2 				"/>
				<polygon points="402.7,379.6 401.4,377.5 398.5,382.5 401,382.5 				"/>
			</g>
			<rect x="630.3" y="92.5" class="st8" width="49.7" height="5.7"/>
			<rect y="26.1" class="st9" width="104" height="6.4"/>
			<circle class="st10" cx="305.8" cy="198.5" r="45.9"/>
			<g>
				<polygon class="st2" points="356.3,310.2 41.6,235 6.3,382.5 339,382.5 				"/>
			</g>
			<g>
				<path class="st5" d="M33.3,0v177.2v85.7c0,18.1-14.7,32.8-32.8,32.8c-0.1,0-0.3,0-0.4,0v58.9c0.1,0,0.3,0,0.4,0
					c50.6,0,91.7-41.1,91.7-91.7V0H33.3z"/>
			</g>
		</g>
	</g>
</g>
<sodipodi:namedview  bordercolor="#cc009d" borderlayer="true" borderopacity="1" gridtolerance="10" guidetolerance="10" id="namedview126" inkscape:bbox-nodes="true" inkscape:bbox-paths="true" inkscape:current-layer="svg124" inkscape:cx="269.25868" inkscape:cy="170.45127" inkscape:object-paths="true" inkscape:pageopacity="0" inkscape:pageshadow="2" inkscape:showpageshadow="false" inkscape:snap-bbox="true" inkscape:snap-bbox-edge-midpoints="true" inkscape:snap-bbox-midpoints="true" inkscape:snap-intersection-paths="true" inkscape:snap-midpoints="true" inkscape:snap-page="true" inkscape:snap-smooth-nodes="true" inkscape:window-height="1017" inkscape:window-maximized="1" inkscape:window-width="1920" inkscape:window-x="-8" inkscape:window-y="-8" inkscape:zoom="1.5543847" objecttolerance="10" pagecolor="#ffffff" showgrid="false">
	</sodipodi:namedview>
<g id="Layer_1" transform="translate(0,-40)">
	<g id="Layer_1_1_">
	</g>
</g>
<g>
	<g>
		<g>
			<g>
				<polygon class="st11" points="247.3,140.2 205.2,140.2 203,153.6 215.4,153.6 207.9,198.5 224.7,198.5 232.2,153.6 245,153.6 
									"/>
			</g>
			<g>
				<path class="st11" d="M289.7,154.5c-1.5,0-2.8,0.2-4,0.6c-1.1,0.4-2.1,0.9-3,1.4c-0.8,0.6-1.6,1.2-2.2,1.9
					c-0.6,0.7-1.1,1.4-1.5,2c-0.7-1.5-1.8-2.9-3.3-4.2c-1.5-1.3-3.6-2-6.2-2c-2.6,0-4.8,0.4-6.5,1.2c-1.7,0.8-3.2,1.9-4.3,3.4
					l0.4-3.2h-12.4l-6.2,42.9h13.4l4.5-30.6c0.5-0.8,1-1.4,1.7-1.9s1.4-0.7,2.3-0.7c0.1,0,0.2,0,0.6,0.1c0.3,0.1,0.7,0.2,1,0.4
					c0.3,0.2,0.7,0.6,1,1.1s0.4,1.2,0.4,2c0,0.5,0,1-0.1,1.7c-0.1,0.6-0.1,1.2-0.3,1.7l-3.8,26.3h13.5l4.3-29.9
					c0.5-0.9,1.1-1.6,1.9-2.3c0.8-0.6,1.6-1,2.3-1c1.2,0,2,0.4,2.4,1.3c0.4,0.9,0.6,1.7,0.6,2.4c0,0.4,0,0.9-0.1,1.5
					c-0.1,0.6-0.1,1.1-0.2,1.5l-3.8,26.4H296l4-27.9c0.1-0.5,0.1-1.1,0.2-1.9c0.1-0.8,0.1-1.6,0.1-2.3c0-3.7-1-6.5-2.9-8.7
					C295.5,155.6,292.9,154.5,289.7,154.5z"/>
			</g>
			<g>
				<path class="st11" d="M339.9,187.8c-0.5,0-0.9-0.1-1.3-0.4c-0.4-0.3-0.5-1.2-0.3-2.7l1.9-15.7c0.4-3.1,0.3-5.7-0.3-7.6
					c-0.6-1.9-1.6-3.4-2.9-4.5c-1.3-1-2.9-1.7-4.8-2.1c-1.9-0.3-3.9-0.5-6.1-0.5c-1.4,0-2.8,0.1-4.3,0.4c-1.5,0.3-2.9,0.6-4.3,1
					c-1.4,0.4-2.7,0.9-3.9,1.5s-2.3,1.2-3.1,1.7l-1.9,10.4c2-1.3,4.1-2.3,6.3-3.1c2.2-0.8,4.7-1.1,7.5-1.1c1.2,0,2.3,0.3,3.2,0.8
					c0.9,0.6,1.3,1.5,1,2.8l-0.3,2.2c-2.7,0.1-5.1,0.4-7.3,0.8c-2.2,0.4-4.5,1.1-6.8,2.1c-1.9,0.8-3.4,1.8-4.7,2.9
					c-1.3,1.1-2.4,2.3-3.2,3.5c-0.8,1.2-1.4,2.5-1.8,3.8c-0.4,1.3-0.6,2.6-0.6,3.8c0,2.2,0.3,4,0.8,5.5s1.3,2.6,2.3,3.5
					s2.2,1.5,3.7,1.9c1.4,0.4,3.1,0.6,5,0.6c2.4,0,4.5-0.5,6.3-1.6c1.8-1,3.3-2.5,4.6-4.3c1.7,3.9,4.6,5.8,8.7,5.8
					c1.2,0,2.2-0.1,3.1-0.3c0.9-0.2,1.8-0.4,2.7-0.7l2.4-11.2C340.9,187.6,340.4,187.8,339.9,187.8z M323.7,187.6
					c-1,1-2.5,1.6-4.4,1.6c-0.7,0-1.2-0.2-1.7-0.7c-0.4-0.5-0.6-1.4-0.6-2.9c0-1.2,0.2-2.2,0.7-3c0.5-0.9,1.1-1.6,1.9-2.2
					c0.8-0.6,1.7-1.1,2.7-1.5s2-0.6,3-0.7L323.7,187.6z"/>
			</g>
			<g>
				<polygon class="st11" points="374.8,155.6 368.3,166.1 363.9,155.6 349.1,155.6 356.9,174.6 341.6,198.5 353.5,198.5 
					361.9,184.2 367.6,198.5 382.7,198.5 373.2,175.4 386.3,155.6 				"/>
			</g>
			<g>
				<path class="st11" d="M461.4,164.2c1,1,2.3,2.2,3.9,3.6c1.2,1.1,2.2,2.1,3.2,3c0.9,0.9,1.8,1.9,2.4,3c0.7,1,1.2,2.2,1.5,3.4
					c0.3,1.2,0.5,2.6,0.5,4.1c0,0,0,0,0-0.1c0-1.6-0.2-3-0.5-4.2c-0.3-1.2-0.8-2.4-1.5-3.4s-1.5-2-2.4-3c-1-0.9-2-2-3.2-3
					c-1.6-1.4-2.9-2.6-3.9-3.6s-1.5-2.4-1.5-4.1c0,0,0,0,0,0.1C459.9,161.9,460.4,163.2,461.4,164.2z"/>
			</g>
			<g>
				<path class="st11" d="M471,143.1c-2.1-0.7-4.4-1-6.7-1c-3.1,0-5.9,0.5-8.6,1.5s-5,2.4-7,4.2c-2,1.8-3.5,3.8-4.7,6
					c-1.1,2.3-1.7,4.6-1.7,7.2l0,0c0-2.5,0.6-4.9,1.7-7.1c1.1-2.3,2.7-4.3,4.7-6c2-1.8,4.3-3.2,7-4.2s5.5-1.5,8.6-1.5
					C466.6,142.1,468.9,142.5,471,143.1c2.1,0.8,4.1,1.8,6,3.3v-0.1C475.1,144.8,473.1,143.8,471,143.1z"/>
			</g>
			<g>
				<path class="st11" d="M444.3,186.6c1.7,1,3.7,1.5,5.9,1.5c4.2,0,6.3-2,6.3-5.9l0,0c0,3.9-2.1,5.8-6.3,5.8
					C448,188,446.1,187.5,444.3,186.6c-1.7-1.1-3.3-2.4-4.6-4l-2.6,12.6l0,0l2.6-12.5C441,184.2,442.6,185.6,444.3,186.6z"/>
			</g>
			<g>
				<path class="st11" d="M467.2,193.8c-1.8,1.7-4.1,3.1-6.8,4.2c-2.7,1.1-5.8,1.6-9.2,1.6c-2.8,0-5.4-0.3-7.7-1
					c-2.3-0.7-4.5-1.8-6.4-3.4v0.1c1.9,1.6,4.1,2.8,6.4,3.4c2.3,0.7,4.9,1,7.7,1c3.4,0,6.5-0.5,9.2-1.6s5-2.5,6.8-4.2
					c1.8-1.7,3.3-3.7,4.2-5.9c1-2.2,1.5-4.4,1.5-6.6c0,0,0,0,0-0.1c0,2.2-0.5,4.4-1.5,6.6C470.5,190.1,469.1,192.1,467.2,193.8z"/>
			</g>
			<g>
				<path class="st11" d="M454.8,178.1c-1.1-1.3-2.3-2.4-3.7-3.5c-3-2.3-5.3-4.5-6.7-6.7c-1.4-2.2-2.1-4.5-2.1-6.9c0,0,0,0,0,0.1
					c0,2.5,0.7,4.8,2.1,6.9c1.4,2.2,3.6,4.4,6.7,6.7c1.4,1.1,2.6,2.2,3.7,3.5c1.1,1.2,1.6,2.6,1.6,3.9c0,0,0,0,0-0.1
					C456.4,180.6,455.9,179.4,454.8,178.1z"/>
			</g>
			<g>
				<path class="st11" d="M470.7,155.4c-1.4-0.8-3-1.2-4.9-1.2c-2.1,0-3.6,0.6-4.6,1.7c-0.9,1.1-1.4,2.5-1.4,4.1c0,0,0,0,0,0.1
					c0-1.5,0.5-2.9,1.4-4c0.9-1.1,2.4-1.7,4.6-1.7c1.9,0,3.5,0.4,4.9,1.2c1.4,0.8,2.6,1.9,3.7,3.2l2.6-12.4l0,0l-2.6,12.3
					C473.3,157.2,472.1,156.1,470.7,155.4z"/>
			</g>
			<g>
				<path class="st11" d="M464.3,142.1c-3.1,0-5.9,0.5-8.6,1.5s-5,2.4-7,4.2c-2,1.8-3.5,3.8-4.7,6c-1.1,2.2-1.7,4.6-1.7,7.1
					c0,2.4,0.7,4.7,2.1,6.9c1.4,2.2,3.6,4.4,6.7,6.7c1.4,1.1,2.6,2.2,3.7,3.5c1.1,1.3,1.6,2.6,1.6,4c0,0,0,0,0,0.1l0,0
					c0,3.9-2.1,5.9-6.3,5.9c-2.2,0-4.1-0.5-5.9-1.5c-1.7-1-3.3-2.3-4.6-3.9l-2.6,12.5c1.9,1.6,4.1,2.7,6.4,3.4c2.3,0.7,4.9,1,7.7,1
					c3.4,0,6.5-0.5,9.2-1.6s5-2.5,6.8-4.2c1.8-1.7,3.3-3.7,4.2-5.9c1-2.2,1.5-4.3,1.5-6.6c0-1.5-0.2-2.9-0.5-4.1s-0.8-2.4-1.5-3.4
					s-1.5-2-2.4-3c-1-0.9-2-2-3.2-3c-1.6-1.4-2.9-2.6-3.9-3.6s-1.5-2.4-1.5-4.2c0,0,0,0,0-0.1c0,0,0,0,0-0.1c0-1.6,0.5-2.9,1.4-4.1
					c0.9-1.1,2.4-1.7,4.6-1.7c1.9,0,3.5,0.4,4.9,1.2c1.4,0.8,2.6,1.9,3.7,3.2L477,146c-1.9-1.4-3.9-2.5-6-3.2
					C468.9,142.5,466.6,142.1,464.3,142.1z"/>
			</g>
			<g>
				<path class="st11" d="M417.4,142c-7.2,0-13.5,2.6-18.9,7.9c-5.3,5.3-8.8,12.3-10.3,21c-1.5,8.7-0.5,15.7,3,21
					c3.5,5.3,8.9,7.9,16.1,7.9s13.4-2.6,18.8-7.9c5.4-5.3,8.8-12.3,10.4-21c1.5-8.7,0.6-15.7-2.9-21C430,144.6,424.6,142,417.4,142z
					 M419.7,170.8c-0.9,5.3-2.3,9.4-4,12.1c-1.7,2.8-3.8,4.2-6.2,4.2s-4-1.4-4.8-4.2c-0.8-2.8-0.7-6.8,0.3-12.1
					c0.9-5.4,2.3-9.4,4-12.2c1.8-2.8,3.8-4.2,6.3-4.2c2.4,0,4,1.4,4.7,4.2C420.7,161.4,420.6,165.5,419.7,170.8z"/>
			</g>
		</g>
	</g>
</g>
</svg>
