<?xml version="1.0" encoding="utf-8"?>
<!-- Generator: Adobe Illustrator 25.1.0, SVG Export Plug-In . SVG Version: 6.00 Build 0)  -->
<svg version="1.1"
	 id="svg8" inkscape:version="0.92.2 (5c3e80d, 2017-08-06)" sodipodi:docname="website-banner.svg" xmlns:cc="http://creativecommons.org/ns#" xmlns:dc="http://purl.org/dc/elements/1.1/" xmlns:inkscape="http://www.inkscape.org/namespaces/inkscape" xmlns:ns2="http://ns.adobe.com/AdobeIllustrator/10.0/" xmlns:rdf="http://www.w3.org/1999/02/22-rdf-syntax-ns#" xmlns:sodipodi="http://sodipodi.sourceforge.net/DTD/sodipodi-0.dtd" xmlns:svg="http://www.w3.org/2000/svg"
	 xmlns="http://www.w3.org/2000/svg" xmlns:xlink="http://www.w3.org/1999/xlink" x="0px" y="0px" viewBox="0 0 800 120"
	 style="enable-background:new 0 0 800 120;" xml:space="preserve">
<style type="text/css">
	.st0{fill:#082E66;}
	.st1{opacity:0.1;fill:#7793C4;enable-background:new    ;}
	.st2{fill:#FFFFFF;}
	.st3{opacity:0.4;fill:#123777;enable-background:new    ;}
	.st4{opacity:0.15;fill:#7793C4;enable-background:new    ;}
	.st5{fill:#325DA8;}
	.st6{opacity:0.1;fill:#FFFFFF;enable-background:new    ;}
	.st7{opacity:0.1;enable-background:new    ;}
</style>
<rect class="st0" width="800" height="120"/>
<g>
	<path class="st1" d="M801.3,0h-68.4C679,25.6,634.5,67.8,606.2,120h195.1V0z"/>
</g>
<sodipodi:namedview  bordercolor="#b20eb2" borderlayer="true" borderopacity="1" id="base" inkscape:bbox-nodes="true" inkscape:bbox-paths="true" inkscape:current-layer="layer1" inkscape:cx="520.5436" inkscape:cy="50.995055" inkscape:document-units="px" inkscape:object-paths="true" inkscape:pageopacity="0.0" inkscape:pageshadow="2" inkscape:showpageshadow="false" inkscape:snap-bbox="true" inkscape:snap-bbox-edge-midpoints="true" inkscape:snap-bbox-midpoints="true" inkscape:snap-intersection-paths="true" inkscape:snap-midpoints="true" inkscape:snap-page="true" inkscape:window-height="1017" inkscape:window-maximized="1" inkscape:window-width="1920" inkscape:window-x="-8" inkscape:window-y="-8" inkscape:zoom="1.2388341" pagecolor="#ffffff" showborder="true" showgrid="false" units="px">
	</sodipodi:namedview>
<g>
	<g>
		<g>
			<g>
				<polygon class="st2" points="345.8,42.6 321.2,42.6 319.9,50.4 327.1,50.4 322.8,76.7 332.6,76.7 337,50.4 344.4,50.4 				"/>
			</g>
			<g>
				<path class="st2" d="M370.6,51c-0.9,0-1.7,0.1-2.3,0.3c-0.7,0.2-1.2,0.5-1.7,0.8s-0.9,0.7-1.3,1.1c-0.4,0.4-0.7,0.8-0.9,1.2
					c-0.4-0.9-1.1-1.7-1.9-2.5c-0.9-0.8-2.1-1.1-3.6-1.1s-2.8,0.2-3.8,0.7s-1.8,1.1-2.5,2l0.3-1.9h-7.2l-3.6,25.1h7.8l2.6-17.9
					c0.3-0.4,0.6-0.8,1-1.1s0.8-0.4,1.3-0.4c0,0,0.1,0,0.3,0.1c0.2,0,0.4,0.1,0.6,0.3c0.2,0.1,0.4,0.3,0.6,0.6s0.3,0.7,0.3,1.2
					c0,0.3,0,0.6-0.1,1c0,0.4-0.1,0.7-0.2,1L354,76.7h7.9l2.5-17.5c0.3-0.5,0.6-1,1.1-1.3c0.5-0.4,0.9-0.6,1.3-0.6
					c0.7,0,1.2,0.3,1.4,0.8c0.2,0.5,0.3,1,0.3,1.4c0,0.2,0,0.5,0,0.9c0,0.3-0.1,0.6-0.1,0.9l-2.2,15.4h8.1l2.3-16.3
					c0-0.3,0.1-0.6,0.1-1.1s0.1-0.9,0.1-1.3c0-2.1-0.6-3.8-1.7-5.1C374,51.6,372.5,51,370.6,51z"/>
			</g>
			<g>
				<path class="st2" d="M399.9,70.4c-0.3,0-0.5-0.1-0.8-0.3c-0.2-0.2-0.3-0.7-0.2-1.6l1.1-9.2c0.2-1.8,0.2-3.3-0.2-4.5
					c-0.4-1.1-0.9-2-1.7-2.6c-0.8-0.6-1.7-1-2.8-1.2c-1.1-0.2-2.3-0.3-3.5-0.3c-0.8,0-1.6,0.1-2.5,0.2c-0.9,0.2-1.7,0.4-2.5,0.6
					c-0.8,0.3-1.6,0.5-2.3,0.9c-0.7,0.3-1.3,0.7-1.8,1l-1.1,6.1c1.2-0.7,2.4-1.3,3.7-1.8c1.3-0.4,2.8-0.7,4.4-0.7
					c0.7,0,1.3,0.2,1.9,0.5c0.5,0.3,0.8,0.9,0.6,1.7l-0.2,1.3c-1.6,0.1-3,0.2-4.3,0.5s-2.6,0.7-4,1.2c-1.1,0.5-2,1-2.8,1.7
					c-0.8,0.6-1.4,1.3-1.9,2.1c-0.5,0.7-0.8,1.5-1.1,2.2c-0.2,0.8-0.3,1.5-0.3,2.2c0,1.3,0.2,2.4,0.5,3.2c0.3,0.9,0.7,1.5,1.3,2.1
					c0.6,0.5,1.3,0.9,2.1,1.1c0.8,0.2,1.8,0.3,2.9,0.3c1.4,0,2.7-0.3,3.7-0.9s1.9-1.4,2.7-2.5c1,2.3,2.7,3.4,5.1,3.4
					c0.7,0,1.3,0,1.8-0.2c0.5-0.1,1.1-0.2,1.6-0.4l1.4-6.6C400.5,70.3,400.2,70.4,399.9,70.4z M390.5,70.3c-0.6,0.6-1.5,0.9-2.6,0.9
					c-0.4,0-0.7-0.1-1-0.4c-0.2-0.3-0.4-0.8-0.4-1.7c0-0.7,0.1-1.3,0.4-1.8s0.6-0.9,1.1-1.3s1-0.6,1.6-0.9c0.6-0.2,1.2-0.4,1.8-0.4
					L390.5,70.3z"/>
			</g>
			<g>
				<polygon class="st2" points="420.4,51.6 416.5,57.7 414,51.6 405.3,51.6 409.9,62.7 400.9,76.7 407.9,76.7 412.8,68.4 
					416.1,76.7 425,76.7 419.4,63.2 427.1,51.6 				"/>
			</g>
			<g>
				<path class="st2" d="M471,56.7c0.6,0.6,1.4,1.3,2.3,2.1c0.7,0.6,1.3,1.2,1.9,1.8s1,1.1,1.4,1.7c0.4,0.6,0.7,1.3,0.9,2
					c0.2,0.7,0.3,1.5,0.3,2.4l0,0c0-0.9-0.1-1.7-0.3-2.4c-0.2-0.7-0.5-1.4-0.9-2s-0.9-1.2-1.4-1.7c-0.6-0.6-1.2-1.1-1.9-1.8
					C472.3,57.9,471.6,57.2,471,56.7c-0.6-0.6-0.9-1.5-0.9-2.5l0,0C470.1,55.3,470.4,56.1,471,56.7z"/>
			</g>
			<g>
				<path class="st2" d="M476.6,44.3c-1.2-0.4-2.5-0.6-3.9-0.6c-1.8,0-3.5,0.3-5,0.9c-1.6,0.6-2.9,1.4-4.1,2.4s-2.1,2.2-2.7,3.5
					c-0.7,1.3-1,2.7-1,4.2l0,0c0-1.5,0.3-2.8,1-4.1s1.6-2.5,2.7-3.5c1.2-1,2.5-1.8,4.1-2.4c1.6-0.6,3.2-0.9,5-0.9
					C474.1,43.7,475.4,43.9,476.6,44.3c1.2,0.5,2.4,1.1,3.5,1.9v-0.1C479,45.3,477.9,44.6,476.6,44.3z"/>
			</g>
			<g>
				<path class="st2" d="M461,69.7c1,0.6,2.2,0.9,3.4,0.9c2.4,0,3.7-1.1,3.7-3.4l0,0c0,2.3-1.2,3.4-3.7,3.4
					C463.2,70.5,462,70.2,461,69.7c-1-0.6-1.9-1.4-2.7-2.3l-1.5,7.3l0,0l1.5-7.3C459.1,68.4,460,69.1,461,69.7z"/>
			</g>
			<g>
				<path class="st2" d="M474.4,73.9c-1.1,1-2.4,1.8-4,2.4s-3.4,0.9-5.4,0.9c-1.6,0-3.1-0.2-4.5-0.6s-2.6-1.1-3.8-2v0.1
					c1.1,0.9,2.4,1.6,3.8,2s2.9,0.6,4.5,0.6c2,0,3.8-0.3,5.4-0.9S473.3,75,474.4,73.9c1.1-0.9,1.9-2.1,2.5-3.4s0.9-2.6,0.9-3.9l0,0
					c0,1.3-0.3,2.6-0.9,3.8C476.3,71.8,475.5,72.9,474.4,73.9z"/>
			</g>
			<g>
				<path class="st2" d="M467.2,64.8c-0.6-0.7-1.3-1.4-2.2-2c-1.8-1.3-3.1-2.6-3.9-3.9c-0.8-1.3-1.2-2.6-1.2-4l0,0
					c0,1.4,0.4,2.8,1.2,4.1c0.8,1.3,2.1,2.6,3.9,3.9C465.8,63.4,466.5,64.1,467.2,64.8c0.6,0.8,0.9,1.6,0.9,2.4l0,0
					C468.1,66.3,467.8,65.5,467.2,64.8z"/>
			</g>
			<g>
				<path class="st2" d="M476.4,51.5c-0.8-0.5-1.8-0.7-2.9-0.7c-1.2,0-2.1,0.3-2.7,1c-0.5,0.7-0.8,1.5-0.8,2.4l0,0
					c0-0.9,0.3-1.7,0.8-2.3c0.5-0.7,1.4-1,2.7-1C474.7,50.8,475.6,51.1,476.4,51.5c0.8,0.5,1.5,1.2,2.2,2l1.5-7.2l0,0l-1.5,7.2
					C478,52.6,477.2,52,476.4,51.5z"/>
			</g>
			<g>
				<path class="st2" d="M472.7,43.7c-1.8,0-3.5,0.3-5,0.9c-1.6,0.6-2.9,1.4-4.1,2.4s-2.1,2.2-2.7,3.5c-0.7,1.3-1,2.7-1,4.1
					c0,1.4,0.4,2.8,1.2,4c0.8,1.3,2.1,2.6,3.9,3.9c0.8,0.6,1.5,1.3,2.2,2c0.6,0.7,0.9,1.5,0.9,2.3l0,0l0,0c0,2.3-1.2,3.4-3.7,3.4
					c-1.3,0-2.4-0.3-3.4-0.9s-1.9-1.3-2.7-2.3l-1.5,7.3c1.1,0.9,2.4,1.6,3.8,2s2.9,0.6,4.5,0.6c2,0,3.8-0.3,5.4-0.9s2.9-1.4,4-2.4
					s1.9-2.2,2.5-3.4c0.6-1.3,0.9-2.5,0.9-3.8c0-0.9-0.1-1.7-0.3-2.4c-0.2-0.7-0.5-1.4-0.9-2s-0.9-1.2-1.4-1.7
					c-0.6-0.6-1.2-1.1-1.9-1.8c-0.9-0.8-1.7-1.5-2.3-2.1c-0.6-0.6-0.9-1.4-0.9-2.4l0,0l0,0c0-0.9,0.3-1.7,0.8-2.4s1.4-1,2.7-1
					c1.1,0,2.1,0.2,2.9,0.7s1.5,1.1,2.2,1.9l1.5-7.2c-1.1-0.8-2.3-1.5-3.5-1.9C475.4,43.9,474.1,43.7,472.7,43.7z"/>
			</g>
			<g>
				<path class="st2" d="M445.3,43.6c-4.2,0-7.9,1.5-11,4.6s-5.1,7.2-6,12.3s-0.3,9.2,1.7,12.3c2.1,3.1,5.2,4.6,9.4,4.6
					c4.2,0,7.9-1.5,11-4.6s5.2-7.2,6.1-12.3s0.3-9.2-1.7-12.3C452.6,45.1,449.5,43.6,445.3,43.6z M446.6,60.5
					c-0.5,3.1-1.3,5.5-2.3,7.1s-2.2,2.4-3.6,2.4s-2.4-0.8-2.8-2.4s-0.4-4,0.2-7.1c0.5-3.1,1.3-5.5,2.4-7.2c1-1.6,2.2-2.5,3.7-2.5
					c1.4,0,2.3,0.8,2.8,2.5C447.2,55,447.1,57.4,446.6,60.5z"/>
			</g>
		</g>
	</g>
</g>
<g>
	<g>
		<polygon class="st3" points="737.5,0 661.1,0 713,35.7 		"/>
	</g>
	<g>
		<path class="st4" d="M27,0c45.5,50.2,111.2,81.7,184.3,81.7c73.1,0,138.8-31.5,184.3-81.7H27z"/>
	</g>
	<g>
		<polygon class="st5" points="484.3,0.8 484.7,0 483.8,0 		"/>
		<polygon class="st5" points="486.6,4.8 487.8,6.8 491.7,0 489.4,0 		"/>
		<polygon class="st5" points="490.1,10.8 491.2,12.8 498.6,0 496.3,0 		"/>
		<polygon class="st5" points="493.5,16.8 494.7,18.8 505.6,0 503.2,0 		"/>
		<polygon class="st5" points="497,22.8 498.2,24.8 512.5,0 510.2,0 		"/>
		<polygon class="st5" points="500.5,28.8 501.6,30.9 519.5,0 517.1,0 		"/>
		<polygon class="st5" points="503.9,34.8 505.1,36.9 526.4,0 524,0 		"/>
		<polygon class="st5" points="507.4,40.8 508.6,42.9 533.3,0 531,0 		"/>
		<polygon class="st5" points="510.9,46.8 512,48.9 540.3,0 537.9,0 		"/>
		<polygon class="st5" points="515.5,50.8 517.8,50.8 547.2,0 544.9,0 		"/>
		<polygon class="st5" points="522.5,50.8 524.8,50.8 554.1,0 551.8,0 		"/>
		<polygon class="st5" points="529.4,50.8 531.7,50.8 561.1,0 558.7,0 		"/>
		<polygon class="st5" points="536.3,50.8 538.7,50.8 568,0 565.7,0 		"/>
		<polygon class="st5" points="543.2,50.8 545.6,50.8 574.9,0 572.6,0 		"/>
		<polygon class="st5" points="550.2,50.8 552.5,50.8 581.9,0 579.6,0 		"/>
		<polygon class="st5" points="557.1,50.8 559.5,50.8 588.8,0 586.5,0 		"/>
		<polygon class="st5" points="564.1,50.8 566.4,50.8 595.8,0 593.4,0 		"/>
		<polygon class="st5" points="571,50.8 573.3,50.8 602.7,0 600.4,0 		"/>
		<polygon class="st5" points="578,50.8 580.3,50.8 609.6,0 607.3,0 		"/>
		<polygon class="st5" points="584.9,50.8 587.2,50.8 616.6,0 614.2,0 		"/>
		<polygon class="st5" points="591.8,50.8 594.2,50.8 623.5,0 621.2,0 		"/>
		<polygon class="st5" points="628.1,0 598.7,50.8 601.1,50.8 630.5,0 		"/>
	</g>
	<circle class="st6" cx="360.4" cy="54.8" r="54.1"/>
	<g>
		<polygon class="st7" points="108.6,0 39.2,0 39.2,29.8 39.2,120 108.6,120 		"/>
	</g>
</g>
<g>
	<polygon class="st3" points="49,97.8 43.7,120 141.8,120 	"/>
</g>
</svg>
