<?xml version="1.0" encoding="utf-8"?>
<!-- Generator: Adobe Illustrator 25.1.0, SVG Export Plug-In . SVG Version: 6.00 Build 0)  -->
<svg version="1.1"
	 id="svg124" inkscape:export-filename="C:\Users\xine\Documents\2018-debian-buster\futurePrototype-source\blog-banner\png\blog-banner.png" inkscape:export-xdpi="96" inkscape:export-ydpi="96" inkscape:version="0.92.2 (5c3e80d, 2017-08-06)" sodipodi:docname="blog-banner.svg" xmlns:cc="http://creativecommons.org/ns#" xmlns:dc="http://purl.org/dc/elements/1.1/" xmlns:inkscape="http://www.inkscape.org/namespaces/inkscape" xmlns:ns2="http://ns.adobe.com/AdobeIllustrator/10.0/" xmlns:rdf="http://www.w3.org/1999/02/22-rdf-syntax-ns#" xmlns:sodipodi="http://sodipodi.sourceforge.net/DTD/sodipodi-0.dtd" xmlns:svg="http://www.w3.org/2000/svg"
	 xmlns="http://www.w3.org/2000/svg" xmlns:xlink="http://www.w3.org/1999/xlink" x="0px" y="0px" viewBox="0 0 250 250"
	 style="enable-background:new 0 0 250 250;" xml:space="preserve">
<style type="text/css">
	.st0{fill:#082E66;}
	.st1{opacity:0.4;fill:#123777;enable-background:new    ;}
	.st2{opacity:0.15;fill:#7793C4;enable-background:new    ;}
	.st3{opacity:0.15;}
	.st4{opacity:7.000000e-02;fill:#FFFFFF;enable-background:new    ;}
	.st5{opacity:0.1;fill:#FFFFFF;enable-background:new    ;}
	.st6{opacity:0.1;enable-background:new    ;}
	.st7{fill:#FFFFFF;}
</style>
<rect class="st0" width="250" height="250"/>
<g>
	<g>
		<polygon class="st1" points="222,0 250,19.2 250,0 		"/>
	</g>
	<g>
		<path class="st2" d="M0,0v79.5c24.4,39.1,67.8,65.1,117.2,65.1c63.1,0,116.4-42.4,132.8-100.2V0H0z"/>
	</g>
	<g class="st3">
		<polygon points="183.7,216.1 164.1,250 165.7,250 185.3,216.1 		"/>
		<polygon points="188.5,216.1 168.9,250 170.5,250 190.1,216.1 		"/>
		<polygon points="193.3,216.1 173.7,250 175.3,250 194.9,216.1 		"/>
		<polygon points="198.1,216.1 178.5,250 180.1,250 199.7,216.1 		"/>
		<polygon points="202.9,216.1 183.4,250 185,250 204.5,216.1 		"/>
		<polygon points="207.8,216.1 188.2,250 189.8,250 209.4,216.1 		"/>
		<polygon points="212.6,216.1 193,250 194.6,250 214.2,216.1 		"/>
		<polygon points="217.4,216.1 197.8,250 199.4,250 219,216.1 		"/>
		<polygon points="222.2,216.1 202.6,250 204.2,250 223.8,216.1 		"/>
		<polygon points="227,216.1 207.5,250 209.1,250 228.7,216.1 		"/>
		<polygon points="231.9,216.1 212.3,250 213.9,250 233.5,216.1 		"/>
		<polygon points="236.7,216.1 217.1,250 218.7,250 238.3,216.1 		"/>
		<polygon points="241.5,216.1 221.9,250 223.5,250 243.1,216.1 		"/>
		<polygon points="245.5,217.5 226.7,250 228.4,250 246.3,218.9 		"/>
		<polygon points="247.9,221.6 231.6,250 233.2,250 248.7,223.1 		"/>
		<polygon points="236.4,250 238,250 250,229.2 250,226.4 		"/>
		<polygon points="241.2,250 242.8,250 250,237.6 250,234.8 		"/>
		<polygon points="246,250 247.7,250 250,245.9 250,243.1 		"/>
	</g>
	<rect y="17.1" class="st4" width="68" height="4.2"/>
	<circle class="st5" cx="199.9" cy="129.7" r="30"/>
	<g>
		<polygon class="st1" points="232.9,202.8 27.2,153.6 4.1,250 221.6,250 		"/>
	</g>
	<g>
		<path class="st6" d="M21.7,0v115.8v56c0,11.9-9.6,21.5-21.5,21.5c-0.1,0-0.2,0-0.3,0v38.5c0.1,0,0.2,0,0.3,0c33.1,0,60-26.9,60-60
			V0H21.7z"/>
	</g>
</g>
<sodipodi:namedview  bordercolor="#cc009d" borderlayer="true" borderopacity="1" gridtolerance="10" guidetolerance="10" id="namedview126" inkscape:bbox-nodes="true" inkscape:bbox-paths="true" inkscape:current-layer="svg124" inkscape:cx="-41.522018" inkscape:cy="110.9895" inkscape:object-paths="true" inkscape:pageopacity="0" inkscape:pageshadow="2" inkscape:showpageshadow="false" inkscape:snap-bbox="true" inkscape:snap-bbox-edge-midpoints="true" inkscape:snap-bbox-midpoints="true" inkscape:snap-intersection-paths="true" inkscape:snap-midpoints="true" inkscape:snap-page="true" inkscape:snap-smooth-nodes="true" inkscape:window-height="1017" inkscape:window-maximized="1" inkscape:window-width="1920" inkscape:window-x="-8" inkscape:window-y="-8" inkscape:zoom="1.099116" objecttolerance="10" pagecolor="#ffffff" showgrid="false">
	</sodipodi:namedview>
<g id="Layer_1" transform="translate(0,-130)">
	<g id="Layer_1_1_">
	</g>
</g>
<g>
	<g>
		<g>
			<g>
				<polygon class="st7" points="56.4,103 25.3,103 23.6,112.9 32.8,112.9 27.3,146.1 39.7,146.1 45.3,112.9 54.7,112.9 				"/>
			</g>
			<g>
				<path class="st7" d="M87.8,113.6c-1.1,0-2.1,0.1-2.9,0.4s-1.6,0.6-2.2,1.1c-0.6,0.4-1.2,0.9-1.6,1.4c-0.5,0.5-0.8,1-1.1,1.5
					c-0.5-1.1-1.3-2.2-2.4-3.1c-1.1-1-2.6-1.4-4.6-1.4c-1.9,0-3.5,0.3-4.8,0.9s-2.3,1.4-3.2,2.5l0.3-2.4h-9.1l-4.6,31.8h9.9
					l3.3-22.7c0.3-0.6,0.8-1,1.3-1.4s1.1-0.5,1.7-0.5c0,0,0.2,0,0.4,0.1c0.2,0,0.5,0.1,0.7,0.3c0.3,0.2,0.5,0.4,0.7,0.8
					s0.3,0.9,0.3,1.5c0,0.3,0,0.8-0.1,1.2c0,0.5-0.1,0.9-0.2,1.2l-2.8,19.4h10L80,124c0.3-0.6,0.8-1.2,1.4-1.7s1.1-0.7,1.7-0.7
					c0.9,0,1.5,0.3,1.8,1c0.3,0.6,0.4,1.2,0.4,1.8c0,0.3,0,0.7-0.1,1.1c0,0.4-0.1,0.8-0.1,1.1l-2.8,19.5h10.2l3-20.7
					c0-0.3,0.1-0.8,0.2-1.4s0.1-1.2,0.1-1.7c0-2.7-0.7-4.8-2.2-6.4C92.1,114.4,90.2,113.6,87.8,113.6z"/>
			</g>
			<g>
				<path class="st7" d="M124.9,138.2c-0.3,0-0.7-0.1-1-0.3s-0.4-0.9-0.3-2l1.4-11.6c0.3-2.3,0.2-4.2-0.2-5.6
					c-0.4-1.4-1.2-2.5-2.1-3.3c-1-0.8-2.1-1.3-3.5-1.5c-1.4-0.3-2.9-0.4-4.5-0.4c-1,0-2.1,0.1-3.2,0.3c-1.1,0.2-2.1,0.5-3.2,0.8
					c-1,0.3-2,0.7-2.9,1.1s-1.7,0.9-2.3,1.3l-1.4,7.7c1.5-0.9,3-1.7,4.7-2.3c1.7-0.6,3.5-0.8,5.6-0.8c0.9,0,1.7,0.2,2.4,0.6
					c0.7,0.4,0.9,1.1,0.8,2.1l-0.2,1.6c-2,0.1-3.8,0.3-5.4,0.6c-1.6,0.3-3.3,0.9-5,1.6c-1.4,0.6-2.5,1.3-3.5,2.1s-1.8,1.7-2.4,2.6
					c-0.6,0.9-1.1,1.9-1.3,2.8c-0.3,1-0.4,1.9-0.4,2.8c0,1.6,0.2,3,0.6,4.1s0.9,2,1.7,2.6c0.7,0.6,1.6,1.1,2.7,1.4
					c1.1,0.3,2.3,0.4,3.7,0.4c1.8,0,3.4-0.4,4.7-1.2c1.3-0.8,2.4-1.8,3.4-3.2c1.3,2.9,3.4,4.3,6.4,4.3c0.9,0,1.6-0.1,2.3-0.2
					c0.7-0.1,1.4-0.3,2-0.5l1.8-8.3C125.7,138,125.3,138.2,124.9,138.2z M112.9,138c-0.8,0.8-1.9,1.2-3.3,1.2
					c-0.5,0-0.9-0.2-1.2-0.5c-0.3-0.3-0.5-1-0.5-2.1c0-0.9,0.2-1.6,0.5-2.3c0.3-0.6,0.8-1.2,1.4-1.6c0.6-0.5,1.2-0.8,2-1.1
					c0.7-0.3,1.5-0.5,2.2-0.5L112.9,138z"/>
			</g>
			<g>
				<polygon class="st7" points="150.8,114.3 145.9,122.1 142.7,114.3 131.8,114.3 137.5,128.4 126.1,146.1 135,146.1 141.2,135.6 
					145.4,146.1 156.6,146.1 149.6,129 159.3,114.3 				"/>
			</g>
			<g>
				<path class="st7" d="M214.8,120.8c0.7,0.7,1.7,1.6,2.9,2.7c0.9,0.8,1.7,1.5,2.4,2.2s1.3,1.4,1.8,2.2c0.5,0.8,0.9,1.6,1.1,2.5
					c0.2,0.9,0.4,1.9,0.4,3.1l0,0c0-1.2-0.1-2.2-0.4-3.1c-0.2-0.9-0.6-1.7-1.1-2.5s-1.1-1.5-1.8-2.2s-1.5-1.4-2.4-2.2
					C216.5,122.3,215.5,121.4,214.8,120.8c-0.7-0.8-1.1-1.8-1.1-3.1l0,0C213.7,119,214.1,120,214.8,120.8z"/>
			</g>
			<g>
				<path class="st7" d="M221.9,105.1c-1.6-0.5-3.2-0.7-5-0.7c-2.3,0-4.4,0.4-6.4,1.1c-2,0.8-3.7,1.8-5.2,3.1
					c-1.5,1.3-2.6,2.8-3.5,4.5c-0.8,1.7-1.2,3.4-1.2,5.3l0,0c0-1.8,0.4-3.6,1.2-5.2c0.8-1.7,2-3.2,3.5-4.5s3.2-2.3,5.2-3.1
					c2-0.8,4.1-1.1,6.4-1.1C218.7,104.4,220.4,104.7,221.9,105.1c1.6,0.6,3,1.4,4.4,2.4v-0.1C225,106.4,223.5,105.6,221.9,105.1z"/>
			</g>
			<g>
				<path class="st7" d="M202.2,137.3c1.3,0.7,2.7,1.1,4.3,1.1c3.1,0,4.6-1.4,4.6-4.3l0,0c0,2.9-1.6,4.3-4.6,4.3
					C204.9,138.3,203.4,137.9,202.2,137.3c-1.3-0.8-2.4-1.8-3.4-3l-1.9,9.3l0,0l1.9-9.2C199.7,135.6,200.9,136.6,202.2,137.3z"/>
			</g>
			<g>
				<path class="st7" d="M219.1,142.6c-1.4,1.3-3,2.3-5,3.1s-4.3,1.2-6.8,1.2c-2.1,0-4-0.2-5.7-0.7s-3.3-1.3-4.8-2.5v0.1
					c1.4,1.2,3,2,4.8,2.5c1.7,0.5,3.6,0.7,5.7,0.7c2.5,0,4.8-0.4,6.8-1.2C216.1,145,217.8,144,219.1,142.6c1.4-1.2,2.4-2.6,3.1-4.3
					c0.7-1.6,1.1-3.2,1.1-4.9l0,0c0,1.6-0.4,3.3-1.1,4.9S220.5,141.3,219.1,142.6z"/>
			</g>
			<g>
				<path class="st7" d="M210,131c-0.8-0.9-1.7-1.8-2.7-2.6c-2.2-1.7-3.9-3.3-4.9-5c-1-1.6-1.5-3.3-1.6-5.1l0,0
					c0,1.8,0.5,3.5,1.6,5.1c1,1.6,2.7,3.3,4.9,5C208.3,129.3,209.2,130.2,210,131c0.8,1,1.2,2,1.2,3l0,0
					C211.1,132.9,210.8,131.9,210,131z"/>
			</g>
			<g>
				<path class="st7" d="M221.7,114.2c-1-0.6-2.2-0.9-3.6-0.9c-1.6,0-2.7,0.4-3.4,1.3c-0.7,0.8-1,1.8-1,3l0,0c0-1.1,0.3-2.1,1-3
					c0.7-0.8,1.8-1.3,3.4-1.3C219.5,113.4,220.7,113.7,221.7,114.2c1,0.7,1.9,1.5,2.8,2.5l1.9-9.2l0,0l-1.9,9.1
					C223.6,115.6,222.7,114.8,221.7,114.2z"/>
			</g>
			<g>
				<path class="st7" d="M217,104.4c-2.3,0-4.4,0.4-6.4,1.1c-2,0.8-3.7,1.8-5.2,3.1c-1.5,1.3-2.6,2.8-3.5,4.5
					c-0.8,1.7-1.2,3.4-1.2,5.2c0,1.8,0.5,3.5,1.6,5.1c1,1.6,2.7,3.3,4.9,5c1,0.8,2,1.6,2.7,2.6c0.8,0.9,1.2,1.9,1.2,2.9l0,0l0,0
					c0,2.9-1.5,4.3-4.6,4.3c-1.6,0-3.1-0.4-4.3-1.1c-1.3-0.7-2.4-1.7-3.4-2.9l-1.9,9.2c1.4,1.2,3,2,4.8,2.5c1.7,0.5,3.6,0.7,5.7,0.7
					c2.5,0,4.8-0.4,6.8-1.2s3.7-1.8,5-3.1c1.4-1.3,2.4-2.7,3.1-4.3c0.7-1.6,1.1-3.2,1.1-4.9c0-1.1-0.1-2.2-0.4-3.1
					c-0.2-0.9-0.6-1.7-1.1-2.5s-1.1-1.5-1.8-2.2s-1.5-1.4-2.4-2.2c-1.2-1-2.2-1.9-2.9-2.7c-0.7-0.7-1.1-1.8-1.1-3.1l0,0l0,0
					c0-1.2,0.3-2.2,1-3s1.8-1.3,3.4-1.3c1.4,0,2.6,0.3,3.6,0.9s1.9,1.4,2.8,2.4l1.9-9.1c-1.4-1.1-2.9-1.8-4.4-2.3
					C220.4,104.7,218.7,104.4,217,104.4z"/>
			</g>
			<g>
				<path class="st7" d="M182.3,104.2c-5.3,0-10,1.9-14,5.8s-6.5,9.1-7.7,15.5c-1.1,6.4-0.4,11.6,2.2,15.5c2.6,3.9,6.6,5.9,11.9,5.9
					c5.3,0,9.9-2,13.9-5.9s6.5-9.1,7.7-15.5c1.1-6.5,0.4-11.6-2.2-15.5C191.6,106.2,187.6,104.2,182.3,104.2z M183.9,125.6
					c-0.7,3.9-1.7,6.9-3,9c-1.3,2-2.8,3.1-4.6,3.1s-3-1-3.5-3.1c-0.6-2.1-0.5-5,0.2-9s1.7-7,3-9.1s2.8-3.1,4.6-3.1s2.9,1,3.5,3.1
					C184.7,118.6,184.6,121.7,183.9,125.6z"/>
			</g>
		</g>
	</g>
</g>
</svg>
