<?xml version="1.0" encoding="utf-8"?>
<!-- Generator: Adobe Illustrator 25.1.0, SVG Export Plug-In . SVG Version: 6.00 Build 0)  -->
<svg version="1.1"
	 id="svg8" inkscape:export-filename="C:\Users\xine\Documents\2018-debian-buster\futurePrototype-source\desktop-wallpaper\png\wallpaper-1280x1024.png" inkscape:export-xdpi="96" inkscape:export-ydpi="96" inkscape:version="0.92.4 (5da689c313, 2019-01-14)" sodipodi:docname="1280x1024.svg" xmlns:cc="http://creativecommons.org/ns#" xmlns:dc="http://purl.org/dc/elements/1.1/" xmlns:inkscape="http://www.inkscape.org/namespaces/inkscape" xmlns:rdf="http://www.w3.org/1999/02/22-rdf-syntax-ns#" xmlns:sodipodi="http://sodipodi.sourceforge.net/DTD/sodipodi-0.dtd" xmlns:svg="http://www.w3.org/2000/svg"
	 xmlns="http://www.w3.org/2000/svg" xmlns:xlink="http://www.w3.org/1999/xlink" x="0px" y="0px" viewBox="0 0 1280 1024"
	 style="enable-background:new 0 0 1280 1024;" xml:space="preserve">
<style type="text/css">
	.st0{clip-path:url(#SVGID_2_);}
	.st1{fill:#082E66;}
	.st2{opacity:0.4;fill:#123777;enable-background:new    ;}
	.st3{opacity:0.15;fill:#7793C4;enable-background:new    ;}
	.st4{opacity:0.1;fill:#7793C4;enable-background:new    ;}
	.st5{opacity:0.1;enable-background:new    ;}
	.st6{fill:#325DA8;}
	.st7{opacity:0.15;}
	.st8{fill:#1944A4;}
	.st9{opacity:7.000000e-02;fill:#FFFFFF;enable-background:new    ;}
	.st10{opacity:0.1;fill:#FFFFFF;enable-background:new    ;}
	.st11{fill:#FFFFFF;}
	.st12{fill:#D90000;}
</style>
<sodipodi:namedview  bordercolor="#b20eb2" borderlayer="true" borderopacity="1" id="base" inkscape:bbox-nodes="true" inkscape:bbox-paths="true" inkscape:current-layer="layer3" inkscape:cx="-999.55202" inkscape:cy="1003.3253" inkscape:document-units="px" inkscape:object-paths="true" inkscape:pageopacity="0.0" inkscape:pageshadow="2" inkscape:showpageshadow="false" inkscape:snap-bbox="true" inkscape:snap-bbox-edge-midpoints="true" inkscape:snap-bbox-midpoints="true" inkscape:snap-global="true" inkscape:snap-intersection-paths="true" inkscape:snap-nodes="true" inkscape:snap-others="true" inkscape:snap-page="true" inkscape:snap-smooth-nodes="true" inkscape:window-height="1008" inkscape:window-maximized="1" inkscape:window-width="1920" inkscape:window-x="0" inkscape:window-y="36" inkscape:zoom="0.34293402" pagecolor="#ffffff" showborder="true" showgrid="false" units="px">
	</sodipodi:namedview>
<g>
	<g>
		<g>
			<defs>
				<rect id="SVGID_1_" width="1280" height="1024"/>
			</defs>
			<clipPath id="SVGID_2_">
				<use xlink:href="#SVGID_1_"  style="overflow:visible;"/>
			</clipPath>
			<g class="st0">
				<rect class="st1" width="1820.4" height="1024"/>
				<g>
					<g>
						<polygon class="st2" points="909.3,0 1619.9,487.8 1820.4,195.6 1820.4,0 						"/>
					</g>
					<path class="st3" d="M1044.8,0c0.4,9,0.7,18,0.7,27.1c0,312.2-253.1,565.3-565.3,565.3C277.5,592.4,99.8,485.8,0,325.6V0
						H1044.8z"/>
					<path class="st4" d="M1820.4,853.5c-31.7,29.4-55.8,70.3-59.3,116h-460.8c6.5-305.9,228.4-558.7,520.1-613.1V853.5z"/>
					<rect x="1063.3" y="799.1" class="st5" width="335.8" height="17.1"/>
					<g>
						<polygon class="st6" points="1165.9,176.5 1066.1,349.5 1068.8,354 1171.2,176.5 						"/>
						<polygon class="st6" points="1076.6,367.7 1187,176.5 1181.7,176.5 1074,363.1 						"/>
						<polygon class="st6" points="1084.5,381.3 1202.7,176.5 1197.5,176.5 1081.8,376.8 						"/>
						<polygon class="st6" points="1092.4,395 1218.6,176.5 1213.3,176.5 1089.7,390.4 						"/>
						<polygon class="st6" points="1100.2,408.7 1234.3,176.5 1229,176.5 1097.7,404 						"/>
						<polygon class="st6" points="1108.2,422.3 1250,176.5 1244.7,176.5 1105.5,417.7 						"/>
						<polygon class="st6" points="1116.1,436 1265.8,176.5 1260.6,176.5 1113.4,431.3 						"/>
						<polygon class="st6" points="1123.9,449.6 1281.6,176.5 1276.3,176.5 1121.3,445 						"/>
						<polygon class="st6" points="1131.8,463.3 1297.4,176.5 1292,176.5 1129.1,458.6 						"/>
						<polygon class="st6" points="1139.7,476.9 1313.1,176.5 1307.8,176.5 1137,472.3 						"/>
						<polygon class="st6" points="1147.5,490.6 1328.8,176.5 1323.6,176.5 1144.9,485.9 						"/>
						<polygon class="st6" points="1155.4,504.2 1344.7,176.5 1339.4,176.5 1152.8,499.6 						"/>
						<polygon class="st6" points="1163.3,517.9 1360.4,176.5 1355.1,176.5 1160.7,513.2 						"/>
						<polygon class="st6" points="1176.5,522.3 1370.9,185.6 1368.3,181 1171.2,522.3 						"/>
						<polygon class="st6" points="1192.2,522.3 1378.8,199.3 1376.1,194.7 1187,522.3 						"/>
						<polygon class="st6" points="1208,522.3 1386.7,213 1384,208.3 1202.7,522.3 						"/>
						<polygon class="st6" points="1223.8,522.3 1394.5,226.6 1391.9,222 1218.5,522.3 						"/>
						<polygon class="st6" points="1239.5,522.3 1402.4,240.3 1399.8,235.6 1234.2,522.3 						"/>
						<polygon class="st6" points="1255.3,522.3 1410.3,253.9 1407.6,249.3 1250,522.3 						"/>
						<polygon class="st6" points="1271.1,522.3 1418.1,267.6 1415.6,262.9 1265.8,522.3 						"/>
						<polygon class="st6" points="1286.8,522.3 1426.1,281.2 1423.5,276.6 1281.5,522.3 						"/>
						<polygon class="st6" points="1302.6,522.3 1434,294.9 1431.3,290.2 1297.3,522.3 						"/>
						<polygon class="st6" points="1318.3,522.3 1441.8,308.5 1439.2,303.9 1313.1,522.3 						"/>
						<polygon class="st6" points="1334.1,522.3 1449.7,322.2 1447.1,317.5 1328.8,522.3 						"/>
						<polygon class="st6" points="1349.9,522.3 1457.6,335.8 1454.9,331.2 1344.6,522.3 						"/>
						<polygon class="st6" points="1365.6,522.3 1465.5,349.5 1462.8,344.8 1360.3,522.3 						"/>
					</g>
					<g class="st7">
						<polygon points="752.3,885.1 672,1024 678.6,1024 758.8,885.1 						"/>
						<polygon points="772,885.1 691.8,1024 698.4,1024 778.6,885.1 						"/>
						<polygon points="791.7,885.1 711.5,1024 718.1,1024 798.3,885.1 						"/>
						<polygon points="811.4,885.1 731.2,1024 737.8,1024 818.1,885.1 						"/>
						<polygon points="831.2,885.1 751,1024 757.6,1024 837.8,885.1 						"/>
						<polygon points="851,885.1 770.7,1024 777.4,1024 857.6,885.1 						"/>
						<polygon points="870.7,885.1 790.5,1024 797.1,1024 877.3,885.1 						"/>
						<polygon points="890.4,885.1 810.2,1024 816.8,1024 897,885.1 						"/>
						<polygon points="910.2,885.1 830,1024 836.6,1024 916.8,885.1 						"/>
						<polygon points="929.9,885.1 849.7,1024 856.4,1024 936.6,885.1 						"/>
						<polygon points="949.7,885.1 869.5,1024 876.1,1024 956.3,885.1 						"/>
						<polygon points="969.4,885.1 889.2,1024 895.8,1024 976,885.1 						"/>
						<polygon points="989.2,885.1 909,1024 915.5,1024 995.7,885.1 						"/>
						<polygon points="1005.6,890.8 928.7,1024 935.3,1024 1008.9,896.6 						"/>
						<polygon points="1015.5,907.9 948.4,1024 955.1,1024 1018.8,913.7 						"/>
						<polygon points="1025.4,925 968.2,1024 974.8,1024 1028.6,930.8 						"/>
						<polygon points="1035.3,942.1 988,1024 994.6,1024 1038.6,948 						"/>
						<polygon points="1045.1,959.2 1007.7,1024 1014.4,1024 1048.5,965 						"/>
						<polygon points="1055,976.3 1027.4,1024 1034.1,1024 1058.3,982.1 						"/>
						<polygon points="1064.9,993.4 1047.1,1024 1053.8,1024 1068.2,999.2 						"/>
						<polygon points="1078,1016.2 1074.7,1010.5 1067,1024 1073.5,1024 						"/>
					</g>
					<rect x="1687.5" y="247.6" class="st8" width="132.9" height="15.2"/>
					<rect y="69.9" class="st9" width="278.4" height="17.1"/>
					<circle class="st10" cx="818.7" cy="531.3" r="123"/>
					<g>
						<polygon class="st2" points="953.9,830.5 111.3,629 16.8,1024 907.7,1024 						"/>
					</g>
					<g>
						<path class="st5" d="M89,0v474.5v229.4c0,48.5-39.3,87.9-87.9,87.9c-0.4,0-0.8,0-1.1,0v157.7c0.4,0,0.8,0,1.1,0
							c135.6,0,245.6-110,245.6-245.6V0H89z"/>
					</g>
				</g>
			</g>
		</g>
	</g>
</g>
<g>
	<polygon class="st11" points="1064.8,785.8 1031,785.8 1038.8,748.9 1161,748.9 1153,785.8 1119.2,785.8 1097.9,886.3 
		1043.5,886.3 	"/>
	<polygon class="st12" points="1078.7,768.9 1015,768.9 1028.4,709.7 1092.2,709.7 	"/>
</g>
</svg>
