<?xml version="1.0" encoding="utf-8"?>
<!-- Generator: Adobe Illustrator 25.1.0, SVG Export Plug-In . SVG Version: 6.00 Build 0)  -->
<svg version="1.1"
	 id="svg8" inkscape:export-filename="C:\Users\xine\Documents\2018-debian-buster\futurePrototype-source\desktop-wallpaper\png\wallpaper-1600x1200.png" inkscape:export-xdpi="96" inkscape:export-ydpi="96" inkscape:version="0.92.4 (5da689c313, 2019-01-14)" sodipodi:docname="1600x1200.svg" xmlns:cc="http://creativecommons.org/ns#" xmlns:dc="http://purl.org/dc/elements/1.1/" xmlns:inkscape="http://www.inkscape.org/namespaces/inkscape" xmlns:rdf="http://www.w3.org/1999/02/22-rdf-syntax-ns#" xmlns:sodipodi="http://sodipodi.sourceforge.net/DTD/sodipodi-0.dtd" xmlns:svg="http://www.w3.org/2000/svg"
	 xmlns="http://www.w3.org/2000/svg" xmlns:xlink="http://www.w3.org/1999/xlink" x="0px" y="0px" viewBox="0 0 1600 1200"
	 style="enable-background:new 0 0 1600 1200;" xml:space="preserve">
<style type="text/css">
	.st0{clip-path:url(#SVGID_2_);}
	.st1{fill:#082E66;}
	.st2{opacity:0.4;fill:#123777;enable-background:new    ;}
	.st3{opacity:0.15;fill:#7793C4;enable-background:new    ;}
	.st4{opacity:0.1;fill:#7793C4;enable-background:new    ;}
	.st5{opacity:0.1;enable-background:new    ;}
	.st6{fill:#325DA8;}
	.st7{opacity:0.15;}
	.st8{fill:#1944A4;}
	.st9{opacity:7.000000e-02;fill:#FFFFFF;enable-background:new    ;}
	.st10{opacity:0.1;fill:#FFFFFF;enable-background:new    ;}
	.st11{fill:#FFFFFF;}
	.st12{fill:#D90000;}
</style>
<sodipodi:namedview  bordercolor="#b20eb2" borderlayer="true" borderopacity="1" id="base" inkscape:bbox-nodes="true" inkscape:bbox-paths="true" inkscape:current-layer="layer3" inkscape:cx="-27.575059" inkscape:cy="612.16319" inkscape:document-units="px" inkscape:object-paths="true" inkscape:pageopacity="0.0" inkscape:pageshadow="2" inkscape:showpageshadow="false" inkscape:snap-bbox="true" inkscape:snap-bbox-edge-midpoints="true" inkscape:snap-bbox-midpoints="true" inkscape:snap-global="true" inkscape:snap-intersection-paths="true" inkscape:snap-nodes="true" inkscape:snap-others="true" inkscape:snap-page="true" inkscape:snap-smooth-nodes="true" inkscape:window-height="1008" inkscape:window-maximized="1" inkscape:window-width="1920" inkscape:window-x="0" inkscape:window-y="36" inkscape:zoom="0.42915156" pagecolor="#ffffff" showborder="true" showgrid="false" units="px">
	</sodipodi:namedview>
<g>
	<g>
		<g>
			<defs>
				<rect id="SVGID_1_" width="1600" height="1200"/>
			</defs>
			<clipPath id="SVGID_2_">
				<use xlink:href="#SVGID_1_"  style="overflow:visible;"/>
			</clipPath>
			<g class="st0">
				<rect class="st1" width="2133.3" height="1200"/>
				<g>
					<g>
						<polygon class="st2" points="1065.6,0 1898.3,571.7 2133.3,229.2 2133.3,0 						"/>
					</g>
					<path class="st3" d="M1224.3,0c0.4,10.6,0.8,21.1,0.8,31.8c0,365.9-296.6,662.4-662.4,662.4C325.2,694.2,117,569.3,0,381.6V0
						H1224.3z"/>
					<path class="st4" d="M2133.3,1000.2c-37.1,34.4-65.3,82.3-69.4,135.9h-540c7.7-358.4,267.7-654.8,609.4-718.4L2133.3,1000.2
						L2133.3,1000.2z"/>
					<rect x="1246.1" y="936.4" class="st5" width="393.6" height="20"/>
					<g>
						<polygon class="st6" points="1366.3,206.9 1249.3,409.6 1252.4,414.9 1372.6,206.9 						"/>
						<polygon class="st6" points="1261.7,430.9 1391,206.9 1384.8,206.9 1258.6,425.6 						"/>
						<polygon class="st6" points="1270.9,446.9 1409.4,206.9 1403.3,206.9 1267.8,441.6 						"/>
						<polygon class="st6" points="1280.1,462.9 1428,206.9 1421.8,206.9 1277,457.6 						"/>
						<polygon class="st6" points="1289.3,478.9 1446.4,206.9 1440.2,206.9 1286.3,473.4 						"/>
						<polygon class="st6" points="1298.7,494.9 1464.9,206.9 1458.7,206.9 1295.6,489.4 						"/>
						<polygon class="st6" points="1307.9,510.9 1483.3,206.9 1477.2,206.9 1304.8,505.4 						"/>
						<polygon class="st6" points="1317.1,526.9 1501.9,206.9 1495.7,206.9 1314,521.4 						"/>
						<polygon class="st6" points="1326.3,542.9 1520.3,206.9 1514.1,206.9 1323.2,537.4 						"/>
						<polygon class="st6" points="1335.6,558.9 1538.8,206.9 1532.6,206.9 1332.4,553.4 						"/>
						<polygon class="st6" points="1344.8,574.9 1557.2,206.9 1551.1,206.9 1341.7,569.4 						"/>
						<polygon class="st6" points="1354,590.9 1575.8,206.9 1569.6,206.9 1350.9,585.4 						"/>
						<polygon class="st6" points="1363.2,606.9 1594.2,206.9 1588,206.9 1360.2,601.4 						"/>
						<polygon class="st6" points="1378.7,612.1 1606.6,217.6 1603.4,212.1 1372.4,612.1 						"/>
						<polygon class="st6" points="1397.1,612.1 1615.8,233.6 1612.7,228.1 1391,612.1 						"/>
						<polygon class="st6" points="1415.7,612.1 1625,249.6 1621.9,244.1 1409.4,612.1 						"/>
						<polygon class="st6" points="1434.1,612.1 1634.2,265.6 1631.1,260.1 1427.9,612.1 						"/>
						<polygon class="st6" points="1452.6,612.1 1643.4,281.6 1640.3,276.1 1446.3,612.1 						"/>
						<polygon class="st6" points="1471,612.1 1652.7,297.6 1649.6,292.1 1464.9,612.1 						"/>
						<polygon class="st6" points="1489.6,612.1 1661.9,313.6 1658.9,308.1 1483.3,612.1 						"/>
						<polygon class="st6" points="1508,612.1 1671.2,329.6 1668.1,324.1 1501.8,612.1 						"/>
						<polygon class="st6" points="1526.4,612.1 1680.4,345.6 1677.3,340.1 1520.2,612.1 						"/>
						<polygon class="st6" points="1544.9,612.1 1689.7,361.6 1686.6,356.1 1538.8,612.1 						"/>
						<polygon class="st6" points="1563.4,612.1 1698.9,377.6 1695.8,372.1 1557.2,612.1 						"/>
						<polygon class="st6" points="1581.9,612.1 1708.1,393.6 1705,388.1 1575.7,612.1 						"/>
						<polygon class="st6" points="1600.3,612.1 1717.3,409.6 1714.2,404.1 1594.1,612.1 						"/>
					</g>
					<g class="st7">
						<polygon points="881.6,1037.2 787.4,1200 795.2,1200 889.2,1037.2 						"/>
						<polygon points="904.7,1037.2 810.7,1200 818.4,1200 912.4,1037.2 						"/>
						<polygon points="927.8,1037.2 833.8,1200 841.6,1200 935.6,1037.2 						"/>
						<polygon points="950.9,1037.2 856.9,1200 864.7,1200 958.7,1037.2 						"/>
						<polygon points="974.1,1037.2 880.1,1200 887.8,1200 981.8,1037.2 						"/>
						<polygon points="997.2,1037.2 903.2,1200 911,1200 1005,1037.2 						"/>
						<polygon points="1020.3,1037.2 926.3,1200 934.1,1200 1028.1,1037.2 						"/>
						<polygon points="1043.4,1037.2 949.4,1200 957.2,1200 1051.2,1037.2 						"/>
						<polygon points="1066.7,1037.2 972.7,1200 980.3,1200 1074.3,1037.2 						"/>
						<polygon points="1089.8,1037.2 995.8,1200 1003.6,1200 1097.6,1037.2 						"/>
						<polygon points="1112.9,1037.2 1018.9,1200 1026.7,1200 1120.7,1037.2 						"/>
						<polygon points="1136,1037.2 1042,1200 1049.8,1200 1143.8,1037.2 						"/>
						<polygon points="1159.2,1037.2 1065.2,1200 1072.9,1200 1166.9,1037.2 						"/>
						<polygon points="1178.4,1043.9 1088.3,1200 1096.1,1200 1182.3,1050.7 						"/>
						<polygon points="1190,1063.9 1111.4,1200 1119.2,1200 1193.9,1070.8 						"/>
						<polygon points="1201.7,1084 1134.7,1200 1142.3,1200 1205.4,1090.8 						"/>
						<polygon points="1213.2,1104 1157.8,1200 1165.6,1200 1217.1,1110.9 						"/>
						<polygon points="1224.8,1124.1 1180.9,1200 1188.8,1200 1228.7,1130.9 						"/>
						<polygon points="1236.3,1144.1 1204,1200 1211.9,1200 1240.2,1150.9 						"/>
						<polygon points="1247.9,1164.1 1227.1,1200 1234.9,1200 1251.8,1170.9 						"/>
						<polygon points="1263.3,1190.9 1259.4,1184.2 1250.3,1200 1258,1200 						"/>
					</g>
					<rect x="1977.6" y="290.1" class="st8" width="155.8" height="17.8"/>
					<rect y="81.9" class="st9" width="326.2" height="20"/>
					<circle class="st10" cx="959.4" cy="622.7" r="144.1"/>
					<g>
						<polygon class="st2" points="1117.9,973.2 130.4,737.1 19.7,1200 1063.7,1200 						"/>
					</g>
					<g>
						<path class="st5" d="M104.3,0v556v268.8c0,56.9-46.1,103-103,103c-0.4,0-0.9,0-1.3,0v184.8c0.4,0,0.9,0,1.3,0
							c158.9,0,287.8-128.9,287.8-287.8V0H104.3z"/>
					</g>
				</g>
			</g>
		</g>
	</g>
</g>
<g>
	<polygon class="st11" points="1333.6,900.3 1295.8,900.3 1304.5,859 1441.3,859 1432.4,900.3 1394.5,900.3 1370.7,1012.8 
		1309.8,1012.8 	"/>
	<polygon class="st12" points="1349.2,881.4 1277.9,881.4 1292.9,815.1 1364.3,815.1 	"/>
</g>
</svg>
