<?xml version="1.0" encoding="utf-8"?>
<!-- Generator: Adobe Illustrator 25.1.0, SVG Export Plug-In . SVG Version: 6.00 Build 0)  -->
<svg version="1.1"
	 id="svg8" inkscape:export-filename="C:\Users\xine\Documents\2018-debian-buster\futurePrototype-source\desktop-wallpaper\png\wallpaper-1920x1080.png" inkscape:export-xdpi="96" inkscape:export-ydpi="96" inkscape:version="0.92.4 (5da689c313, 2019-01-14)" sodipodi:docname="1920x1080.svg" xmlns:cc="http://creativecommons.org/ns#" xmlns:dc="http://purl.org/dc/elements/1.1/" xmlns:inkscape="http://www.inkscape.org/namespaces/inkscape" xmlns:rdf="http://www.w3.org/1999/02/22-rdf-syntax-ns#" xmlns:sodipodi="http://sodipodi.sourceforge.net/DTD/sodipodi-0.dtd" xmlns:svg="http://www.w3.org/2000/svg"
	 xmlns="http://www.w3.org/2000/svg" xmlns:xlink="http://www.w3.org/1999/xlink" x="0px" y="0px" viewBox="0 0 1920 1080"
	 style="enable-background:new 0 0 1920 1080;" xml:space="preserve">
<style type="text/css">
	.st0{fill:#082E66;}
	.st1{opacity:0.4;fill:#123777;enable-background:new    ;}
	.st2{opacity:0.15;fill:#7793C4;enable-background:new    ;}
	.st3{opacity:0.1;fill:#7793C4;enable-background:new    ;}
	.st4{opacity:0.1;enable-background:new    ;}
	.st5{fill:#325DA8;}
	.st6{opacity:0.15;}
	.st7{fill:#1944A4;}
	.st8{opacity:7.000000e-02;fill:#FFFFFF;enable-background:new    ;}
	.st9{opacity:0.1;fill:#FFFFFF;enable-background:new    ;}
	.st10{fill:#FFFFFF;}
	.st11{fill:#D90000;}
</style>
<sodipodi:namedview  bordercolor="#b20eb2" borderlayer="true" borderopacity="1" id="base" inkscape:bbox-nodes="true" inkscape:bbox-paths="true" inkscape:current-layer="layer3" inkscape:cx="-260.16367" inkscape:cy="188.50222" inkscape:document-units="px" inkscape:object-paths="true" inkscape:pageopacity="0.0" inkscape:pageshadow="2" inkscape:showpageshadow="false" inkscape:snap-bbox="true" inkscape:snap-bbox-edge-midpoints="true" inkscape:snap-bbox-midpoints="true" inkscape:snap-global="true" inkscape:snap-intersection-paths="true" inkscape:snap-nodes="true" inkscape:snap-others="true" inkscape:snap-page="true" inkscape:snap-smooth-nodes="true" inkscape:window-height="1008" inkscape:window-maximized="1" inkscape:window-width="1920" inkscape:window-x="0" inkscape:window-y="36" inkscape:zoom="0.30345598" pagecolor="#ffffff" showborder="true" showgrid="false" units="px">
	</sodipodi:namedview>
<g>
	<rect class="st0" width="1920" height="1080"/>
	<g>
		<g>
			<polygon class="st1" points="959,0 1708.5,514.5 1920,206.3 1920,0 			"/>
		</g>
		<path class="st2" d="M1101.9,0c0.4,9.5,0.7,19,0.7,28.6c0,329.3-266.9,596.2-596.2,596.2C292.7,624.8,105.3,512.4,0,343.4V0
			H1101.9z"/>
		<path class="st3" d="M1920,900.2c-33.4,31-58.8,74.1-62.5,122.3h-486c6.9-322.6,240.9-589.3,548.5-646.6V900.2z"/>
		<rect x="1121.5" y="842.8" class="st4" width="354.2" height="18"/>
		<g>
			<polygon class="st5" points="1229.7,186.2 1124.4,368.6 1127.2,373.4 1235.3,186.2 			"/>
			<polygon class="st5" points="1135.5,387.8 1251.9,186.2 1246.3,186.2 1132.7,383 			"/>
			<polygon class="st5" points="1143.8,402.2 1268.5,186.2 1263,186.2 1141,397.4 			"/>
			<polygon class="st5" points="1152.1,416.6 1285.2,186.2 1279.6,186.2 1149.3,411.8 			"/>
			<polygon class="st5" points="1160.4,431 1301.8,186.2 1296.2,186.2 1157.7,426.1 			"/>
			<polygon class="st5" points="1168.8,445.4 1318.4,186.2 1312.8,186.2 1166,440.5 			"/>
			<polygon class="st5" points="1177.1,459.8 1335,186.2 1329.5,186.2 1174.3,454.9 			"/>
			<polygon class="st5" points="1185.4,474.2 1351.7,186.2 1346.1,186.2 1182.6,469.3 			"/>
			<polygon class="st5" points="1193.7,488.6 1368.3,186.2 1362.7,186.2 1190.9,483.7 			"/>
			<polygon class="st5" points="1202,503 1384.9,186.2 1379.3,186.2 1199.2,498.1 			"/>
			<polygon class="st5" points="1210.3,517.4 1401.5,186.2 1396,186.2 1207.5,512.5 			"/>
			<polygon class="st5" points="1218.6,531.8 1418.2,186.2 1412.6,186.2 1215.8,526.9 			"/>
			<polygon class="st5" points="1226.9,546.2 1434.8,186.2 1429.2,186.2 1224.2,541.3 			"/>
			<polygon class="st5" points="1240.8,550.9 1445.9,195.8 1443.1,190.9 1235.2,550.9 			"/>
			<polygon class="st5" points="1257.4,550.9 1454.2,210.2 1451.4,205.3 1251.9,550.9 			"/>
			<polygon class="st5" points="1274.1,550.9 1462.5,224.6 1459.7,219.7 1268.5,550.9 			"/>
			<polygon class="st5" points="1290.7,550.9 1470.8,239 1468,234.1 1285.1,550.9 			"/>
			<polygon class="st5" points="1307.3,550.9 1479.1,253.4 1476.3,248.5 1301.7,550.9 			"/>
			<polygon class="st5" points="1323.9,550.9 1487.4,267.8 1484.6,262.9 1318.4,550.9 			"/>
			<polygon class="st5" points="1340.6,550.9 1495.7,282.2 1493,277.3 1335,550.9 			"/>
			<polygon class="st5" points="1357.2,550.9 1504.1,296.6 1501.3,291.7 1351.6,550.9 			"/>
			<polygon class="st5" points="1373.8,550.9 1512.4,311 1509.6,306.1 1368.2,550.9 			"/>
			<polygon class="st5" points="1390.4,550.9 1520.7,325.4 1517.9,320.5 1384.9,550.9 			"/>
			<polygon class="st5" points="1407.1,550.9 1529,339.8 1526.2,334.9 1401.5,550.9 			"/>
			<polygon class="st5" points="1423.7,550.9 1537.3,354.2 1534.5,349.3 1418.1,550.9 			"/>
			<polygon class="st5" points="1440.3,550.9 1545.6,368.6 1542.8,363.7 1434.7,550.9 			"/>
		</g>
		<g class="st6">
			<polygon points="793.4,933.5 708.7,1080 715.7,1080 800.3,933.5 			"/>
			<polygon points="814.2,933.5 729.6,1080 736.6,1080 821.2,933.5 			"/>
			<polygon points="835,933.5 750.4,1080 757.4,1080 842,933.5 			"/>
			<polygon points="855.8,933.5 771.2,1080 778.2,1080 862.8,933.5 			"/>
			<polygon points="876.7,933.5 792.1,1080 799,1080 883.6,933.5 			"/>
			<polygon points="897.5,933.5 812.9,1080 819.9,1080 904.5,933.5 			"/>
			<polygon points="918.3,933.5 833.7,1080 840.7,1080 925.3,933.5 			"/>
			<polygon points="939.1,933.5 854.5,1080 861.5,1080 946.1,933.5 			"/>
			<polygon points="960,933.5 875.4,1080 882.3,1080 966.9,933.5 			"/>
			<polygon points="980.8,933.5 896.2,1080 903.2,1080 987.8,933.5 			"/>
			<polygon points="1001.6,933.5 917,1080 924,1080 1008.6,933.5 			"/>
			<polygon points="1022.4,933.5 937.8,1080 944.8,1080 1029.4,933.5 			"/>
			<polygon points="1043.3,933.5 958.7,1080 965.6,1080 1050.2,933.5 			"/>
			<polygon points="1060.6,939.5 979.5,1080 986.5,1080 1064.1,945.6 			"/>
			<polygon points="1071,957.5 1000.3,1080 1007.3,1080 1074.5,963.7 			"/>
			<polygon points="1081.5,975.6 1021.2,1080 1028.1,1080 1084.9,981.7 			"/>
			<polygon points="1091.9,993.6 1042,1080 1049,1080 1095.4,999.8 			"/>
			<polygon points="1102.3,1011.7 1062.8,1080 1069.9,1080 1105.8,1017.8 			"/>
			<polygon points="1112.7,1029.7 1083.6,1080 1090.7,1080 1116.2,1035.8 			"/>
			<polygon points="1123.1,1047.7 1104.4,1080 1111.4,1080 1126.6,1053.8 			"/>
			<polygon points="1137,1071.8 1133.5,1065.8 1125.3,1080 1132.2,1080 			"/>
		</g>
		<rect x="1779.8" y="261.1" class="st7" width="140.2" height="16"/>
		<rect y="73.7" class="st8" width="293.6" height="18"/>
		<circle class="st9" cx="863.5" cy="560.4" r="129.7"/>
		<g>
			<polygon class="st1" points="1006.1,875.9 117.4,663.4 17.7,1080 957.3,1080 			"/>
		</g>
		<g>
			<path class="st4" d="M93.9,0v500.4v241.9c0,51.2-41.5,92.7-92.7,92.7c-0.4,0-0.8,0-1.2,0v166.3c0.4,0,0.8,0,1.2,0
				c143,0,259-116,259-259V0H93.9z"/>
		</g>
	</g>
</g>
<g>
	<polygon class="st10" points="1695.6,818.4 1661.8,818.4 1669.6,781.5 1791.8,781.5 1783.8,818.4 1749.9,818.4 1728.7,918.9 
		1674.2,918.9 	"/>
	<polygon class="st11" points="1709.4,801.5 1645.8,801.5 1659.2,742.3 1722.9,742.3 	"/>
</g>
</svg>
