<?xml version="1.0" encoding="utf-8"?>
<!-- Generator: Adobe Illustrator 25.1.0, SVG Export Plug-In . SVG Version: 6.00 Build 0)  -->
<svg version="1.1"
	 id="svg8" inkscape:export-filename="C:\Users\xine\Documents\2018-debian-buster\futurePrototype-source\desktop-wallpaper\png\wallpaper-1920x1080.png" inkscape:export-xdpi="96" inkscape:export-ydpi="96" inkscape:version="0.92.4 (5da689c313, 2019-01-14)" sodipodi:docname="2560x1440.svg" xmlns:cc="http://creativecommons.org/ns#" xmlns:dc="http://purl.org/dc/elements/1.1/" xmlns:inkscape="http://www.inkscape.org/namespaces/inkscape" xmlns:rdf="http://www.w3.org/1999/02/22-rdf-syntax-ns#" xmlns:sodipodi="http://sodipodi.sourceforge.net/DTD/sodipodi-0.dtd" xmlns:svg="http://www.w3.org/2000/svg"
	 xmlns="http://www.w3.org/2000/svg" xmlns:xlink="http://www.w3.org/1999/xlink" x="0px" y="0px" viewBox="0 0 2560 1440"
	 style="enable-background:new 0 0 2560 1440;" xml:space="preserve">
<style type="text/css">
	.st0{fill:#082E66;}
	.st1{opacity:0.4;fill:#123777;enable-background:new    ;}
	.st2{opacity:0.15;fill:#7793C4;enable-background:new    ;}
	.st3{opacity:0.1;fill:#7793C4;enable-background:new    ;}
	.st4{opacity:0.1;enable-background:new    ;}
	.st5{fill:#325DA8;}
	.st6{opacity:0.15;}
	.st7{fill:#1944A4;}
	.st8{opacity:7.000000e-02;fill:#FFFFFF;enable-background:new    ;}
	.st9{opacity:0.1;fill:#FFFFFF;enable-background:new    ;}
	.st10{fill:#FFFFFF;}
	.st11{fill:#D90000;}
</style>
<sodipodi:namedview  bordercolor="#b20eb2" borderlayer="true" borderopacity="1" fit-margin-bottom="0" fit-margin-left="0" fit-margin-right="0" fit-margin-top="0" id="base" inkscape:bbox-nodes="true" inkscape:bbox-paths="true" inkscape:current-layer="layer1" inkscape:cx="1441.3921" inkscape:cy="714.70834" inkscape:document-units="px" inkscape:object-paths="true" inkscape:pageopacity="0.0" inkscape:pageshadow="2" inkscape:showpageshadow="false" inkscape:snap-bbox="true" inkscape:snap-bbox-edge-midpoints="true" inkscape:snap-bbox-midpoints="true" inkscape:snap-global="true" inkscape:snap-intersection-paths="true" inkscape:snap-nodes="true" inkscape:snap-others="true" inkscape:snap-page="true" inkscape:snap-smooth-nodes="true" inkscape:window-height="1008" inkscape:window-maximized="1" inkscape:window-width="1920" inkscape:window-x="0" inkscape:window-y="36" inkscape:zoom="0.30371095" pagecolor="#ffffff" scale-x="0.19844" showborder="true" showgrid="false" units="px" viewbox-x="-6.61">
	</sodipodi:namedview>
<g id="layer2" transform="translate(107.24443,-238.125)" inkscape:groupmode="layer" inkscape:label="back">
</g>
<g>
	<rect class="st0" width="2560" height="1440"/>
	<g>
		<g>
			<polygon class="st1" points="1278.7,0 2278,686 2560,275.1 2560,0 			"/>
		</g>
		<path class="st2" d="M1469.2,0c0.5,12.7,0.9,25.3,0.9,38.1c0,439.1-355.9,794.9-794.9,794.9C390.3,833.1,140.4,683.2,0,457.9V0
			H1469.2z"/>
		<path class="st3" d="M2560,1200.3c-44.5,41.3-78.4,98.8-83.3,163.1h-648c9.2-430.1,321.2-785.7,731.3-862.1V1200.3z"/>
		<rect x="1495.3" y="1123.7" class="st4" width="472.3" height="24"/>
		<g>
			<polygon class="st5" points="1639.6,248.3 1499.2,491.5 1502.9,497.9 1647.1,248.3 			"/>
			<polygon class="st5" points="1514,517.1 1669.2,248.3 1661.7,248.3 1510.3,510.7 			"/>
			<polygon class="st5" points="1525.1,536.3 1691.3,248.3 1684,248.3 1521.3,529.9 			"/>
			<polygon class="st5" points="1536.1,555.5 1713.6,248.3 1706.1,248.3 1532.4,549.1 			"/>
			<polygon class="st5" points="1547.2,574.7 1735.7,248.3 1728.3,248.3 1543.6,568.1 			"/>
			<polygon class="st5" points="1558.4,593.9 1757.9,248.3 1750.4,248.3 1554.7,587.3 			"/>
			<polygon class="st5" points="1569.5,613.1 1780,248.3 1772.7,248.3 1565.7,606.5 			"/>
			<polygon class="st5" points="1580.5,632.3 1802.3,248.3 1794.8,248.3 1576.8,625.7 			"/>
			<polygon class="st5" points="1591.6,651.5 1824.4,248.3 1816.9,248.3 1587.9,644.9 			"/>
			<polygon class="st5" points="1602.7,670.7 1846.5,248.3 1839.1,248.3 1598.9,664.1 			"/>
			<polygon class="st5" points="1613.7,689.9 1868.7,248.3 1861.3,248.3 1610,683.3 			"/>
			<polygon class="st5" points="1624.8,709.1 1890.9,248.3 1883.5,248.3 1621.1,702.5 			"/>
			<polygon class="st5" points="1635.9,728.3 1913.1,248.3 1905.6,248.3 1632.3,721.7 			"/>
			<polygon class="st5" points="1654.4,734.5 1927.9,261.1 1924.1,254.5 1646.9,734.5 			"/>
			<polygon class="st5" points="1676.5,734.5 1938.9,280.3 1935.2,273.7 1669.2,734.5 			"/>
			<polygon class="st5" points="1698.8,734.5 1950,299.5 1946.3,292.9 1691.3,734.5 			"/>
			<polygon class="st5" points="1720.9,734.5 1961.1,318.7 1957.3,312.1 1713.5,734.5 			"/>
			<polygon class="st5" points="1743.1,734.5 1972.1,337.9 1968.4,331.3 1735.6,734.5 			"/>
			<polygon class="st5" points="1765.2,734.5 1983.2,357.1 1979.5,350.5 1757.9,734.5 			"/>
			<polygon class="st5" points="1787.5,734.5 1994.3,376.3 1990.7,369.7 1780,734.5 			"/>
			<polygon class="st5" points="1809.6,734.5 2005.5,395.5 2001.7,388.9 1802.1,734.5 			"/>
			<polygon class="st5" points="1831.7,734.5 2016.5,414.7 2012.8,408.1 1824.3,734.5 			"/>
			<polygon class="st5" points="1853.9,734.5 2027.6,433.9 2023.9,427.3 1846.5,734.5 			"/>
			<polygon class="st5" points="1876.1,734.5 2038.7,453.1 2034.9,446.5 1868.7,734.5 			"/>
			<polygon class="st5" points="1898.3,734.5 2049.7,472.3 2046,465.7 1890.8,734.5 			"/>
			<polygon class="st5" points="1920.4,734.5 2060.8,491.5 2057.1,484.9 1912.9,734.5 			"/>
		</g>
		<g class="st6">
			<polygon points="1057.9,1244.7 944.9,1440 954.3,1440 1067.1,1244.7 			"/>
			<polygon points="1085.6,1244.7 972.8,1440 982.1,1440 1094.9,1244.7 			"/>
			<polygon points="1113.3,1244.7 1000.5,1440 1009.9,1440 1122.7,1244.7 			"/>
			<polygon points="1141.1,1244.7 1028.3,1440 1037.6,1440 1150.4,1244.7 			"/>
			<polygon points="1168.9,1244.7 1056.1,1440 1065.3,1440 1178.1,1244.7 			"/>
			<polygon points="1196.7,1244.7 1083.9,1440 1093.2,1440 1206,1244.7 			"/>
			<polygon points="1224.4,1244.7 1111.6,1440 1120.9,1440 1233.7,1244.7 			"/>
			<polygon points="1252.1,1244.7 1139.3,1440 1148.7,1440 1261.5,1244.7 			"/>
			<polygon points="1280,1244.7 1167.2,1440 1176.4,1440 1289.2,1244.7 			"/>
			<polygon points="1307.7,1244.7 1194.9,1440 1204.3,1440 1317.1,1244.7 			"/>
			<polygon points="1335.5,1244.7 1222.7,1440 1232,1440 1344.8,1244.7 			"/>
			<polygon points="1363.2,1244.7 1250.4,1440 1259.7,1440 1372.5,1244.7 			"/>
			<polygon points="1391.1,1244.7 1278.3,1440 1287.5,1440 1400.3,1244.7 			"/>
			<polygon points="1414.1,1252.7 1306,1440 1315.3,1440 1418.8,1260.8 			"/>
			<polygon points="1428,1276.7 1333.7,1440 1343.1,1440 1432.7,1284.9 			"/>
			<polygon points="1442,1300.8 1361.6,1440 1370.8,1440 1446.5,1308.9 			"/>
			<polygon points="1455.9,1324.8 1389.3,1440 1398.7,1440 1460.5,1333.1 			"/>
			<polygon points="1469.7,1348.9 1417.1,1440 1426.5,1440 1474.4,1357.1 			"/>
			<polygon points="1483.6,1372.9 1444.8,1440 1454.3,1440 1488.3,1381.1 			"/>
			<polygon points="1497.5,1396.9 1472.5,1440 1481.9,1440 1502.1,1405.1 			"/>
			<polygon points="1516,1429.1 1511.3,1421.1 1500.4,1440 1509.6,1440 			"/>
		</g>
		<rect x="2373.1" y="348.1" class="st7" width="186.9" height="21.3"/>
		<rect y="98.3" class="st8" width="391.5" height="24"/>
		<circle class="st9" cx="1151.3" cy="747.2" r="172.9"/>
		<g>
			<polygon class="st1" points="1341.5,1167.9 156.5,884.5 23.6,1440 1276.4,1440 			"/>
		</g>
		<g>
			<path class="st4" d="M125.2,0v667.2v322.5c0,68.3-55.3,123.6-123.6,123.6c-0.5,0-1.1,0-1.6,0V1335c0.5,0,1.1,0,1.6,0
				c190.7,0,345.3-154.7,345.3-345.3V0H125.2z"/>
		</g>
	</g>
</g>
<g>
	<polygon class="st10" points="2255.9,1073 2211,1073 2221.3,1024 2383.7,1024 2373.1,1073 2328.2,1073 2299.9,1206.6 
		2227.6,1206.6 	"/>
	<polygon class="st11" points="2274.3,1050.6 2189.7,1050.6 2207.5,971.9 2292.3,971.9 	"/>
</g>
</svg>
