<?xml version="1.0" encoding="utf-8"?>
<!-- Generator: Adobe Illustrator 25.1.0, SVG Export Plug-In . SVG Version: 6.00 Build 0)  -->
<svg version="1.1"
	 id="svg8" inkscape:export-filename="C:\Users\xine\Documents\2018-debian-buster\futurePrototype-source\desktop-wallpaper\png\wallpaper-2560x1080.png" inkscape:export-xdpi="96" inkscape:export-ydpi="96" inkscape:version="0.92.4 (5da689c313, 2019-01-14)" sodipodi:docname="2560x1080.svg" xmlns:cc="http://creativecommons.org/ns#" xmlns:dc="http://purl.org/dc/elements/1.1/" xmlns:inkscape="http://www.inkscape.org/namespaces/inkscape" xmlns:rdf="http://www.w3.org/1999/02/22-rdf-syntax-ns#" xmlns:sodipodi="http://sodipodi.sourceforge.net/DTD/sodipodi-0.dtd" xmlns:svg="http://www.w3.org/2000/svg"
	 xmlns="http://www.w3.org/2000/svg" xmlns:xlink="http://www.w3.org/1999/xlink" x="0px" y="0px" viewBox="0 0 2560 1080"
	 style="enable-background:new 0 0 2560 1080;" xml:space="preserve">
<style type="text/css">
	.st0{clip-path:url(#SVGID_2_);}
	.st1{fill:#082E66;}
	.st2{opacity:0.4;fill:#123777;enable-background:new    ;}
	.st3{opacity:0.15;fill:#7793C4;enable-background:new    ;}
	.st4{opacity:0.1;fill:#7793C4;enable-background:new    ;}
	.st5{opacity:0.1;enable-background:new    ;}
	.st6{fill:#325DA8;}
	.st7{opacity:0.15;}
	.st8{fill:#1944A4;}
	.st9{opacity:7.000000e-02;fill:#FFFFFF;enable-background:new    ;}
	.st10{opacity:0.1;fill:#FFFFFF;enable-background:new    ;}
	.st11{fill:#FFFFFF;}
	.st12{fill:#D90000;}
</style>
<sodipodi:namedview  bordercolor="#b20eb2" borderlayer="true" borderopacity="1" id="base" inkscape:bbox-nodes="true" inkscape:bbox-paths="true" inkscape:current-layer="layer3" inkscape:cx="-121.57829" inkscape:cy="876.45703" inkscape:document-units="px" inkscape:object-paths="true" inkscape:pageopacity="0.0" inkscape:pageshadow="2" inkscape:showpageshadow="false" inkscape:snap-bbox="true" inkscape:snap-bbox-edge-midpoints="true" inkscape:snap-bbox-midpoints="true" inkscape:snap-global="true" inkscape:snap-intersection-paths="true" inkscape:snap-nodes="true" inkscape:snap-others="true" inkscape:snap-page="true" inkscape:snap-smooth-nodes="true" inkscape:window-height="1008" inkscape:window-maximized="1" inkscape:window-width="1920" inkscape:window-x="0" inkscape:window-y="36" inkscape:zoom="0.21676817" pagecolor="#ffffff" showborder="true" showgrid="false" units="px">
	</sodipodi:namedview>
<g>
	<g>
		<g>
			<defs>
				<rect id="SVGID_1_" width="2560" height="1080"/>
			</defs>
			<clipPath id="SVGID_2_">
				<use xlink:href="#SVGID_1_"  style="overflow:visible;"/>
			</clipPath>
			<g class="st0">
				<rect y="-208" class="st1" width="2560" height="1440"/>
				<g>
					<g>
						<polygon class="st2" points="1278.7,-208 2278,478 2560,67.1 2560,-208 						"/>
					</g>
					<path class="st3" d="M1469.2-208c0.5,12.7,0.9,25.3,0.9,38.1c0,439.1-355.9,794.9-794.9,794.9C390.3,625.1,140.4,475.2,0,249.9
						V-208H1469.2z"/>
					<path class="st4" d="M2560,992.3c-44.5,41.3-78.4,98.8-83.3,163.1h-648c9.2-430.1,321.2-785.7,731.3-862.1V992.3z"/>
					<rect x="1495.3" y="915.7" class="st5" width="472.3" height="24"/>
					<g>
						<polygon class="st6" points="1639.6,40.3 1499.2,283.5 1502.9,289.9 1647.1,40.3 						"/>
						<polygon class="st6" points="1514,309.1 1669.2,40.3 1661.7,40.3 1510.3,302.7 						"/>
						<polygon class="st6" points="1525.1,328.3 1691.3,40.3 1684,40.3 1521.3,321.9 						"/>
						<polygon class="st6" points="1536.1,347.5 1713.6,40.3 1706.1,40.3 1532.4,341.1 						"/>
						<polygon class="st6" points="1547.2,366.7 1735.7,40.3 1728.3,40.3 1543.6,360.1 						"/>
						<polygon class="st6" points="1558.4,385.9 1757.9,40.3 1750.4,40.3 1554.7,379.3 						"/>
						<polygon class="st6" points="1569.5,405.1 1780,40.3 1772.7,40.3 1565.7,398.5 						"/>
						<polygon class="st6" points="1580.5,424.3 1802.3,40.3 1794.8,40.3 1576.8,417.7 						"/>
						<polygon class="st6" points="1591.6,443.5 1824.4,40.3 1816.9,40.3 1587.9,436.9 						"/>
						<polygon class="st6" points="1602.7,462.7 1846.5,40.3 1839.1,40.3 1598.9,456.1 						"/>
						<polygon class="st6" points="1613.7,481.9 1868.7,40.3 1861.3,40.3 1610,475.3 						"/>
						<polygon class="st6" points="1624.8,501.1 1890.9,40.3 1883.5,40.3 1621.1,494.5 						"/>
						<polygon class="st6" points="1635.9,520.3 1913.1,40.3 1905.6,40.3 1632.3,513.7 						"/>
						<polygon class="st6" points="1654.4,526.5 1927.9,53.1 1924.1,46.5 1646.9,526.5 						"/>
						<polygon class="st6" points="1676.5,526.5 1938.9,72.3 1935.2,65.7 1669.2,526.5 						"/>
						<polygon class="st6" points="1698.8,526.5 1950,91.5 1946.3,84.9 1691.3,526.5 						"/>
						<polygon class="st6" points="1720.9,526.5 1961.1,110.7 1957.3,104.1 1713.5,526.5 						"/>
						<polygon class="st6" points="1743.1,526.5 1972.1,129.9 1968.4,123.3 1735.6,526.5 						"/>
						<polygon class="st6" points="1765.2,526.5 1983.2,149.1 1979.5,142.5 1757.9,526.5 						"/>
						<polygon class="st6" points="1787.5,526.5 1994.3,168.3 1990.7,161.7 1780,526.5 						"/>
						<polygon class="st6" points="1809.6,526.5 2005.5,187.5 2001.7,180.9 1802.1,526.5 						"/>
						<polygon class="st6" points="1831.7,526.5 2016.5,206.7 2012.8,200.1 1824.3,526.5 						"/>
						<polygon class="st6" points="1853.9,526.5 2027.6,225.9 2023.9,219.3 1846.5,526.5 						"/>
						<polygon class="st6" points="1876.1,526.5 2038.7,245.1 2034.9,238.5 1868.7,526.5 						"/>
						<polygon class="st6" points="1898.3,526.5 2049.7,264.3 2046,257.7 1890.8,526.5 						"/>
						<polygon class="st6" points="1920.4,526.5 2060.8,283.5 2057.1,276.9 1912.9,526.5 						"/>
					</g>
					<g class="st7">
						<polygon points="1057.9,1036.7 944.9,1232 954.3,1232 1067.1,1036.7 						"/>
						<polygon points="1085.6,1036.7 972.8,1232 982.1,1232 1094.9,1036.7 						"/>
						<polygon points="1113.3,1036.7 1000.5,1232 1009.9,1232 1122.7,1036.7 						"/>
						<polygon points="1141.1,1036.7 1028.3,1232 1037.6,1232 1150.4,1036.7 						"/>
						<polygon points="1168.9,1036.7 1056.1,1232 1065.3,1232 1178.1,1036.7 						"/>
						<polygon points="1196.7,1036.7 1083.9,1232 1093.2,1232 1206,1036.7 						"/>
						<polygon points="1224.4,1036.7 1111.6,1232 1120.9,1232 1233.7,1036.7 						"/>
						<polygon points="1252.1,1036.7 1139.3,1232 1148.7,1232 1261.5,1036.7 						"/>
						<polygon points="1280,1036.7 1167.2,1232 1176.4,1232 1289.2,1036.7 						"/>
						<polygon points="1307.7,1036.7 1194.9,1232 1204.3,1232 1317.1,1036.7 						"/>
						<polygon points="1335.5,1036.7 1222.7,1232 1232,1232 1344.8,1036.7 						"/>
						<polygon points="1363.2,1036.7 1250.4,1232 1259.7,1232 1372.5,1036.7 						"/>
						<polygon points="1391.1,1036.7 1278.3,1232 1287.5,1232 1400.3,1036.7 						"/>
						<polygon points="1414.1,1044.7 1306,1232 1315.3,1232 1418.8,1052.8 						"/>
						<polygon points="1428,1068.7 1333.7,1232 1343.1,1232 1432.7,1076.9 						"/>
						<polygon points="1442,1092.8 1361.6,1232 1370.8,1232 1446.5,1100.9 						"/>
						<polygon points="1455.9,1116.8 1389.3,1232 1398.7,1232 1460.5,1125.1 						"/>
						<polygon points="1469.7,1140.9 1417.1,1232 1426.5,1232 1474.4,1149.1 						"/>
						<polygon points="1483.6,1164.9 1444.8,1232 1454.3,1232 1488.3,1173.1 						"/>
						<polygon points="1497.5,1188.9 1472.5,1232 1481.9,1232 1502.1,1197.1 						"/>
						<polygon points="1516,1221.1 1511.3,1213.1 1500.4,1232 1509.6,1232 						"/>
					</g>
					<rect x="2373.1" y="140.1" class="st8" width="186.9" height="21.3"/>
					<rect y="-109.7" class="st9" width="391.5" height="24"/>
					<circle class="st10" cx="1151.3" cy="539.2" r="172.9"/>
					<g>
						<polygon class="st2" points="1341.5,959.9 156.5,676.5 23.6,1232 1276.4,1232 						"/>
					</g>
					<g>
						<path class="st5" d="M125.2-208v667.2v322.5c0,68.3-55.3,123.6-123.6,123.6c-0.5,0-1.1,0-1.6,0V1127c0.5,0,1.1,0,1.6,0
							c190.7,0,345.3-154.7,345.3-345.3V-208H125.2z"/>
					</g>
				</g>
			</g>
		</g>
	</g>
</g>
<g>
	<polygon class="st11" points="2324.1,818.4 2290.3,818.4 2298.1,781.5 2420.3,781.5 2412.3,818.4 2378.5,818.4 2357.2,918.9 
		2302.8,918.9 	"/>
	<polygon class="st12" points="2338,801.5 2274.3,801.5 2287.7,742.3 2351.5,742.3 	"/>
</g>
</svg>
