<?xml version="1.0" encoding="utf-8"?>
<!-- Generator: Adobe Illustrator 25.1.0, SVG Export Plug-In . SVG Version: 6.00 Build 0)  -->
<svg version="1.1"
	 id="svg8" inkscape:export-filename="C:\Users\xine\Documents\2018-debian-buster\futurePrototype\futurePrototype-wallpaper-02-4096x2160.png" inkscape:export-xdpi="96" inkscape:export-ydpi="96" inkscape:version="0.92.4 (5da689c313, 2019-01-14)" sodipodi:docname="3840x2160.svg" xmlns:cc="http://creativecommons.org/ns#" xmlns:dc="http://purl.org/dc/elements/1.1/" xmlns:inkscape="http://www.inkscape.org/namespaces/inkscape" xmlns:rdf="http://www.w3.org/1999/02/22-rdf-syntax-ns#" xmlns:sodipodi="http://sodipodi.sourceforge.net/DTD/sodipodi-0.dtd" xmlns:svg="http://www.w3.org/2000/svg"
	 xmlns="http://www.w3.org/2000/svg" xmlns:xlink="http://www.w3.org/1999/xlink" x="0px" y="0px" viewBox="0 0 3840 2160"
	 style="enable-background:new 0 0 3840 2160;" xml:space="preserve">
<style type="text/css">
	.st0{fill:#082E66;}
	.st1{opacity:0.4;fill:#123777;enable-background:new    ;}
	.st2{opacity:0.15;fill:#7793C4;enable-background:new    ;}
	.st3{opacity:0.1;fill:#7793C4;enable-background:new    ;}
	.st4{opacity:0.1;enable-background:new    ;}
	.st5{fill:#325DA8;}
	.st6{opacity:0.15;}
	.st7{fill:#1944A4;}
	.st8{opacity:7.000000e-02;fill:#FFFFFF;enable-background:new    ;}
	.st9{opacity:0.1;fill:#FFFFFF;enable-background:new    ;}
	.st10{fill:#FFFFFF;}
	.st11{fill:#D90000;}
</style>
<sodipodi:namedview  bordercolor="#b20eb2" borderlayer="true" borderopacity="1" fit-margin-bottom="0" fit-margin-left="0" fit-margin-right="0" fit-margin-top="0" id="base" inkscape:bbox-nodes="true" inkscape:bbox-paths="true" inkscape:current-layer="layer3" inkscape:cx="836.24896" inkscape:cy="874.07061" inkscape:document-units="px" inkscape:object-paths="true" inkscape:pageopacity="0.0" inkscape:pageshadow="2" inkscape:showpageshadow="false" inkscape:snap-bbox="true" inkscape:snap-bbox-edge-midpoints="true" inkscape:snap-bbox-midpoints="true" inkscape:snap-global="false" inkscape:snap-intersection-paths="true" inkscape:snap-nodes="true" inkscape:snap-others="true" inkscape:snap-page="true" inkscape:snap-smooth-nodes="true" inkscape:window-height="1008" inkscape:window-maximized="1" inkscape:window-width="1920" inkscape:window-x="0" inkscape:window-y="36" inkscape:zoom="0.21475607" pagecolor="#ffffff" showborder="true" showgrid="false" units="px" viewbox-x="33.87">
	</sodipodi:namedview>
<g>
	<rect class="st0" width="3840" height="2160"/>
	<g>
		<g>
			<polygon class="st1" points="1918,0 3417,1029 3840,412.6 3840,0 			"/>
		</g>
		<path class="st2" d="M2203.8,0c0.8,19,1.4,38,1.4,57.2c0,658.6-533.8,1192.4-1192.4,1192.4c-427.4,0-802.2-224.8-1012.8-562.8V0
			H2203.8z"/>
		<path class="st3" d="M3840,1800.4c-66.8,62-117.6,148.2-125,244.6h-972c13.8-645.2,481.8-1178.6,1097-1293.2V1800.4z"/>
		<rect x="2243" y="1685.6" class="st4" width="708.4" height="36"/>
		<g>
			<polygon class="st5" points="2459.4,372.4 2248.8,737.2 2254.4,746.8 2470.6,372.4 			"/>
			<polygon class="st5" points="2271,775.6 2503.8,372.4 2492.6,372.4 2265.4,766 			"/>
			<polygon class="st5" points="2287.6,804.4 2537,372.4 2526,372.4 2282,794.8 			"/>
			<polygon class="st5" points="2304.2,833.2 2570.4,372.4 2559.2,372.4 2298.6,823.6 			"/>
			<polygon class="st5" points="2320.8,862 2603.6,372.4 2592.4,372.4 2315.4,852.2 			"/>
			<polygon class="st5" points="2337.6,890.8 2636.8,372.4 2625.6,372.4 2332,881 			"/>
			<polygon class="st5" points="2354.2,919.6 2670,372.4 2659,372.4 2348.6,909.8 			"/>
			<polygon class="st5" points="2370.8,948.4 2703.4,372.4 2692.2,372.4 2365.2,938.6 			"/>
			<polygon class="st5" points="2387.4,977.2 2736.6,372.4 2725.4,372.4 2381.8,967.4 			"/>
			<polygon class="st5" points="2404,1006 2769.8,372.4 2758.6,372.4 2398.4,996.2 			"/>
			<polygon class="st5" points="2420.6,1034.8 2803,372.4 2792,372.4 2415,1025 			"/>
			<polygon class="st5" points="2437.2,1063.6 2836.4,372.4 2825.2,372.4 2431.6,1053.8 			"/>
			<polygon class="st5" points="2453.8,1092.4 2869.6,372.4 2858.4,372.4 2448.4,1082.6 			"/>
			<polygon class="st5" points="2481.6,1101.8 2891.8,391.6 2886.2,381.8 2470.4,1101.8 			"/>
			<polygon class="st5" points="2514.8,1101.8 2908.4,420.4 2902.8,410.6 2503.8,1101.8 			"/>
			<polygon class="st5" points="2548.2,1101.8 2925,449.2 2919.4,439.4 2537,1101.8 			"/>
			<polygon class="st5" points="2581.4,1101.8 2941.6,478 2936,468.2 2570.2,1101.8 			"/>
			<polygon class="st5" points="2614.6,1101.8 2958.2,506.8 2952.6,497 2603.4,1101.8 			"/>
			<polygon class="st5" points="2647.8,1101.8 2974.8,535.6 2969.2,525.8 2636.8,1101.8 			"/>
			<polygon class="st5" points="2681.2,1101.8 2991.4,564.4 2986,554.6 2670,1101.8 			"/>
			<polygon class="st5" points="2714.4,1101.8 3008.2,593.2 3002.6,583.4 2703.2,1101.8 			"/>
			<polygon class="st5" points="2747.6,1101.8 3024.8,622 3019.2,612.2 2736.4,1101.8 			"/>
			<polygon class="st5" points="2780.8,1101.8 3041.4,650.8 3035.8,641 2769.8,1101.8 			"/>
			<polygon class="st5" points="2814.2,1101.8 3058,679.6 3052.4,669.8 2803,1101.8 			"/>
			<polygon class="st5" points="2847.4,1101.8 3074.6,708.4 3069,698.6 2836.2,1101.8 			"/>
			<polygon class="st5" points="2880.6,1101.8 3091.2,737.2 3085.6,727.4 2869.4,1101.8 			"/>
		</g>
		<g class="st6">
			<polygon points="1586.8,1867 1417.4,2160 1431.4,2160 1600.6,1867 			"/>
			<polygon points="1628.4,1867 1459.2,2160 1473.2,2160 1642.4,1867 			"/>
			<polygon points="1670,1867 1500.8,2160 1514.8,2160 1684,1867 			"/>
			<polygon points="1711.6,1867 1542.4,2160 1556.4,2160 1725.6,1867 			"/>
			<polygon points="1753.4,1867 1584.2,2160 1598,2160 1767.2,1867 			"/>
			<polygon points="1795,1867 1625.8,2160 1639.8,2160 1809,1867 			"/>
			<polygon points="1836.6,1867 1667.4,2160 1681.4,2160 1850.6,1867 			"/>
			<polygon points="1878.2,1867 1709,2160 1723,2160 1892.2,1867 			"/>
			<polygon points="1920,1867 1750.8,2160 1764.6,2160 1933.8,1867 			"/>
			<polygon points="1961.6,1867 1792.4,2160 1806.4,2160 1975.6,1867 			"/>
			<polygon points="2003.2,1867 1834,2160 1848,2160 2017.2,1867 			"/>
			<polygon points="2044.8,1867 1875.6,2160 1889.6,2160 2058.8,1867 			"/>
			<polygon points="2086.6,1867 1917.4,2160 1931.2,2160 2100.4,1867 			"/>
			<polygon points="2121.2,1879 1959,2160 1973,2160 2128.2,1891.2 			"/>
			<polygon points="2142,1915 2000.6,2160 2014.6,2160 2149,1927.4 			"/>
			<polygon points="2163,1951.2 2042.4,2160 2056.2,2160 2169.8,1963.4 			"/>
			<polygon points="2183.8,1987.2 2084,2160 2098,2160 2190.8,1999.6 			"/>
			<polygon points="2204.6,2023.4 2125.6,2160 2139.8,2160 2211.6,2035.6 			"/>
			<polygon points="2225.4,2059.4 2167.2,2160 2181.4,2160 2232.4,2071.6 			"/>
			<polygon points="2246.2,2095.4 2208.8,2160 2222.8,2160 2253.2,2107.6 			"/>
			<polygon points="2274,2143.6 2267,2131.6 2250.6,2160 2264.4,2160 			"/>
		</g>
		<rect x="3559.6" y="522.2" class="st7" width="280.4" height="32"/>
		<rect y="147.4" class="st8" width="587.2" height="36"/>
		<circle class="st9" cx="1727" cy="1120.8" r="259.4"/>
		<g>
			<polygon class="st1" points="2012.2,1751.8 234.8,1326.8 35.4,2160 1914.6,2160 			"/>
		</g>
		<g>
			<path class="st4" d="M187.8,0v1000.8v483.8c0,102.4-83,185.4-185.4,185.4c-0.8,0-1.6,0-2.4,0v332.6c0.8,0,1.6,0,2.4,0
				c286,0,518-232,518-518V0H187.8z"/>
		</g>
	</g>
</g>
<g>
	<polygon class="st10" points="3391.6,1661.1 3323.7,1661.1 3339.3,1586.9 3584.9,1586.9 3568.8,1661.1 3500.9,1661.1 
		3458.1,1863.1 3348.8,1863.1 	"/>
	<polygon class="st11" points="3419.5,1627.1 3291.5,1627.1 3318.4,1508.1 3446.7,1508.1 	"/>
</g>
</svg>
