<?xml version="1.0" encoding="utf-8"?>
<!-- Generator: Adobe Illustrator 25.1.0, SVG Export Plug-In . SVG Version: 6.00 Build 0)  -->
<svg version="1.1"
	 id="svg797" inkscape:export-filename="C:\Users\xine\Documents\2018-debian-buster\futurePrototype-source\cd-dvd\png\cd-cover.png" inkscape:export-xdpi="96" inkscape:export-ydpi="96" inkscape:version="0.92.2 (5c3e80d, 2017-08-06)" sodipodi:docname="cd-cover.svg" xmlns:cc="http://creativecommons.org/ns#" xmlns:dc="http://purl.org/dc/elements/1.1/" xmlns:inkscape="http://www.inkscape.org/namespaces/inkscape" xmlns:ns2="http://ns.adobe.com/AdobeIllustrator/10.0/" xmlns:rdf="http://www.w3.org/1999/02/22-rdf-syntax-ns#" xmlns:sodipodi="http://sodipodi.sourceforge.net/DTD/sodipodi-0.dtd" xmlns:svg="http://www.w3.org/2000/svg"
	 xmlns="http://www.w3.org/2000/svg" xmlns:xlink="http://www.w3.org/1999/xlink" x="0px" y="0px" viewBox="0 0 842 595"
	 style="enable-background:new 0 0 842 595;" xml:space="preserve">
<style type="text/css">
	.st0{fill:#CCCCCC;}
	.st1{fill:none;stroke:#000000;stroke-width:0.1;stroke-miterlimit:10;}
	.st2{font-family:'ArialMT';}
	.st3{font-size:8px;}
	.st4{fill:none;stroke:#000000;stroke-width:0.4;stroke-miterlimit:10;stroke-dasharray:4,7;stroke-dashoffset:4;}
	.st5{font-family:'Arial-BoldMT';}
	.st6{font-size:30px;}
	.st7{font-size:10px;}
	.st8{font-size:12px;}
	.st9{clip-path:url(#SVGID_2_);fill:#082E66;}
	.st10{clip-path:url(#SVGID_2_);}
	.st11{opacity:0.4;fill:#123777;enable-background:new    ;}
	.st12{opacity:0.15;fill:#7793C4;enable-background:new    ;}
	.st13{opacity:0.1;fill:#7793C4;enable-background:new    ;}
	.st14{opacity:0.1;enable-background:new    ;}
	.st15{fill:#325DA8;}
	.st16{opacity:0.15;}
	.st17{fill:#1944A4;}
	.st18{opacity:7.000000e-02;fill:#FFFFFF;enable-background:new    ;}
	.st19{opacity:0.1;fill:#FFFFFF;enable-background:new    ;}
	.st20{clip-path:url(#SVGID_4_);fill:none;stroke:#000000;stroke-width:0.1;stroke-miterlimit:10;}
	.st21{fill:#051930;}
	.st22{clip-path:url(#SVGID_6_);fill:#082E66;}
	.st23{clip-path:url(#SVGID_6_);}
	.st24{fill:#FFFFFF;}
	.st25{fill:#D90000;}
</style>
<sodipodi:namedview  bordercolor="#666666" borderopacity="1" gridtolerance="10" guidetolerance="10" id="namedview799" inkscape:bbox-nodes="true" inkscape:bbox-paths="true" inkscape:current-layer="svg797" inkscape:cx="426.09198" inkscape:cy="221.69477" inkscape:pageopacity="0" inkscape:pageshadow="2" inkscape:snap-bbox="true" inkscape:snap-bbox-edge-midpoints="true" inkscape:snap-bbox-midpoints="true" inkscape:snap-page="true" inkscape:window-height="1017" inkscape:window-maximized="1" inkscape:window-width="1920" inkscape:window-x="-8" inkscape:window-y="-8" inkscape:zoom="1" objecttolerance="10" pagecolor="#ffffff" showgrid="false">
	</sodipodi:namedview>
<path id="path2" class="st0" d="M651.6,325.2c-4.5,0.1,0.8,2.3,6.7,3.2c1.6-1.3,3.1-2.5,4.4-3.8
	C659.1,325.5,655.4,325.5,651.6,325.2"/>
<path id="path4" class="st0" d="M675.7,319.2c2.7-3.7,4.6-7.7,5.3-11.9c-0.6,3-2.2,5.6-3.7,8.3c-8.4,5.3-0.8-3.1,0-6.3
	C668.3,320.6,676.1,316,675.7,319.2"/>
<path id="path6" class="st0" d="M684.6,296c0.5-8.1-1.6-5.5-2.3-2.4C683.2,294,683.8,299.3,684.6,296"/>
<path id="path14" class="st0" d="M602.6,331.4l-0.6,3.1c3,4,5.3,8.4,9.1,11.5C608.3,340.7,606.3,338.5,602.6,331.4"/>
<path id="path16" class="st0" d="M609.6,331.1c-1.6-1.7-2.5-3.8-3.5-5.9c1,3.6,3,6.8,4.9,10L609.6,331.1"/>
<path id="path18" class="st0" d="M733.1,304.3l-0.7,1.7c-1.2,8.6-3.8,17.1-7.8,25C729,322.6,731.9,313.5,733.1,304.3"/>
<path id="path22" class="st0" d="M528.8,240c0.7,6.5-4.9,9,1.2,4.7C533.4,237.4,528.8,242.7,528.8,240"/>
<path id="path24" class="st0" d="M521.7,270c1.4-4.3,1.7-6.9,2.2-9.4C520,265.6,522.1,266.6,521.7,270"/>
<rect id="rect72" x="34.7" y="38.7" class="st1" width="366.8" height="517.5"/>
<text transform="matrix(1 0 0 1 41.8689 53.8923)" class="st2 st3">For</text>
<text transform="matrix(1 0 0 1 57.6359 53.8923)" class="st2 st3">more</text>
<text transform="matrix(1 0 0 1 79.6289 53.8923)" class="st2 st3">information</text>
<text transform="matrix(1 0 0 1 183.1879 53.8923)" class="st2 st3">the</text>
<text transform="matrix(1 0 0 1 198.0759 53.8923)" class="st2 st3">operating</text>
<text transform="matrix(1 0 0 1 235.2019 53.8923)" class="st2 st3">system</text>
<text transform="matrix(1 0 0 1 264.3039 53.8923)" class="st2 st3">and</text>
<text transform="matrix(1 0 0 1 281.4179 53.8923)" class="st2 st3">software</text>
<text transform="matrix(1 0 0 1 315.4189 53.8923)" class="st2 st3"> on</text>
<text transform="matrix(1 0 0 1 330.3069 53.8923)" class="st2 st3">it</text>
<text transform="matrix(1 0 0 1 338.0739 53.8923)" class="st2 st3">and</text>
<text transform="matrix(1 0 0 1 355.1879 53.8923)" class="st2 st3">Debian</text>
<text transform="matrix(1 0 0 1 384.3059 53.8923)" class="st2 st3">in </text>
<path id="path150" class="st4" d="M34.7,556.2v200 M34.7,556.2h-90"/>
<path id="path152" class="st4" d="M808.7,556.2v200 M808.7,556.2h90"/>
<path id="path154" class="st4" d="M808.7,38.7h90 M808.7,38.7v-90"/>
<path id="path156" class="st4" d="M34.7,38.7h-90 M34.7,38.7v-90"/>
<rect id="rect158" x="401.4" y="38.7" class="st1" width="40.5" height="517.5"/>
<text id="text160" transform="matrix(-4.371139e-08 1 -1 -4.371139e-08 411.4371 48.6931)" class="st5 st6">Debian GNU/Linux 8.6</text>
<text id="text162" transform="matrix(-4.371139e-08 1 -1 -4.371139e-08 411.4371 377.1189)" class="st2 st7">‘‘Jessie’’ Official amd64</text>
<text id="text164" transform="matrix(-4.371139e-08 1 -1 -4.371139e-08 411.4371 495.2078)" class="st5 st8">Binary−1</text>
<text id="text172" transform="matrix(1 0 0 1 740.4456 541.2292)" class="st5 st8">Binary−1</text>
<line id="line182" class="st4" x1="441.4" y1="561.2" x2="441.4" y2="761.2"/>
<line id="line184" class="st4" x1="441.4" y1="561.2" x2="441.4" y2="761.2"/>
<line id="line186" class="st4" x1="441.4" y1="33.7" x2="441.4" y2="-56.3"/>
<line id="line188" class="st4" x1="441.4" y1="33.7" x2="441.4" y2="-56.3"/>
<g>
	<g>
		<g>
			<defs>
				<rect id="SVGID_1_" x="441.9" y="38.7" width="366.7" height="517.5"/>
			</defs>
			<clipPath id="SVGID_2_">
				<use xlink:href="#SVGID_1_"  style="overflow:visible;"/>
			</clipPath>
			<rect x="-111.4" y="38.7" class="st9" width="920" height="517.5"/>
			<g class="st10">
				<g>
					<polygon class="st11" points="348.1,38.7 707.3,285.2 808.6,137.6 808.6,38.7 					"/>
				</g>
				<path class="st12" d="M416.6,38.7c0.2,4.6,0.3,9.1,0.3,13.7c0,157.8-127.9,285.7-285.7,285.7c-102.4,0-192.2-53.9-242.6-134.8
					V38.7H416.6z"/>
				<path class="st13" d="M808.6,470c-16,14.9-28.2,35.5-29.9,58.6H545.8c3.3-154.6,115.4-282.4,262.8-309.8V470z"/>
				<rect x="426" y="442.5" class="st14" width="169.7" height="8.6"/>
				<g>
					<polygon class="st15" points="477.8,127.9 427.4,215.3 428.7,217.6 480.5,127.9 					"/>
					<polygon class="st15" points="432.7,224.5 488.5,127.9 485.8,127.9 431.4,222.2 					"/>
					<polygon class="st15" points="436.7,231.4 496.4,127.9 493.8,127.9 435.3,229.1 					"/>
					<polygon class="st15" points="440.6,238.3 504.4,127.9 501.7,127.9 439.3,236 					"/>
					<polygon class="st15" points="444.6,245.2 512.4,127.9 509.7,127.9 443.3,242.9 					"/>
					<polygon class="st15" points="448.6,252.1 520.3,127.9 517.6,127.9 447.3,249.8 					"/>
					<polygon class="st15" points="452.6,259 528.3,127.9 525.7,127.9 451.3,256.7 					"/>
					<polygon class="st15" points="456.6,265.9 536.3,127.9 533.6,127.9 455.3,263.6 					"/>
					<polygon class="st15" points="460.6,272.8 544.2,127.9 541.6,127.9 459.2,270.5 					"/>
					<polygon class="st15" points="464.6,279.7 552.2,127.9 549.5,127.9 463.2,277.4 					"/>
					<polygon class="st15" points="468.5,286.6 560.2,127.9 557.5,127.9 467.2,284.3 					"/>
					<polygon class="st15" points="472.5,293.5 568.2,127.9 565.5,127.9 471.2,291.2 					"/>
					<polygon class="st15" points="476.5,300.4 576.1,127.9 573.4,127.9 475.2,298.1 					"/>
					<polygon class="st15" points="483.1,302.7 581.4,132.5 580.1,130.2 480.5,302.7 					"/>
					<polygon class="st15" points="491.1,302.7 585.4,139.4 584.1,137.1 488.5,302.7 					"/>
					<polygon class="st15" points="499.1,302.7 589.4,146.3 588,144 496.4,302.7 					"/>
					<polygon class="st15" points="507.1,302.7 593.4,153.2 592,150.9 504.4,302.7 					"/>
					<polygon class="st15" points="515,302.7 597.3,160.1 596,157.8 512.3,302.7 					"/>
					<polygon class="st15" points="523,302.7 601.3,167 600,164.7 520.3,302.7 					"/>
					<polygon class="st15" points="531,302.7 605.3,173.9 604,171.6 528.3,302.7 					"/>
					<polygon class="st15" points="538.9,302.7 609.3,180.8 608,178.5 536.2,302.7 					"/>
					<polygon class="st15" points="546.9,302.7 613.3,187.7 611.9,185.4 544.2,302.7 					"/>
					<polygon class="st15" points="554.8,302.7 617.3,194.6 615.9,192.3 552.2,302.7 					"/>
					<polygon class="st15" points="562.8,302.7 621.2,201.5 619.9,199.2 560.2,302.7 					"/>
					<polygon class="st15" points="570.8,302.7 625.2,208.4 623.9,206.1 568.1,302.7 					"/>
					<polygon class="st15" points="578.7,302.7 629.2,215.3 627.9,213 576.1,302.7 					"/>
				</g>
				<g class="st16">
					<polygon points="268.8,486 228.2,556.2 231.5,556.2 272.1,486 					"/>
					<polygon points="278.7,486 238.2,556.2 241.6,556.2 282.1,486 					"/>
					<polygon points="288.7,486 248.2,556.2 251.5,556.2 292.1,486 					"/>
					<polygon points="298.7,486 258.1,556.2 261.5,556.2 302,486 					"/>
					<polygon points="308.7,486 268.1,556.2 271.5,556.2 312,486 					"/>
					<polygon points="318.7,486 278.1,556.2 281.5,556.2 322,486 					"/>
					<polygon points="328.6,486 288.1,556.2 291.4,556.2 332,486 					"/>
					<polygon points="338.6,486 298,556.2 301.4,556.2 341.9,486 					"/>
					<polygon points="348.6,486 308.1,556.2 311.4,556.2 351.9,486 					"/>
					<polygon points="358.6,486 318,556.2 321.4,556.2 361.9,486 					"/>
					<polygon points="368.5,486 328,556.2 331.3,556.2 371.9,486 					"/>
					<polygon points="378.5,486 338,556.2 341.3,556.2 381.9,486 					"/>
					<polygon points="388.5,486 348,556.2 351.3,556.2 391.8,486 					"/>
					<polygon points="396.8,488.9 357.9,556.2 361.3,556.2 398.5,491.8 					"/>
					<polygon points="401.8,497.5 367.9,556.2 371.3,556.2 403.5,500.5 					"/>
					<polygon points="406.8,506.2 377.9,556.2 381.2,556.2 408.4,509.1 					"/>
					<polygon points="411.8,514.8 387.9,556.2 391.2,556.2 413.5,517.8 					"/>
					<polygon points="416.8,523.5 397.9,556.2 401.3,556.2 418.5,526.4 					"/>
					<polygon points="421.8,532.1 407.8,556.2 411.2,556.2 423.4,535 					"/>
					<polygon points="426.8,540.7 417.8,556.2 421.1,556.2 428.4,543.6 					"/>
					<polygon points="433.4,552.3 431.7,549.4 427.8,556.2 431.1,556.2 					"/>
				</g>
				<rect x="741.4" y="163.8" class="st17" width="67.2" height="7.7"/>
				<rect x="-111.4" y="74" class="st18" width="140.7" height="8.6"/>
				<circle class="st19" cx="302.4" cy="307.2" r="62.1"/>
				<g>
					<polygon class="st11" points="370.7,458.4 -55.1,356.6 -102.9,556.2 347.3,556.2 					"/>
				</g>
				<g>
					<path class="st14" d="M-66.4,38.7v239.8v115.9c0,24.5-19.9,44.4-44.4,44.4c-0.2,0-0.4,0-0.6,0v79.7c0.2,0,0.4,0,0.6,0
						c68.5,0,124.1-55.6,124.1-124.1V38.7H-66.4z"/>
				</g>
			</g>
		</g>
	</g>
	<g>
		<g>
			<defs>
				<rect id="SVGID_3_" x="441.9" y="38.7" width="366.7" height="517.5"/>
			</defs>
			<clipPath id="SVGID_4_">
				<use xlink:href="#SVGID_3_"  style="overflow:visible;"/>
			</clipPath>
			<rect id="rect166" x="441.9" y="38.7" class="st20" width="366.8" height="517.5"/>
		</g>
	</g>
</g>
<rect id="rect2019" x="401.4" y="38.7" class="st21" width="40.5" height="517.6"/>
<g>
	<g>
		<g>
			<defs>
				<rect id="SVGID_5_" x="34.7" y="38.7" width="366.7" height="517.5"/>
			</defs>
			<clipPath id="SVGID_6_">
				<use xlink:href="#SVGID_5_"  style="overflow:visible;"/>
			</clipPath>
			<rect x="34.7" y="38.7" class="st22" width="920" height="517.5"/>
			<g class="st23">
				<g>
					<polygon class="st11" points="494.2,38.7 853.4,285.2 954.7,137.6 954.7,38.7 					"/>
				</g>
				<path class="st12" d="M562.7,38.7c0.2,4.6,0.3,9.1,0.3,13.7c0,157.8-127.9,285.7-285.7,285.7c-102.4,0-192.2-53.9-242.6-134.8
					V38.7H562.7z"/>
				<path class="st13" d="M954.7,470c-16,14.9-28.2,35.5-29.9,58.6H691.9c3.3-154.6,115.4-282.4,262.8-309.8V470z"/>
				<rect x="572.1" y="442.5" class="st14" width="169.7" height="8.6"/>
				<g>
					<polygon class="st15" points="623.9,127.9 573.5,215.3 574.8,217.6 626.6,127.9 					"/>
					<polygon class="st15" points="578.8,224.5 634.6,127.9 631.9,127.9 577.5,222.2 					"/>
					<polygon class="st15" points="582.8,231.4 642.5,127.9 639.9,127.9 581.4,229.1 					"/>
					<polygon class="st15" points="586.7,238.3 650.5,127.9 647.8,127.9 585.4,236 					"/>
					<polygon class="st15" points="590.7,245.2 658.5,127.9 655.8,127.9 589.4,242.9 					"/>
					<polygon class="st15" points="594.8,252.1 666.4,127.9 663.8,127.9 593.4,249.8 					"/>
					<polygon class="st15" points="598.7,259 674.4,127.9 671.8,127.9 597.4,256.7 					"/>
					<polygon class="st15" points="602.7,265.9 682.4,127.9 679.7,127.9 601.4,263.6 					"/>
					<polygon class="st15" points="606.7,272.8 690.3,127.9 687.7,127.9 605.3,270.5 					"/>
					<polygon class="st15" points="610.7,279.7 698.3,127.9 695.6,127.9 609.3,277.4 					"/>
					<polygon class="st15" points="614.6,286.6 706.3,127.9 703.6,127.9 613.3,284.3 					"/>
					<polygon class="st15" points="618.6,293.5 714.3,127.9 711.6,127.9 617.3,291.2 					"/>
					<polygon class="st15" points="622.6,300.4 722.2,127.9 719.5,127.9 621.3,298.1 					"/>
					<polygon class="st15" points="629.3,302.7 727.5,132.5 726.2,130.2 626.6,302.7 					"/>
					<polygon class="st15" points="637.2,302.7 731.5,139.4 730.2,137.1 634.6,302.7 					"/>
					<polygon class="st15" points="645.2,302.7 735.5,146.3 734.1,144 642.5,302.7 					"/>
					<polygon class="st15" points="653.2,302.7 739.5,153.2 738.1,150.9 650.5,302.7 					"/>
					<polygon class="st15" points="661.1,302.7 743.4,160.1 742.1,157.8 658.4,302.7 					"/>
					<polygon class="st15" points="669.1,302.7 747.4,167 746.1,164.7 666.4,302.7 					"/>
					<polygon class="st15" points="677.1,302.7 751.4,173.9 750.1,171.6 674.4,302.7 					"/>
					<polygon class="st15" points="685,302.7 755.4,180.8 754.1,178.5 682.3,302.7 					"/>
					<polygon class="st15" points="693,302.7 759.4,187.7 758,185.4 690.3,302.7 					"/>
					<polygon class="st15" points="700.9,302.7 763.4,194.6 762,192.3 698.3,302.7 					"/>
					<polygon class="st15" points="708.9,302.7 767.3,201.5 766,199.2 706.3,302.7 					"/>
					<polygon class="st15" points="716.9,302.7 771.3,208.4 770,206.1 714.2,302.7 					"/>
					<polygon class="st15" points="724.8,302.7 775.3,215.3 774,213 722.2,302.7 					"/>
				</g>
				<g class="st16">
					<polygon points="414.9,486 374.3,556.2 377.6,556.2 418.2,486 					"/>
					<polygon points="424.8,486 384.3,556.2 387.7,556.2 428.2,486 					"/>
					<polygon points="434.8,486 394.3,556.2 397.6,556.2 438.2,486 					"/>
					<polygon points="444.8,486 404.2,556.2 407.6,556.2 448.1,486 					"/>
					<polygon points="454.8,486 414.2,556.2 417.6,556.2 458.1,486 					"/>
					<polygon points="464.8,486 424.2,556.2 427.6,556.2 468.1,486 					"/>
					<polygon points="474.7,486 434.2,556.2 437.5,556.2 478.1,486 					"/>
					<polygon points="484.7,486 444.1,556.2 447.5,556.2 488,486 					"/>
					<polygon points="494.7,486 454.2,556.2 457.5,556.2 498,486 					"/>
					<polygon points="504.7,486 464.1,556.2 467.5,556.2 508,486 					"/>
					<polygon points="514.6,486 474.1,556.2 477.5,556.2 518,486 					"/>
					<polygon points="524.6,486 484.1,556.2 487.4,556.2 528,486 					"/>
					<polygon points="534.6,486 494.1,556.2 497.4,556.2 537.9,486 					"/>
					<polygon points="542.9,488.9 504,556.2 507.4,556.2 544.6,491.8 					"/>
					<polygon points="547.9,497.5 514,556.2 517.4,556.2 549.6,500.5 					"/>
					<polygon points="552.9,506.2 524,556.2 527.3,556.2 554.5,509.1 					"/>
					<polygon points="557.9,514.8 534,556.2 537.3,556.2 559.6,517.8 					"/>
					<polygon points="562.9,523.5 544,556.2 547.4,556.2 564.6,526.4 					"/>
					<polygon points="567.9,532.1 553.9,556.2 557.3,556.2 569.5,535 					"/>
					<polygon points="572.9,540.7 563.9,556.2 567.2,556.2 574.5,543.6 					"/>
					<polygon points="579.5,552.3 577.8,549.4 573.9,556.2 577.2,556.2 					"/>
				</g>
				<rect x="887.5" y="163.8" class="st17" width="67.2" height="7.7"/>
				<rect x="34.7" y="74" class="st18" width="140.7" height="8.6"/>
				<circle class="st19" cx="448.5" cy="307.2" r="62.1"/>
				<g>
					<polygon class="st11" points="516.8,458.4 91,356.6 43.2,556.2 493.4,556.2 					"/>
				</g>
				<g>
					<path class="st14" d="M79.7,38.7v239.8v115.9c0,24.5-19.9,44.4-44.4,44.4c-0.2,0-0.4,0-0.6,0v79.7c0.2,0,0.4,0,0.6,0
						c68.5,0,124.1-55.6,124.1-124.1V38.7H79.7z"/>
				</g>
			</g>
		</g>
	</g>
</g>
<g id="flowRoot1455-0" transform="matrix(0,0.38527271,-0.38527271,0,579.70673,422.9487)">
</g>
<g id="flowRoot6454" transform="translate(15.654533,13.59203)">
</g>
<g>
	<g>
		<g>
			<g>
				<polygon class="st24" points="532.7,264.3 490.7,264.3 488.4,277.7 500.9,277.7 493.4,322.6 510.2,322.6 517.7,277.7 
					530.4,277.7 				"/>
			</g>
			<g>
				<path class="st24" d="M575.1,278.6c-1.5,0-2.8,0.2-4,0.6c-1.1,0.4-2.1,0.9-3,1.4c-0.8,0.6-1.6,1.2-2.2,1.9
					c-0.6,0.7-1.1,1.4-1.5,2c-0.7-1.5-1.8-2.9-3.3-4.2c-1.5-1.3-3.6-2-6.2-2c-2.6,0-4.8,0.4-6.5,1.2c-1.7,0.8-3.2,1.9-4.3,3.4
					l0.4-3.2h-12.4l-6.2,42.9h13.4l4.5-30.6c0.5-0.8,1-1.4,1.7-1.9s1.4-0.7,2.3-0.7c0.1,0,0.2,0,0.6,0.1c0.3,0.1,0.7,0.2,1,0.4
					c0.3,0.2,0.7,0.6,1,1.1s0.4,1.2,0.4,2c0,0.5,0,1-0.1,1.7c-0.1,0.6-0.1,1.2-0.3,1.7l-3.8,26.3h13.5l4.3-29.9
					c0.5-0.9,1.1-1.6,1.9-2.3c0.8-0.6,1.6-1,2.3-1c1.2,0,2,0.4,2.4,1.3s0.6,1.7,0.6,2.4c0,0.4,0,0.9-0.1,1.5s-0.1,1.1-0.2,1.5
					l-3.8,26.4h13.8l4-27.9c0.1-0.5,0.1-1.1,0.2-1.9c0.1-0.8,0.1-1.6,0.1-2.3c0-3.7-1-6.5-2.9-8.7
					C581,279.7,578.4,278.6,575.1,278.6z"/>
			</g>
			<g>
				<path class="st24" d="M625.3,311.9c-0.5,0-0.9-0.1-1.3-0.4c-0.4-0.3-0.5-1.2-0.3-2.7l1.9-15.7c0.4-3.1,0.3-5.7-0.3-7.6
					s-1.6-3.4-2.9-4.5c-1.3-1-2.9-1.7-4.8-2.1c-1.9-0.3-3.9-0.5-6.1-0.5c-1.4,0-2.8,0.1-4.3,0.4s-2.9,0.6-4.3,1
					c-1.4,0.4-2.7,0.9-3.9,1.5s-2.3,1.2-3.1,1.7l-1.9,10.4c2-1.3,4.1-2.3,6.3-3.1c2.2-0.8,4.7-1.1,7.5-1.1c1.2,0,2.3,0.3,3.2,0.8
					c0.9,0.6,1.3,1.5,1,2.8l-0.3,2.2c-2.7,0.1-5.1,0.4-7.3,0.8s-4.5,1.1-6.8,2.1c-1.9,0.8-3.4,1.8-4.7,2.9s-2.4,2.3-3.2,3.5
					s-1.4,2.5-1.8,3.8c-0.4,1.3-0.6,2.6-0.6,3.8c0,2.2,0.3,4,0.8,5.5s1.3,2.6,2.3,3.5s2.2,1.5,3.7,1.9c1.4,0.4,3.1,0.6,5,0.6
					c2.4,0,4.5-0.5,6.3-1.6c1.8-1,3.3-2.5,4.6-4.3c1.7,3.9,4.6,5.8,8.7,5.8c1.2,0,2.2-0.1,3.1-0.3c0.9-0.2,1.8-0.4,2.7-0.7l2.4-11.2
					C626.4,311.7,625.8,311.9,625.3,311.9z M609.1,311.7c-1,1-2.5,1.6-4.4,1.6c-0.7,0-1.2-0.2-1.7-0.7c-0.4-0.5-0.6-1.4-0.6-2.9
					c0-1.2,0.2-2.2,0.7-3c0.5-0.9,1.1-1.6,1.9-2.2c0.8-0.6,1.7-1.1,2.7-1.5s2-0.6,3-0.7L609.1,311.7z"/>
			</g>
			<g>
				<polygon class="st24" points="660.2,279.7 653.7,290.2 649.4,279.7 634.6,279.7 642.3,298.7 627,322.6 638.9,322.6 647.4,308.4 
					653,322.6 668.2,322.6 658.7,299.5 671.7,279.7 				"/>
			</g>
			<g>
				<path class="st24" d="M746.8,288.4c1,1,2.3,2.2,3.9,3.6c1.2,1.1,2.2,2.1,3.2,3c0.9,0.9,1.8,1.9,2.4,3c0.7,1,1.2,2.2,1.5,3.4
					c0.3,1.2,0.5,2.6,0.5,4.1c0,0,0,0,0-0.1c0-1.6-0.2-3-0.5-4.2s-0.8-2.4-1.5-3.4s-1.5-2-2.4-3c-1-0.9-2-2-3.2-3
					c-1.6-1.4-2.9-2.6-3.9-3.6s-1.5-2.4-1.5-4.1c0,0,0,0,0,0.1C745.3,286,745.8,287.4,746.8,288.4z"/>
			</g>
			<g>
				<path class="st24" d="M756.4,267.2c-2.1-0.7-4.4-1-6.7-1c-3.1,0-5.9,0.5-8.6,1.5c-2.7,1-5,2.4-7,4.2c-2,1.8-3.5,3.8-4.7,6
					c-1.1,2.3-1.7,4.6-1.7,7.2l0,0c0-2.5,0.6-4.9,1.7-7.1c1.1-2.3,2.7-4.3,4.7-6c2-1.8,4.3-3.2,7-4.2s5.5-1.5,8.6-1.5
					c2.3,0,4.6,0.3,6.7,1c2.1,0.7,4.1,1.7,6,3.2v-0.1C760.6,268.9,758.5,267.8,756.4,267.2z"/>
			</g>
			<g>
				<path class="st24" d="M729.7,310.7c1.7,1,3.7,1.5,5.9,1.5c4.2,0,6.3-2,6.3-5.9l0,0c0,3.9-2.1,5.8-6.3,5.8
					c-2.2,0-4.1-0.5-5.9-1.5c-1.7-1-3.3-2.3-4.6-3.9l-2.6,12.6l0,0l2.6-12.5C726.5,308.4,728,309.7,729.7,310.7z"/>
			</g>
			<g>
				<path class="st24" d="M752.7,317.9c-1.8,1.7-4.1,3.1-6.8,4.2s-5.8,1.6-9.2,1.6c-2.8,0-5.4-0.3-7.7-1s-4.5-1.8-6.4-3.4v0.1
					c1.9,1.6,4.1,2.8,6.4,3.4c2.3,0.7,4.9,1,7.7,1c3.4,0,6.5-0.5,9.2-1.6s5-2.5,6.8-4.2s3.3-3.7,4.2-5.9c1-2.2,1.5-4.4,1.5-6.6
					c0,0,0,0,0-0.1c0,2.2-0.5,4.4-1.5,6.6S754.5,316.2,752.7,317.9z"/>
			</g>
			<g>
				<path class="st24" d="M740.3,302.2c-1.1-1.3-2.3-2.4-3.7-3.5c-3-2.3-5.3-4.5-6.7-6.7s-2.1-4.5-2.1-6.9c0,0,0,0,0,0.1
					c0,2.5,0.7,4.8,2.1,6.9c1.4,2.2,3.6,4.4,6.7,6.7c1.4,1.1,2.6,2.2,3.7,3.5c1.1,1.2,1.6,2.6,1.6,3.9c0,0,0,0,0-0.1
					C741.9,304.8,741.3,303.5,740.3,302.2z"/>
			</g>
			<g>
				<path class="st24" d="M756.1,279.5c-1.4-0.8-3-1.2-4.9-1.2c-2.1,0-3.6,0.6-4.6,1.7c-0.9,1.1-1.4,2.5-1.4,4.1c0,0,0,0,0,0.1
					c0-1.5,0.5-2.9,1.4-4s2.4-1.7,4.6-1.7c1.9,0,3.5,0.4,4.9,1.2c1.4,0.8,2.6,1.9,3.7,3.2l2.6-12.4l0,0l-2.6,12.3
					C758.7,281.4,757.5,280.3,756.1,279.5z"/>
			</g>
			<g>
				<path class="st24" d="M749.7,266.3c-3.1,0-5.9,0.5-8.6,1.5c-2.7,1-5,2.4-7,4.2c-2,1.8-3.5,3.8-4.7,6c-1.1,2.2-1.7,4.6-1.7,7.1
					c0,2.4,0.7,4.7,2.1,6.9c1.4,2.2,3.6,4.4,6.7,6.7c1.4,1.1,2.6,2.2,3.7,3.5c1.1,1.3,1.6,2.6,1.6,4c0,0,0,0,0,0.1l0,0
					c0,3.9-2.1,5.9-6.3,5.9c-2.2,0-4.1-0.5-5.9-1.5c-1.7-1-3.3-2.3-4.6-3.9l-2.6,12.5c1.9,1.6,4.1,2.7,6.4,3.4c2.3,0.7,4.9,1,7.7,1
					c3.4,0,6.5-0.5,9.2-1.6s5-2.5,6.8-4.2s3.3-3.7,4.2-5.9c1-2.2,1.5-4.3,1.5-6.6c0-1.5-0.2-2.9-0.5-4.1s-0.8-2.4-1.5-3.4
					s-1.5-2-2.4-3c-1-0.9-2-2-3.2-3c-1.6-1.4-2.9-2.6-3.9-3.6s-1.5-2.4-1.5-4.2c0,0,0,0,0-0.1c0,0,0,0,0-0.1c0-1.6,0.5-2.9,1.4-4.1
					c0.9-1.1,2.4-1.7,4.6-1.7c1.9,0,3.5,0.4,4.9,1.2c1.4,0.8,2.6,1.9,3.7,3.2l2.6-12.3c-1.9-1.4-3.9-2.5-6-3.2
					C754.3,266.6,752.1,266.3,749.7,266.3z"/>
			</g>
			<g>
				<path class="st24" d="M702.8,266c-7.2,0-13.5,2.6-18.9,7.9c-5.3,5.3-8.8,12.3-10.3,21s-0.5,15.7,3,21s8.9,7.9,16.1,7.9
					c7.2,0,13.4-2.6,18.8-7.9c5.4-5.3,8.8-12.3,10.4-21c1.5-8.7,0.6-15.7-2.9-21C715.4,268.7,710,266,702.8,266z M705.1,294.9
					c-0.9,5.3-2.3,9.4-4,12.1c-1.7,2.8-3.8,4.2-6.2,4.2s-4-1.4-4.8-4.2c-0.8-2.8-0.7-6.8,0.3-12.1c0.9-5.4,2.3-9.4,4-12.2
					c1.8-2.8,3.8-4.2,6.3-4.2c2.4,0,4,1.4,4.7,4.2S706,289.6,705.1,294.9z"/>
			</g>
		</g>
	</g>
</g>
<g>
	<g>
		<g>
			<g>
				<polygon class="st24" points="429.2,70 429.2,59.3 425.8,58.7 425.8,61.9 414.5,60 414.5,64.3 425.8,66.2 425.8,69.4 				"/>
			</g>
			<g>
				<path class="st24" d="M425.6,80.7c0-0.4,0-0.7-0.1-1s-0.2-0.5-0.4-0.8c-0.1-0.2-0.3-0.4-0.5-0.6s-0.3-0.3-0.5-0.4
					c0.4-0.2,0.7-0.5,1.1-0.8c0.3-0.4,0.5-0.9,0.5-1.6s-0.1-1.2-0.3-1.6c-0.2-0.4-0.5-0.8-0.8-1.1l0.8,0.1v-3.1l-10.9-1.6v3.4
					l7.8,1.1c0.2,0.1,0.3,0.3,0.5,0.4c0.1,0.2,0.2,0.4,0.2,0.6v0.1c0,0.1-0.1,0.2-0.1,0.3c-0.1,0.1-0.2,0.2-0.3,0.2
					c-0.1,0.1-0.3,0.1-0.5,0.1c-0.1,0-0.3,0-0.4,0c-0.2,0-0.3,0-0.4-0.1l-6.7-1V77l7.6,1.1c0.2,0.1,0.4,0.3,0.6,0.5s0.2,0.4,0.2,0.6
					c0,0.3-0.1,0.5-0.3,0.6c-0.2,0.1-0.4,0.1-0.6,0.1c-0.1,0-0.2,0-0.4,0c-0.1,0-0.3,0-0.4,0l-6.7-1v3.5l7.1,1c0.1,0,0.3,0,0.5,0.1
					c0.2,0,0.4,0,0.6,0c0.9,0,1.7-0.2,2.2-0.7C425.3,82.2,425.6,81.5,425.6,80.7z"/>
			</g>
			<g>
				<path class="st24" d="M417.2,93.5c0-0.1,0-0.2,0.1-0.3c0.1-0.1,0.3-0.1,0.7-0.1l4,0.5c0.8,0.1,1.4,0.1,1.9-0.1s0.9-0.4,1.1-0.7
					c0.3-0.3,0.4-0.7,0.5-1.2s0.1-1,0.1-1.5c0-0.4,0-0.7-0.1-1.1s-0.2-0.7-0.3-1.1c-0.1-0.4-0.2-0.7-0.4-1c-0.1-0.3-0.3-0.6-0.4-0.8
					l-2.6-0.5c0.3,0.5,0.6,1,0.8,1.6c0.2,0.6,0.3,1.2,0.3,1.9c0,0.3-0.1,0.6-0.2,0.8c-0.1,0.2-0.4,0.3-0.7,0.3l-0.6-0.1
					c0-0.7-0.1-1.3-0.2-1.9s-0.3-1.1-0.5-1.7c-0.2-0.5-0.4-0.9-0.7-1.2c-0.3-0.3-0.6-0.6-0.9-0.8c-0.3-0.2-0.6-0.4-1-0.5
					c-0.3-0.1-0.7-0.1-1-0.1c-0.6,0-1,0.1-1.4,0.2s-0.7,0.3-0.9,0.6c-0.2,0.3-0.4,0.6-0.5,0.9c-0.1,0.4-0.1,0.8-0.1,1.3
					c0,0.6,0.1,1.2,0.4,1.6s0.6,0.8,1.1,1.2c-1,0.4-1.5,1.2-1.5,2.2c0,0.3,0,0.6,0.1,0.8c0,0.2,0.1,0.5,0.2,0.7l2.8,0.6
					C417.2,93.7,417.2,93.6,417.2,93.5z M417.2,89.4c-0.3-0.3-0.4-0.6-0.4-1.1c0-0.2,0.1-0.3,0.2-0.4s0.4-0.2,0.7-0.2
					c0.3,0,0.6,0.1,0.8,0.2c0.2,0.1,0.4,0.3,0.6,0.5s0.3,0.4,0.4,0.7c0.1,0.2,0.2,0.5,0.2,0.8L417.2,89.4z"/>
			</g>
			<g>
				<polygon class="st24" points="425.3,102.3 422.7,100.6 425.3,99.5 425.3,95.8 420.5,97.8 414.5,93.9 414.5,96.9 418.1,99 
					414.5,100.5 414.5,104.3 420.3,101.9 425.3,105.2 				"/>
			</g>
			<g>
				<path class="st24" d="M423.1,124.3c-0.3,0.3-0.6,0.6-0.9,1c-0.3,0.3-0.5,0.6-0.8,0.8c-0.2,0.2-0.5,0.4-0.8,0.6s-0.5,0.3-0.9,0.4
					c-0.3,0.1-0.7,0.1-1,0.1l0,0c0.4,0,0.8,0,1.1-0.1c0.3-0.1,0.6-0.2,0.9-0.4c0.3-0.2,0.5-0.4,0.8-0.6c0.2-0.2,0.5-0.5,0.8-0.8
					C422.6,124.8,422.9,124.5,423.1,124.3c0.3-0.3,0.6-0.4,1.1-0.4l0,0C423.7,123.9,423.4,124,423.1,124.3z"/>
			</g>
			<g>
				<path class="st24" d="M428.5,126.7c0.2-0.5,0.3-1.1,0.3-1.7c0-0.8-0.1-1.5-0.4-2.2s-0.6-1.3-1.1-1.8c-0.4-0.5-1-0.9-1.5-1.2
					c-0.6-0.3-1.2-0.4-1.8-0.4l0,0c0.6,0,1.2,0.1,1.8,0.4c0.6,0.3,1.1,0.7,1.5,1.2s0.8,1.1,1.1,1.8c0.3,0.7,0.4,1.4,0.4,2.2
					C428.7,125.6,428.6,126.2,428.5,126.7c-0.2,0.5-0.5,1-0.8,1.5l0,0C428.1,127.7,428.3,127.2,428.5,126.7z"/>
			</g>
			<g>
				<path class="st24" d="M417.5,119.9c-0.2,0.4-0.4,0.9-0.4,1.5c0,1.1,0.5,1.6,1.5,1.6l0,0c-1,0-1.5-0.5-1.5-1.6
					C417.1,120.9,417.2,120.4,417.5,119.9c0.3-0.4,0.6-0.8,1-1.2l-3.2-0.7l0,0l3.2,0.7C418,119.1,417.7,119.5,417.5,119.9z"/>
			</g>
			<g>
				<path class="st24" d="M415.6,125.7c-0.4-0.5-0.8-1-1.1-1.7c-0.3-0.7-0.4-1.5-0.4-2.3c0-0.7,0.1-1.4,0.3-2
					c0.2-0.6,0.5-1.1,0.9-1.6l0,0c-0.4,0.5-0.7,1-0.9,1.6c-0.2,0.6-0.3,1.2-0.3,2c0,0.9,0.1,1.6,0.4,2.3
					C414.8,124.7,415.2,125.3,415.6,125.7c0.4,0.5,0.9,0.8,1.5,1.1c0.6,0.2,1.1,0.4,1.7,0.4l0,0c-0.6,0-1.1-0.1-1.7-0.4
					C416.6,126.6,416.1,126.2,415.6,125.7z"/>
			</g>
			<g>
				<path class="st24" d="M419.6,122.6c0.3-0.3,0.6-0.6,0.9-0.9c0.6-0.8,1.1-1.3,1.7-1.7c0.5-0.4,1.1-0.5,1.7-0.5l0,0
					c-0.6,0-1.2,0.2-1.8,0.5c-0.6,0.4-1.1,0.9-1.7,1.7C420.2,122,419.9,122.3,419.6,122.6c-0.3,0.3-0.7,0.4-1,0.4l0,0
					C419,123,419.3,122.9,419.6,122.6z"/>
			</g>
			<g>
				<path class="st24" d="M425.4,126.6c0.2-0.3,0.3-0.8,0.3-1.2c0-0.5-0.1-0.9-0.4-1.2c-0.3-0.2-0.6-0.3-1-0.3l0,0
					c0.4,0,0.7,0.1,1,0.3c0.3,0.2,0.4,0.6,0.4,1.2C425.7,125.9,425.5,126.3,425.4,126.6c-0.2,0.3-0.5,0.7-0.8,0.9l3.1,0.7l0,0
					l-3.1-0.7C424.9,127.3,425.2,127,425.4,126.6z"/>
			</g>
			<g>
				<path class="st24" d="M428.7,125c0-0.8-0.1-1.5-0.4-2.2s-0.6-1.3-1.1-1.8c-0.4-0.5-1-0.9-1.5-1.2c-0.6-0.3-1.2-0.4-1.8-0.4
					c-0.6,0-1.2,0.2-1.7,0.5c-0.6,0.4-1.1,0.9-1.7,1.7c-0.3,0.4-0.6,0.7-0.9,0.9c-0.3,0.3-0.7,0.4-1,0.4l0,0l0,0
					c-1,0-1.5-0.5-1.5-1.6c0-0.6,0.1-1,0.4-1.5c0.2-0.4,0.6-0.8,1-1.2l-3.2-0.7c-0.4,0.5-0.7,1-0.9,1.6c-0.2,0.6-0.3,1.2-0.3,2
					c0,0.9,0.1,1.6,0.4,2.3c0.3,0.7,0.6,1.3,1.1,1.7c0.4,0.5,0.9,0.8,1.5,1.1c0.5,0.2,1.1,0.4,1.7,0.4c0.4,0,0.7,0,1-0.1
					s0.6-0.2,0.9-0.4c0.3-0.2,0.5-0.4,0.8-0.6c0.2-0.2,0.5-0.5,0.8-0.8c0.4-0.4,0.7-0.7,0.9-1c0.3-0.3,0.6-0.4,1.1-0.4l0,0l0,0
					c0.4,0,0.7,0.1,1,0.3c0.3,0.2,0.4,0.6,0.4,1.2c0,0.5-0.1,0.9-0.3,1.2c-0.2,0.3-0.5,0.7-0.8,0.9l3.1,0.7c0.4-0.5,0.6-1,0.8-1.5
					C428.6,126.2,428.7,125.6,428.7,125z"/>
			</g>
			<g>
				<path class="st24" d="M428.8,113.1c0-1.8-0.7-3.4-2-4.8s-3.1-2.2-5.3-2.6c-2.2-0.4-4-0.1-5.3,0.8s-2,2.2-2,4.1
					c0,1.8,0.7,3.4,2,4.8s3.1,2.2,5.3,2.6c2.2,0.4,4,0.1,5.3-0.7C428.1,116.3,428.8,114.9,428.8,113.1z M421.5,113.7
					c-1.3-0.2-2.4-0.6-3.1-1s-1.1-1-1.1-1.6s0.4-1,1.1-1.2s1.7-0.2,3.1,0.1c1.4,0.2,2.4,0.6,3.1,1s1.1,1,1.1,1.6s-0.4,1-1.1,1.2
					C423.9,113.9,422.8,113.9,421.5,113.7z"/>
			</g>
		</g>
	</g>
</g>
<g>
	<polygon class="st24" points="207,404.9 189.8,404.9 193.8,386.1 255.9,386.1 251.9,404.9 234.7,404.9 223.8,455.9 196.2,455.9 	
		"/>
	<polygon class="st25" points="214.1,396.3 181.7,396.3 188.6,366.2 220.9,366.2 	"/>
</g>
<g>
	<g>
		<g>
			<g>
				<polygon class="st24" points="179.6,483.6 161.8,483.6 160.9,489.3 166.1,489.3 163,508.2 170.1,508.2 173.2,489.3 178.7,489.3 
									"/>
			</g>
			<g>
				<path class="st24" d="M197.5,489.7c-0.6,0-1.2,0.1-1.7,0.2c-0.5,0.2-0.9,0.4-1.3,0.6c-0.4,0.2-0.7,0.5-0.9,0.8
					c-0.3,0.3-0.5,0.6-0.6,0.8c-0.3-0.6-0.8-1.2-1.4-1.8c-0.6-0.6-1.5-0.8-2.6-0.8s-2,0.2-2.7,0.5s-1.3,0.8-1.8,1.4l0.2-1.4h-5.2
					l-2.6,18.1h5.7l1.9-13c0.2-0.3,0.4-0.6,0.7-0.8c0.3-0.2,0.6-0.3,1-0.3c0,0,0.1,0,0.2,0c0.1,0,0.3,0.1,0.4,0.2
					c0.1,0.1,0.3,0.3,0.4,0.5c0.1,0.2,0.2,0.5,0.2,0.9c0,0.2,0,0.4,0,0.7c0,0.3-0.1,0.5-0.1,0.7l-1.6,11.1h5.7l1.8-12.6
					c0.2-0.4,0.5-0.7,0.8-1s0.7-0.4,1-0.4c0.5,0,0.9,0.2,1,0.6c0.2,0.4,0.2,0.7,0.2,1c0,0.2,0,0.4,0,0.6s-0.1,0.5-0.1,0.6l-1.6,11.1
					h5.8l1.7-11.8c0-0.2,0.1-0.5,0.1-0.8s0.1-0.7,0.1-1c0-1.5-0.4-2.8-1.2-3.7C200,490.1,198.9,489.7,197.5,489.7z"/>
			</g>
			<g>
				<path class="st24" d="M218.8,503.7c-0.2,0-0.4-0.1-0.6-0.2c-0.2-0.1-0.2-0.5-0.1-1.1l0.8-6.6c0.2-1.3,0.1-2.4-0.1-3.2
					c-0.3-0.8-0.7-1.5-1.2-1.9c-0.6-0.4-1.2-0.7-2-0.9c-0.8-0.1-1.7-0.2-2.6-0.2c-0.6,0-1.2,0.1-1.8,0.2s-1.2,0.3-1.8,0.4
					c-0.6,0.2-1.1,0.4-1.7,0.6c-0.5,0.2-1,0.5-1.3,0.7l-0.8,4.4c0.8-0.5,1.7-1,2.7-1.3c0.9-0.3,2-0.5,3.2-0.5c0.5,0,1,0.1,1.4,0.3
					c0.4,0.2,0.5,0.6,0.4,1.2l-0.1,0.9c-1.1,0.1-2.2,0.2-3.1,0.4c-0.9,0.2-1.9,0.5-2.9,0.9c-0.8,0.3-1.5,0.7-2,1.2
					c-0.6,0.5-1,1-1.4,1.5s-0.6,1.1-0.8,1.6c-0.2,0.6-0.2,1.1-0.2,1.6c0,0.9,0.1,1.7,0.3,2.3c0.2,0.6,0.5,1.1,1,1.5
					c0.4,0.4,0.9,0.6,1.5,0.8c0.6,0.2,1.3,0.2,2.1,0.2c1,0,1.9-0.2,2.7-0.7c0.7-0.4,1.4-1,1.9-1.8c0.7,1.6,1.9,2.5,3.7,2.5
					c0.5,0,0.9,0,1.3-0.1c0.4-0.1,0.8-0.2,1.1-0.3l1-4.7C219.2,503.6,219,503.7,218.8,503.7z M211.9,503.6c-0.4,0.4-1.1,0.7-1.9,0.7
					c-0.3,0-0.5-0.1-0.7-0.3c-0.2-0.2-0.3-0.6-0.3-1.2c0-0.5,0.1-0.9,0.3-1.3s0.5-0.7,0.8-0.9c0.3-0.3,0.7-0.5,1.1-0.6
					c0.4-0.2,0.8-0.3,1.3-0.3L211.9,503.6z"/>
			</g>
			<g>
				<polygon class="st24" points="233.5,490.1 230.7,494.6 228.9,490.1 222.7,490.1 225.9,498.2 219.5,508.2 224.5,508.2 
					228.1,502.2 230.5,508.2 236.9,508.2 232.8,498.5 238.4,490.1 				"/>
			</g>
			<g>
				<path class="st24" d="M270.1,493.8c0.4,0.4,1,0.9,1.7,1.5c0.5,0.4,0.9,0.9,1.3,1.3s0.7,0.8,1,1.3c0.3,0.4,0.5,0.9,0.6,1.4
					s0.2,1.1,0.2,1.7l0,0c0-0.7-0.1-1.3-0.2-1.8s-0.4-1-0.6-1.4c-0.3-0.4-0.6-0.9-1-1.3s-0.9-0.8-1.3-1.3
					C271.1,494.7,270.5,494.2,270.1,493.8c-0.4-0.5-0.6-1-0.6-1.8l0,0C269.5,492.8,269.7,493.4,270.1,493.8z"/>
			</g>
			<g>
				<path class="st24" d="M274.2,484.8c-0.9-0.3-1.8-0.4-2.8-0.4c-1.3,0-2.5,0.2-3.6,0.7c-1.1,0.4-2.1,1-3,1.8
					c-0.8,0.7-1.5,1.6-2,2.5c-0.5,1-0.7,2-0.7,3l0,0c0-1.1,0.2-2.1,0.7-3c0.5-1,1.1-1.8,2-2.5c0.8-0.7,1.8-1.3,3-1.8
					c1.1-0.4,2.3-0.7,3.6-0.7C272.3,484.4,273.3,484.6,274.2,484.8c0.9,0.3,1.7,0.8,2.5,1.4l0,0
					C275.9,485.5,275.1,485.1,274.2,484.8z"/>
			</g>
			<g>
				<path class="st24" d="M262.9,503.2c0.7,0.4,1.6,0.6,2.5,0.6c1.8,0,2.7-0.8,2.7-2.5l0,0c0,1.6-0.9,2.4-2.7,2.4
					C264.4,503.8,263.6,503.6,262.9,503.2c-0.7-0.5-1.4-1-1.9-1.7l-1.1,5.3l0,0l1.1-5.3C261.5,502.2,262.1,502.8,262.9,503.2z"/>
			</g>
			<g>
				<path class="st24" d="M272.6,506.3c-0.8,0.7-1.7,1.3-2.9,1.8c-1.1,0.4-2.4,0.7-3.9,0.7c-1.2,0-2.3-0.1-3.3-0.4s-1.9-0.8-2.7-1.4
					l0,0c0.8,0.7,1.7,1.2,2.7,1.4c1,0.3,2.1,0.4,3.3,0.4c1.4,0,2.7-0.2,3.9-0.7C270.8,507.6,271.8,507,272.6,506.3
					c0.8-0.7,1.4-1.5,1.8-2.4s0.6-1.9,0.6-2.8l0,0c0,0.9-0.2,1.9-0.6,2.8C273.9,504.7,273.3,505.5,272.6,506.3z"/>
			</g>
			<g>
				<path class="st24" d="M267.3,499.6c-0.5-0.5-1-1-1.6-1.5c-1.3-1-2.2-1.9-2.8-2.8c-0.6-0.9-0.9-1.9-0.9-2.9l0,0
					c0,1,0.3,2,0.9,2.9s1.5,1.9,2.8,2.8C266.4,498.7,266.9,499.1,267.3,499.6c0.4,0.6,0.7,1.1,0.7,1.7l0,0
					C268,500.7,267.8,500.2,267.3,499.6z"/>
			</g>
			<g>
				<path class="st24" d="M274,490c-0.6-0.3-1.3-0.5-2.1-0.5c-0.9,0-1.5,0.2-1.9,0.7s-0.6,1.1-0.6,1.7l0,0c0-0.7,0.2-1.2,0.6-1.7
					s1-0.7,1.9-0.7C272.8,489.6,273.5,489.7,274,490c0.6,0.4,1.1,0.8,1.6,1.4l1.1-5.2l0,0l-1.1,5.2C275.1,490.8,274.6,490.4,274,490
					z"/>
			</g>
			<g>
				<path class="st24" d="M271.3,484.4c-1.3,0-2.5,0.2-3.6,0.7c-1.1,0.4-2.1,1-3,1.8c-0.8,0.7-1.5,1.6-2,2.5s-0.7,1.9-0.7,3
					c0,1,0.3,2,0.9,2.9s1.5,1.9,2.8,2.8c0.6,0.4,1.1,0.9,1.6,1.5c0.5,0.5,0.7,1.1,0.7,1.7l0,0l0,0c0,1.7-0.9,2.5-2.7,2.5
					c-0.9,0-1.7-0.2-2.5-0.6c-0.7-0.4-1.4-1-1.9-1.6l-1.1,5.3c0.8,0.7,1.7,1.2,2.7,1.4c1,0.3,2.1,0.4,3.3,0.4c1.4,0,2.7-0.2,3.9-0.7
					c1.1-0.4,2.1-1,2.9-1.8c0.8-0.7,1.4-1.6,1.8-2.5s0.6-1.8,0.6-2.8c0-0.7-0.1-1.2-0.2-1.7s-0.4-1-0.6-1.4c-0.3-0.4-0.6-0.9-1-1.3
					s-0.9-0.8-1.3-1.3c-0.7-0.6-1.2-1.1-1.7-1.5c-0.4-0.4-0.6-1-0.6-1.8l0,0l0,0c0-0.7,0.2-1.2,0.6-1.7s1-0.7,1.9-0.7
					c0.8,0,1.5,0.2,2.1,0.5s1.1,0.8,1.6,1.4l1.1-5.2c-0.8-0.6-1.6-1.1-2.5-1.3C273.3,484.6,272.3,484.4,271.3,484.4z"/>
			</g>
			<g>
				<path class="st24" d="M251.5,484.3c-3.1,0-5.7,1.1-8,3.3c-2.3,2.2-3.7,5.2-4.4,8.9c-0.6,3.7-0.2,6.6,1.3,8.9
					c1.5,2.2,3.7,3.4,6.8,3.4c3,0,5.7-1.1,8-3.4c2.3-2.2,3.7-5.2,4.4-8.9c0.6-3.7,0.2-6.7-1.2-8.9
					C256.8,485.4,254.6,484.3,251.5,484.3z M252.5,496.5c-0.4,2.2-1,4-1.7,5.1c-0.7,1.2-1.6,1.8-2.6,1.8s-1.7-0.6-2-1.8
					c-0.3-1.2-0.3-2.9,0.1-5.1c0.4-2.3,1-4,1.7-5.2s1.6-1.8,2.6-1.8s1.7,0.6,2,1.8C252.9,492.6,252.9,494.3,252.5,496.5z"/>
			</g>
		</g>
	</g>
</g>
</svg>
