<?xml version="1.0" encoding="utf-8"?>
<!-- Generator: Adobe Illustrator 25.1.0, SVG Export Plug-In . SVG Version: 6.00 Build 0)  -->
<svg version="1.1"
	 id="Layer_1" inkscape:export-filename="C:\Users\xine\Documents\2018-debian-buster\futurePrototype-source\cd-dvd\png\cd.png" inkscape:export-xdpi="96" inkscape:export-ydpi="96" inkscape:version="0.92.2 (5c3e80d, 2017-08-06)" sodipodi:docname="cd.svg" xmlns:cc="http://creativecommons.org/ns#" xmlns:dc="http://purl.org/dc/elements/1.1/" xmlns:inkscape="http://www.inkscape.org/namespaces/inkscape" xmlns:ns2="http://ns.adobe.com/AdobeIllustrator/10.0/" xmlns:rdf="http://www.w3.org/1999/02/22-rdf-syntax-ns#" xmlns:sodipodi="http://sodipodi.sourceforge.net/DTD/sodipodi-0.dtd" xmlns:svg="http://www.w3.org/2000/svg"
	 xmlns="http://www.w3.org/2000/svg" xmlns:xlink="http://www.w3.org/1999/xlink" x="0px" y="0px" viewBox="0 0 566 566"
	 style="enable-background:new 0 0 566 566;" xml:space="preserve">
<style type="text/css">
	.st0{clip-path:url(#SVGID_2_);fill:#082E66;}
	.st1{clip-path:url(#SVGID_2_);}
	.st2{opacity:0.4;fill:#123777;enable-background:new    ;}
	.st3{opacity:0.15;fill:#7793C4;enable-background:new    ;}
	.st4{opacity:0.1;fill:#7793C4;enable-background:new    ;}
	.st5{opacity:0.1;enable-background:new    ;}
	.st6{fill:#325DA8;}
	.st7{opacity:0.15;}
	.st8{fill:#1944A4;}
	.st9{opacity:7.000000e-02;fill:#FFFFFF;enable-background:new    ;}
	.st10{opacity:0.1;fill:#FFFFFF;enable-background:new    ;}
	.st11{fill:#FFFFFF;}
</style>
<sodipodi:namedview  bordercolor="#666666" borderopacity="1" gridtolerance="10" guidetolerance="10" id="namedview184" inkscape:current-layer="Layer_1" inkscape:cx="113.77692" inkscape:cy="305.20694" inkscape:pageopacity="0" inkscape:pageshadow="2" inkscape:window-height="1017" inkscape:window-maximized="1" inkscape:window-width="1920" inkscape:window-x="-8" inkscape:window-y="-8" inkscape:zoom="1.0435799" objecttolerance="10" pagecolor="#ffffff" showgrid="false">
	</sodipodi:namedview>
<g>
	<g>
		<g>
			<defs>
				<path id="SVGID_1_" d="M283.6,0C127.3,0,0.6,126.7,0.6,283s126.7,283,283,283s283-126.7,283-283S439.9,0,283.6,0z M282.4,319
					c-19.9,0-36-16.1-36-36s16.1-36,36-36s36,16.1,36,36S302.2,319,282.4,319z"/>
			</defs>
			<clipPath id="SVGID_2_">
				<use xlink:href="#SVGID_1_"  style="overflow:visible;"/>
			</clipPath>
			<rect x="-220.1" class="st0" width="1006.2" height="566"/>
			<g class="st1">
				<g>
					<polygon class="st2" points="282.5,0 675.3,269.6 786.1,108.1 786.1,0 					"/>
				</g>
				<path class="st3" d="M357.4,0c0.2,5,0.4,10,0.4,15c0,172.6-139.9,312.5-312.5,312.5c-112,0-210.2-58.9-265.4-147.5V0H357.4z"/>
				<path class="st4" d="M786.1,471.8c-17.5,16.2-30.8,38.8-32.8,64.1H498.7C502.3,366.8,624.9,227,786.1,197V471.8z"/>
				<rect x="367.6" y="441.7" class="st5" width="185.6" height="9.4"/>
				<g>
					<polygon class="st6" points="424.3,97.6 369.2,193.2 370.6,195.7 427.3,97.6 					"/>
					<polygon class="st6" points="375,203.2 436,97.6 433,97.6 373.5,200.7 					"/>
					<polygon class="st6" points="379.3,210.8 444.7,97.6 441.8,97.6 377.9,208.3 					"/>
					<polygon class="st6" points="383.7,218.3 453.4,97.6 450.5,97.6 382.2,215.8 					"/>
					<polygon class="st6" points="388,225.9 462.1,97.6 459.2,97.6 386.6,223.3 					"/>
					<polygon class="st6" points="392.4,233.4 470.8,97.6 467.9,97.6 391,230.9 					"/>
					<polygon class="st6" points="396.8,241 479.5,97.6 476.6,97.6 395.3,238.4 					"/>
					<polygon class="st6" points="401.1,248.5 488.3,97.6 485.3,97.6 399.7,245.9 					"/>
					<polygon class="st6" points="405.5,256.1 497,97.6 494,97.6 404,253.5 					"/>
					<polygon class="st6" points="409.8,263.6 505.7,97.6 502.7,97.6 408.4,261 					"/>
					<polygon class="st6" points="414.2,271.2 514.4,97.6 511.5,97.6 412.7,268.6 					"/>
					<polygon class="st6" points="418.5,278.7 523.1,97.6 520.2,97.6 417.1,276.1 					"/>
					<polygon class="st6" points="422.9,286.2 531.8,97.6 528.9,97.6 421.5,283.7 					"/>
					<polygon class="st6" points="430.2,288.7 537.6,102.6 536.2,100 427.2,288.7 					"/>
					<polygon class="st6" points="438.9,288.7 542,110.2 540.5,107.6 436,288.7 					"/>
					<polygon class="st6" points="447.6,288.7 546.3,117.7 544.9,115.1 444.7,288.7 					"/>
					<polygon class="st6" points="456.3,288.7 550.7,125.3 549.2,122.7 453.4,288.7 					"/>
					<polygon class="st6" points="465,288.7 555,132.8 553.6,130.2 462.1,288.7 					"/>
					<polygon class="st6" points="473.7,288.7 559.4,140.3 557.9,137.8 470.8,288.7 					"/>
					<polygon class="st6" points="482.5,288.7 563.7,147.9 562.3,145.3 479.5,288.7 					"/>
					<polygon class="st6" points="491.2,288.7 568.1,155.4 566.7,152.9 488.2,288.7 					"/>
					<polygon class="st6" points="499.9,288.7 572.5,163 571,160.4 496.9,288.7 					"/>
					<polygon class="st6" points="508.6,288.7 576.8,170.5 575.4,168 505.7,288.7 					"/>
					<polygon class="st6" points="517.3,288.7 581.2,178.1 579.7,175.5 514.4,288.7 					"/>
					<polygon class="st6" points="526,288.7 585.5,185.6 584.1,183.1 523.1,288.7 					"/>
					<polygon class="st6" points="534.7,288.7 589.9,193.2 588.4,190.6 531.8,288.7 					"/>
				</g>
				<g class="st7">
					<polygon points="195.7,489.2 151.3,566 155,566 199.3,489.2 					"/>
					<polygon points="206.6,489.2 162.3,566 165.9,566 210.3,489.2 					"/>
					<polygon points="217.5,489.2 173.2,566 176.8,566 221.2,489.2 					"/>
					<polygon points="228.4,489.2 184.1,566 187.7,566 232.1,489.2 					"/>
					<polygon points="239.3,489.2 195,566 198.6,566 243,489.2 					"/>
					<polygon points="250.2,489.2 205.9,566 209.6,566 253.9,489.2 					"/>
					<polygon points="261.1,489.2 216.8,566 220.5,566 264.8,489.2 					"/>
					<polygon points="272,489.2 227.7,566 231.4,566 275.7,489.2 					"/>
					<polygon points="283,489.2 238.7,566 242.3,566 286.6,489.2 					"/>
					<polygon points="293.9,489.2 249.6,566 253.2,566 297.6,489.2 					"/>
					<polygon points="304.8,489.2 260.5,566 264.1,566 308.5,489.2 					"/>
					<polygon points="315.7,489.2 271.4,566 275,566 319.4,489.2 					"/>
					<polygon points="326.7,489.2 282.3,566 285.9,566 330.3,489.2 					"/>
					<polygon points="335.7,492.4 293.2,566 296.9,566 337.6,495.6 					"/>
					<polygon points="341.2,501.8 304.1,566 307.8,566 343,505.1 					"/>
					<polygon points="346.7,511.3 315.1,566 318.7,566 348.5,514.5 					"/>
					<polygon points="352.1,520.7 326,566 329.6,566 354,524 					"/>
					<polygon points="357.6,530.2 336.9,566 340.6,566 359.4,533.4 					"/>
					<polygon points="363,539.6 347.8,566 351.5,566 364.9,542.8 					"/>
					<polygon points="368.5,549.1 358.7,566 362.3,566 370.3,552.3 					"/>
					<polygon points="375.8,561.7 373.9,558.6 369.6,566 373.2,566 					"/>
				</g>
				<rect x="712.6" y="136.8" class="st8" width="73.5" height="8.4"/>
				<rect x="-220.1" y="38.6" class="st9" width="153.9" height="9.4"/>
				<circle class="st10" cx="232.4" cy="293.7" r="68"/>
				<g>
					<polygon class="st2" points="307.2,459 -158.6,347.7 -210.8,566 281.6,566 					"/>
				</g>
				<g>
					<path class="st5" d="M-170.9,0v262.2V389c0,26.8-21.7,48.6-48.6,48.6c-0.2,0-0.4,0-0.6,0v87.2c0.2,0,0.4,0,0.6,0
						c74.9,0,135.7-60.8,135.7-135.7V0H-170.9z"/>
				</g>
			</g>
		</g>
	</g>
</g>
<g id="flowRoot1331">
</g>
<g>
	<g>
		<g>
			<g>
				<polygon class="st11" points="200.9,400.1 163.6,400.1 161.6,411.9 172.7,411.9 166,451.7 180.9,451.7 187.5,411.9 198.9,411.9 
									"/>
			</g>
			<g>
				<path class="st11" d="M238.4,412.8c-1.3,0-2.5,0.2-3.5,0.5s-1.9,0.8-2.6,1.3c-0.7,0.5-1.4,1.1-1.9,1.7s-1,1.2-1.3,1.8
					c-0.6-1.3-1.6-2.6-2.9-3.7c-1.3-1.2-3.2-1.7-5.5-1.7s-4.2,0.3-5.7,1s-2.8,1.7-3.8,3l0.4-2.9h-11l-5.5,38H207l4-27.1
					c0.4-0.7,0.9-1.2,1.5-1.7c0.6-0.4,1.3-0.7,2-0.7c0,0,0.2,0,0.5,0.1s0.6,0.2,0.9,0.4c0.3,0.2,0.6,0.5,0.8,1
					c0.3,0.4,0.4,1,0.4,1.8c0,0.4,0,0.9-0.1,1.5c0,0.6-0.1,1.1-0.2,1.5l-3.4,23.3h12l3.8-26.4c0.4-0.8,1-1.4,1.7-2s1.4-0.9,2-0.9
					c1.1,0,1.8,0.4,2.1,1.2c0.3,0.8,0.5,1.5,0.5,2.2c0,0.4,0,0.8-0.1,1.3s-0.1,1-0.2,1.3l-3.4,23.4h12.3l3.5-24.7
					c0.1-0.4,0.1-1,0.2-1.7c0.1-0.7,0.1-1.4,0.1-2c0-3.2-0.9-5.8-2.6-7.7C243.6,413.7,241.3,412.8,238.4,412.8z"/>
			</g>
			<g>
				<path class="st11" d="M282.9,442.2c-0.4,0-0.8-0.1-1.2-0.4c-0.4-0.3-0.5-1.1-0.3-2.4l1.7-13.9c0.4-2.8,0.3-5-0.3-6.8
					c-0.5-1.7-1.4-3-2.5-4c-1.2-0.9-2.6-1.5-4.2-1.9c-1.7-0.3-3.5-0.5-5.4-0.5c-1.2,0-2.5,0.1-3.8,0.3c-1.3,0.2-2.5,0.5-3.8,0.9
					c-1.2,0.4-2.4,0.8-3.5,1.3s-2,1-2.8,1.5l-1.7,9.2c1.8-1.1,3.6-2,5.6-2.7s4.2-1,6.7-1c1.1,0,2,0.2,2.8,0.7s1.1,1.3,0.9,2.5
					l-0.2,1.9c-2.4,0.1-4.5,0.4-6.5,0.7c-2,0.4-4,1-6,1.9c-1.7,0.7-3.1,1.6-4.2,2.6c-1.2,1-2.1,2-2.9,3.1c-0.7,1.1-1.3,2.2-1.6,3.4
					c-0.3,1.2-0.5,2.3-0.5,3.4c0,2,0.2,3.6,0.7,4.9s1.1,2.3,2,3.1c0.9,0.8,2,1.3,3.2,1.7c1.3,0.3,2.7,0.5,4.4,0.5
					c2.2,0,4-0.5,5.6-1.4s2.9-2.2,4-3.8c1.5,3.4,4.1,5.2,7.7,5.2c1,0,2-0.1,2.8-0.2c0.8-0.2,1.6-0.4,2.4-0.6l2.2-10
					C283.8,442.1,283.3,442.2,282.9,442.2z M268.6,442.1c-0.9,0.9-2.2,1.4-3.9,1.4c-0.6,0-1.1-0.2-1.5-0.6s-0.5-1.3-0.5-2.5
					c0-1,0.2-1.9,0.6-2.7c0.4-0.8,1-1.4,1.7-2c0.7-0.5,1.5-1,2.4-1.3s1.8-0.6,2.7-0.7L268.6,442.1z"/>
			</g>
			<g>
				<polygon class="st11" points="313.8,413.7 308,423 304.2,413.7 291.1,413.7 297.9,430.6 284.4,451.7 294.9,451.7 302.4,439.1 
					307.4,451.7 320.8,451.7 312.4,431.3 324,413.7 				"/>
			</g>
			<g>
				<path class="st11" d="M390.5,421.4c0.9,0.9,2,2,3.5,3.2c1,0.9,2,1.8,2.8,2.7c0.8,0.8,1.6,1.7,2.1,2.6c0.6,0.9,1,1.9,1.3,3
					s0.4,2.3,0.4,3.7c0,0,0,0,0-0.1c0-1.4-0.1-2.6-0.4-3.7s-0.7-2.1-1.3-3c-0.6-0.9-1.3-1.8-2.1-2.6c-0.8-0.8-1.8-1.7-2.8-2.7
					c-1.4-1.2-2.6-2.3-3.5-3.2c-0.9-0.9-1.3-2.1-1.3-3.7l0,0C389.2,419.3,389.6,420.5,390.5,421.4z"/>
			</g>
			<g>
				<path class="st11" d="M399,402.6c-1.9-0.6-3.9-0.9-5.9-0.9c-2.7,0-5.3,0.5-7.6,1.4c-2.4,0.9-4.4,2.2-6.2,3.7
					c-1.8,1.6-3.1,3.3-4.1,5.3s-1.5,4.1-1.5,6.3l0,0c0-2.2,0.5-4.3,1.5-6.3s2.4-3.8,4.1-5.3c1.8-1.6,3.8-2.8,6.2-3.7
					c2.4-0.9,4.9-1.4,7.6-1.4C395.2,401.7,397.2,402,399,402.6c1.9,0.6,3.6,1.5,5.3,2.8v-0.1C402.7,404.2,400.9,403.2,399,402.6z"/>
			</g>
			<g>
				<path class="st11" d="M375.4,441.2c1.5,0.9,3.3,1.3,5.2,1.3c3.7,0,5.6-1.7,5.6-5.2l0,0c0,3.4-1.9,5.1-5.6,5.1
					c-1.9,0-3.7-0.4-5.2-1.3s-2.9-2-4.1-3.4l-2.3,11.1l0,0l2.3-11C372.5,439.2,373.8,440.3,375.4,441.2z"/>
			</g>
			<g>
				<path class="st11" d="M395.7,447.6c-1.6,1.5-3.6,2.8-6,3.7c-2.4,0.9-5.1,1.4-8.1,1.4c-2.5,0-4.7-0.3-6.8-0.9
					c-2.1-0.6-4-1.6-5.7-3v0.1c1.7,1.4,3.6,2.4,5.7,3s4.3,0.9,6.8,0.9c3,0,5.7-0.5,8.1-1.4s4.4-2.2,6-3.7s2.9-3.3,3.7-5.2
					c0.9-1.9,1.3-3.9,1.3-5.9c0,0,0,0,0-0.1c0,2-0.4,3.9-1.3,5.8C398.6,444.3,397.3,446,395.7,447.6z"/>
			</g>
			<g>
				<path class="st11" d="M384.7,433.7c-0.9-1.1-2-2.1-3.3-3.1c-2.7-2-4.7-4-5.9-5.9c-1.2-1.9-1.9-4-1.9-6.1c0,0,0,0,0,0.1
					c0,2.2,0.6,4.2,1.9,6.2c1.2,1.9,3.2,3.9,5.9,5.9c1.2,0.9,2.3,2,3.3,3.1c0.9,1.1,1.4,2.3,1.4,3.5c0,0,0,0,0-0.1
					C386.1,435.9,385.6,434.8,384.7,433.7z"/>
			</g>
			<g>
				<path class="st11" d="M398.8,413.6c-1.2-0.7-2.7-1.1-4.3-1.1c-1.9,0-3.2,0.5-4,1.5s-1.2,2.2-1.2,3.6c0,0,0,0,0,0.1
					c0-1.4,0.4-2.5,1.2-3.5c0.8-1,2.2-1.5,4-1.5c1.7,0,3.1,0.4,4.3,1.1c1.2,0.7,2.3,1.7,3.3,2.9l2.3-11l0,0l-2.3,10.9
					C401.1,415.2,400,414.3,398.8,413.6z"/>
			</g>
			<g>
				<path class="st11" d="M393.1,401.8c-2.7,0-5.3,0.5-7.6,1.4c-2.4,0.9-4.4,2.2-6.2,3.7c-1.8,1.6-3.1,3.3-4.1,5.3s-1.5,4.1-1.5,6.3
					c0,2.2,0.6,4.2,1.9,6.1c1.2,1.9,3.2,3.9,5.9,5.9c1.2,0.9,2.3,2,3.3,3.1c0.9,1.1,1.4,2.3,1.4,3.5c0,0,0,0,0,0.1l0,0
					c0,3.5-1.9,5.2-5.6,5.2c-1.9,0-3.7-0.4-5.2-1.3s-2.9-2-4.1-3.4l-2.3,11c1.7,1.4,3.6,2.4,5.7,3s4.3,0.9,6.8,0.9
					c3,0,5.7-0.5,8.1-1.4s4.4-2.2,6-3.7s2.9-3.3,3.7-5.2c0.9-1.9,1.3-3.8,1.3-5.8c0-1.4-0.1-2.6-0.4-3.7s-0.7-2.1-1.3-3
					c-0.6-0.9-1.3-1.8-2.1-2.6c-0.8-0.8-1.8-1.7-2.8-2.7c-1.4-1.2-2.6-2.3-3.5-3.2c-0.9-0.9-1.3-2.1-1.3-3.7l0,0c0,0,0,0,0-0.1
					c0-1.4,0.4-2.6,1.2-3.6c0.8-1,2.2-1.5,4-1.5c1.7,0,3.1,0.4,4.3,1.1c1.2,0.7,2.3,1.7,3.3,2.9l2.3-10.9c-1.7-1.3-3.5-2.2-5.3-2.8
					C397.1,402.1,395.2,401.8,393.1,401.8z"/>
			</g>
			<g>
				<path class="st11" d="M351.5,401.6c-6.4,0-12,2.3-16.7,7s-7.8,10.9-9.2,18.6c-1.4,7.7-0.5,13.9,2.6,18.6s7.9,7,14.2,7
					c6.4,0,11.9-2.3,16.7-7c4.8-4.7,7.8-10.9,9.2-18.6c1.4-7.7,0.5-13.9-2.6-18.6C362.7,403.9,357.9,401.6,351.5,401.6z
					 M353.6,427.2c-0.8,4.7-2,8.3-3.6,10.7c-1.5,2.5-3.4,3.7-5.5,3.7s-3.6-1.2-4.2-3.7c-0.7-2.5-0.6-6,0.2-10.7
					c0.8-4.7,2-8.4,3.6-10.8c1.6-2.5,3.4-3.7,5.5-3.7s3.5,1.2,4.2,3.7C354.5,418.8,354.4,422.5,353.6,427.2z"/>
			</g>
		</g>
	</g>
</g>
</svg>
