<?xml version="1.0" encoding="utf-8"?>
<!-- Generator: Adobe Illustrator 25.1.0, SVG Export Plug-In . SVG Version: 6.00 Build 0)  -->
<svg version="1.1"
	 id="svg8" inkscape:export-filename="C:\Users\xine\Documents\2018-debian-buster\futurePrototype-source\debian-installer\png\installer.png" inkscape:export-xdpi="96" inkscape:export-ydpi="96" inkscape:version="0.92.2 (5c3e80d, 2017-08-06)" sodipodi:docname="installer.svg" xmlns:cc="http://creativecommons.org/ns#" xmlns:dc="http://purl.org/dc/elements/1.1/" xmlns:inkscape="http://www.inkscape.org/namespaces/inkscape" xmlns:ns2="http://ns.adobe.com/AdobeIllustrator/10.0/" xmlns:rdf="http://www.w3.org/1999/02/22-rdf-syntax-ns#" xmlns:sodipodi="http://sodipodi.sourceforge.net/DTD/sodipodi-0.dtd" xmlns:svg="http://www.w3.org/2000/svg"
	 xmlns="http://www.w3.org/2000/svg" xmlns:xlink="http://www.w3.org/1999/xlink" x="0px" y="0px" viewBox="0 0 800 75"
	 style="enable-background:new 0 0 800 75;" xml:space="preserve">
<style type="text/css">
	.st0{clip-path:url(#SVGID_2_);}
	.st1{fill:#082E66;}
	.st2{opacity:0.4;fill:#123777;enable-background:new    ;}
	.st3{opacity:0.15;fill:#7793C4;enable-background:new    ;}
	.st4{opacity:0.1;fill:#7793C4;enable-background:new    ;}
	.st5{opacity:0.1;enable-background:new    ;}
	.st6{fill:#325DA8;}
	.st7{opacity:0.15;}
	.st8{fill:#1944A4;}
	.st9{opacity:7.000000e-02;fill:#FFFFFF;enable-background:new    ;}
	.st10{opacity:0.1;fill:#FFFFFF;enable-background:new    ;}
	.st11{fill:#FFFFFF;}
</style>
<g>
	<defs>
		<rect id="SVGID_1_" width="800" height="75"/>
	</defs>
	<clipPath id="SVGID_2_">
		<use xlink:href="#SVGID_1_"  style="overflow:visible;"/>
	</clipPath>
	<g class="st0">
		<rect y="-187.5" class="st1" width="800" height="450"/>
		<g>
			<g>
				<polygon class="st2" points="399.6,-187.5 711.9,26.9 800,-101.5 800,-187.5 				"/>
			</g>
			<path class="st3" d="M459.1-187.5c0.2,4,0.3,7.9,0.3,11.9C459.4-38.4,348.2,72.8,211,72.8C122,72.8,43.9,26,0-44.4v-143.1H459.1z
				"/>
			<path class="st4" d="M800,187.6c-13.9,12.9-24.5,30.9-26,51H571.5C574.3,104.1,671.8-7,800-30.9V187.6z"/>
			<rect x="467.3" y="163.7" class="st5" width="147.6" height="7.5"/>
			<g>
				<polygon class="st6" points="512.4,-109.9 468.5,-33.9 469.7,-31.9 514.7,-109.9 				"/>
				<polygon class="st6" points="473.1,-25.9 521.6,-109.9 519.3,-109.9 472,-27.9 				"/>
				<polygon class="st6" points="476.6,-19.9 528.5,-109.9 526.2,-109.9 475.4,-21.9 				"/>
				<polygon class="st6" points="480,-13.9 535.5,-109.9 533.2,-109.9 478.9,-15.9 				"/>
				<polygon class="st6" points="483.5,-7.9 542.4,-109.9 540.1,-109.9 482.4,-10 				"/>
				<polygon class="st6" points="487,-1.9 549.3,-109.9 547,-109.9 485.8,-4 				"/>
				<polygon class="st6" points="490.5,4.1 556.2,-109.9 554,-109.9 489.3,2 				"/>
				<polygon class="st6" points="493.9,10.1 563.2,-109.9 560.9,-109.9 492.8,8 				"/>
				<polygon class="st6" points="497.4,16.1 570.1,-109.9 567.8,-109.9 496.2,14 				"/>
				<polygon class="st6" points="500.8,22.1 577,-109.9 574.7,-109.9 499.7,20 				"/>
				<polygon class="st6" points="504.3,28.1 584,-109.9 581.7,-109.9 503.1,26 				"/>
				<polygon class="st6" points="507.8,34.1 590.9,-109.9 588.6,-109.9 506.6,32 				"/>
				<polygon class="st6" points="511.2,40.1 597.8,-109.9 595.5,-109.9 510.1,38 				"/>
				<polygon class="st6" points="517,42 602.5,-105.9 601.3,-108 514.7,42 				"/>
				<polygon class="st6" points="523.9,42 605.9,-99.9 604.8,-102 521.6,42 				"/>
				<polygon class="st6" points="530.9,42 609.4,-93.9 608.2,-96 528.5,42 				"/>
				<polygon class="st6" points="537.8,42 612.8,-87.9 611.7,-90 535.5,42 				"/>
				<polygon class="st6" points="544.7,42 616.3,-81.9 615.1,-84 542.4,42 				"/>
				<polygon class="st6" points="551.6,42 619.8,-75.9 618.6,-78 549.3,42 				"/>
				<polygon class="st6" points="558.6,42 623.2,-69.9 622.1,-72 556.2,42 				"/>
				<polygon class="st6" points="565.5,42 626.7,-63.9 625.5,-66 563.2,42 				"/>
				<polygon class="st6" points="572.4,42 630.2,-57.9 629,-60 570.1,42 				"/>
				<polygon class="st6" points="579.3,42 633.6,-51.9 632.5,-54 577,42 				"/>
				<polygon class="st6" points="586.3,42 637.1,-45.9 635.9,-48 584,42 				"/>
				<polygon class="st6" points="593.2,42 640.5,-39.9 639.4,-42 590.9,42 				"/>
				<polygon class="st6" points="600.1,42 644,-33.9 642.8,-36 597.8,42 				"/>
			</g>
			<g class="st7">
				<polygon points="330.6,201.5 295.3,262.5 298.2,262.5 333.5,201.5 				"/>
				<polygon points="339.2,201.5 304,262.5 306.9,262.5 342.2,201.5 				"/>
				<polygon points="347.9,201.5 312.7,262.5 315.6,262.5 350.8,201.5 				"/>
				<polygon points="356.6,201.5 321.3,262.5 324.2,262.5 359.5,201.5 				"/>
				<polygon points="365.3,201.5 330,262.5 332.9,262.5 368.2,201.5 				"/>
				<polygon points="374,201.5 338.7,262.5 341.6,262.5 376.9,201.5 				"/>
				<polygon points="382.6,201.5 347.4,262.5 350.3,262.5 385.5,201.5 				"/>
				<polygon points="391.3,201.5 356,262.5 359,262.5 394.2,201.5 				"/>
				<polygon points="400,201.5 364.8,262.5 367.6,262.5 402.9,201.5 				"/>
				<polygon points="408.7,201.5 373.4,262.5 376.3,262.5 411.6,201.5 				"/>
				<polygon points="417.3,201.5 382.1,262.5 385,262.5 420.2,201.5 				"/>
				<polygon points="426,201.5 390.8,262.5 393.7,262.5 428.9,201.5 				"/>
				<polygon points="434.7,201.5 399.5,262.5 402.3,262.5 437.6,201.5 				"/>
				<polygon points="441.9,204 408.1,262.5 411,262.5 443.4,206.5 				"/>
				<polygon points="446.2,211.5 416.8,262.5 419.7,262.5 447.7,214 				"/>
				<polygon points="450.6,219 425.5,262.5 428.4,262.5 452,221.5 				"/>
				<polygon points="455,226.5 434.2,262.5 437.1,262.5 456.4,229.1 				"/>
				<polygon points="459.3,234 442.8,262.5 445.8,262.5 460.8,236.6 				"/>
				<polygon points="463.6,241.5 451.5,262.5 454.5,262.5 465.1,244.1 				"/>
				<polygon points="468,249 460.2,262.5 463.1,262.5 469.4,251.6 				"/>
				<polygon points="473.8,259.1 472.3,256.6 468.9,262.5 471.7,262.5 				"/>
			</g>
			<rect x="741.6" y="-78.7" class="st8" width="58.4" height="6.7"/>
			<rect y="-156.8" class="st9" width="122.3" height="7.5"/>
			<circle class="st10" cx="359.8" cy="46" r="54"/>
			<g>
				<polygon class="st2" points="419.2,177.5 48.9,88.9 7.4,262.5 398.9,262.5 				"/>
			</g>
			<g>
				<path class="st5" d="M39.1-187.5V21v100.8c0,21.3-17.3,38.6-38.6,38.6c-0.2,0-0.3,0-0.5,0v69.3c0.2,0,0.3,0,0.5,0
					c59.6,0,107.9-48.3,107.9-107.9v-309.3H39.1z"/>
			</g>
		</g>
	</g>
</g>
<sodipodi:namedview  bordercolor="#b20eb2" borderlayer="true" borderopacity="1" id="base" inkscape:bbox-nodes="true" inkscape:bbox-paths="true" inkscape:current-layer="layer1" inkscape:cx="131.27999" inkscape:cy="56.43548" inkscape:document-units="px" inkscape:object-paths="true" inkscape:pageopacity="0.0" inkscape:pageshadow="2" inkscape:showpageshadow="false" inkscape:snap-bbox="true" inkscape:snap-bbox-edge-midpoints="true" inkscape:snap-bbox-midpoints="true" inkscape:snap-intersection-paths="true" inkscape:snap-page="true" inkscape:snap-smooth-nodes="true" inkscape:window-height="1017" inkscape:window-maximized="1" inkscape:window-width="1920" inkscape:window-x="-8" inkscape:window-y="-8" inkscape:zoom="0.87598803" pagecolor="#ffffff" showborder="true" showgrid="false" units="px">
	</sodipodi:namedview>
<g>
	<g>
		<g>
			<g>
				<polygon class="st11" points="344.6,19.7 319.5,19.7 318.2,27.7 325.6,27.7 321.1,54.5 331.2,54.5 335.6,27.7 343.3,27.7 				
					"/>
			</g>
			<g>
				<path class="st11" d="M370,28.3c-0.9,0-1.7,0.1-2.4,0.3c-0.7,0.2-1.3,0.5-1.8,0.9c-0.5,0.3-0.9,0.7-1.3,1.1s-0.7,0.8-0.9,1.2
					c-0.4-0.9-1.1-1.7-2-2.5s-2.1-1.2-3.7-1.2s-2.9,0.2-3.9,0.7s-1.9,1.1-2.6,2l0.3-1.9h-7.4l-3.7,25.6h8l2.7-18.3
					c0.3-0.4,0.6-0.8,1-1.1s0.9-0.4,1.4-0.4c0,0,0.1,0,0.3,0.1c0.2,0,0.4,0.1,0.6,0.3c0.2,0.1,0.4,0.4,0.6,0.6
					c0.2,0.3,0.3,0.7,0.3,1.2c0,0.3,0,0.6-0.1,1c0,0.4-0.1,0.7-0.2,1l-2.3,15.7h8.1l2.5-17.8c0.3-0.5,0.6-1,1.1-1.4s0.9-0.6,1.4-0.6
					c0.7,0,1.2,0.3,1.4,0.8c0.2,0.5,0.3,1,0.3,1.5c0,0.2,0,0.5-0.1,0.9c0,0.3-0.1,0.6-0.1,0.9l-2.3,15.7h8.3l2.4-16.7
					c0-0.3,0.1-0.6,0.1-1.1s0.1-0.9,0.1-1.4c0-2.2-0.6-3.9-1.7-5.2C373.4,28.9,371.9,28.3,370,28.3z"/>
			</g>
			<g>
				<path class="st11" d="M399.9,48.1c-0.3,0-0.5-0.1-0.8-0.3c-0.2-0.2-0.3-0.7-0.2-1.6l1.1-9.4c0.2-1.9,0.2-3.4-0.2-4.6
					c-0.4-1.2-0.9-2.1-1.7-2.7c-0.8-0.6-1.7-1-2.9-1.2c-1.1-0.2-2.3-0.3-3.6-0.3c-0.8,0-1.7,0.1-2.5,0.2c-0.9,0.2-1.7,0.4-2.5,0.6
					c-0.8,0.3-1.6,0.6-2.3,0.9c-0.7,0.3-1.4,0.7-1.9,1l-1.1,6.2c1.2-0.8,2.4-1.4,3.8-1.8c1.3-0.4,2.8-0.7,4.5-0.7
					c0.7,0,1.4,0.2,1.9,0.5c0.6,0.3,0.8,0.9,0.6,1.7l-0.2,1.3c-1.6,0.1-3.1,0.2-4.4,0.5s-2.7,0.7-4,1.3c-1.1,0.5-2.1,1.1-2.8,1.7
					c-0.8,0.7-1.4,1.4-1.9,2.1c-0.5,0.7-0.9,1.5-1.1,2.3s-0.3,1.5-0.3,2.3c0,1.3,0.2,2.4,0.5,3.3c0.3,0.9,0.8,1.6,1.4,2.1
					s1.3,0.9,2.2,1.1c0.9,0.2,1.9,0.3,3,0.3c1.5,0,2.7-0.3,3.8-0.9c1.1-0.6,2-1.5,2.7-2.5c1,2.3,2.7,3.5,5.2,3.5
					c0.7,0,1.3,0,1.9-0.2c0.6-0.1,1.1-0.2,1.6-0.4l1.5-6.7C400.5,48,400.2,48.1,399.9,48.1z M390.3,48c-0.6,0.6-1.5,0.9-2.6,0.9
					c-0.4,0-0.7-0.1-1-0.4c-0.2-0.3-0.4-0.8-0.4-1.7c0-0.7,0.1-1.3,0.4-1.8s0.6-1,1.1-1.3c0.5-0.4,1-0.7,1.6-0.9s1.2-0.4,1.8-0.4
					L390.3,48z"/>
			</g>
			<g>
				<polygon class="st11" points="420.8,28.9 416.9,35.2 414.3,28.9 405.5,28.9 410.1,40.3 400.9,54.5 408,54.5 413.1,46 
					416.5,54.5 425.5,54.5 419.8,40.7 427.6,28.9 				"/>
			</g>
			<g>
				<path class="st11" d="M472.5,34.1c0.6,0.6,1.4,1.3,2.3,2.2c0.7,0.6,1.3,1.2,1.9,1.8s1,1.2,1.4,1.8s0.7,1.3,0.9,2
					c0.2,0.7,0.3,1.5,0.3,2.5l0,0c0-0.9-0.1-1.8-0.3-2.5c-0.2-0.7-0.5-1.4-0.9-2s-0.9-1.2-1.4-1.8c-0.6-0.6-1.2-1.2-1.9-1.8
					C473.8,35.3,473.1,34.6,472.5,34.1c-0.6-0.7-0.9-1.5-0.9-2.5l0,0C471.6,32.7,471.9,33.5,472.5,34.1z"/>
			</g>
			<g>
				<path class="st11" d="M478.2,21.4c-1.3-0.4-2.6-0.6-4-0.6c-1.8,0-3.5,0.3-5.1,0.9s-3,1.5-4.2,2.5s-2.1,2.2-2.8,3.6
					c-0.7,1.3-1,2.8-1,4.3l0,0c0-1.5,0.3-2.9,1-4.2c0.7-1.4,1.6-2.5,2.8-3.6c1.2-1,2.6-1.9,4.2-2.5s3.3-0.9,5.1-0.9
					C475.6,20.9,476.9,21.1,478.2,21.4c1.3,0.5,2.5,1.1,3.6,2v-0.1C480.7,22.5,479.5,21.8,478.2,21.4z"/>
			</g>
			<g>
				<path class="st11" d="M462.3,47.4c1,0.6,2.2,0.9,3.5,0.9c2.5,0,3.7-1.2,3.7-3.5l0,0c0,2.3-1.3,3.5-3.7,3.5
					C464.5,48.2,463.3,47.9,462.3,47.4c-1-0.7-2-1.4-2.7-2.4l-1.5,7.5l0,0l1.5-7.4C460.3,46.1,461.2,46.8,462.3,47.4z"/>
			</g>
			<g>
				<path class="st11" d="M476,51.7c-1.1,1-2.5,1.9-4.1,2.5s-3.4,1-5.5,1c-1.7,0-3.2-0.2-4.6-0.6c-1.4-0.4-2.7-1.1-3.8-2v0.1
					c1.2,1,2.4,1.6,3.8,2s2.9,0.6,4.6,0.6c2,0,3.9-0.3,5.5-0.9C473.5,53.7,474.9,52.8,476,51.7c1.1-1,1.9-2.1,2.5-3.4
					c0.6-1.3,0.9-2.6,0.9-3.9l0,0c0,1.3-0.3,2.6-0.9,3.9C477.9,49.5,477.1,50.7,476,51.7z"/>
			</g>
			<g>
				<path class="st11" d="M468.6,42.4c-0.6-0.8-1.4-1.4-2.2-2.1c-1.8-1.4-3.1-2.7-4-4c-0.8-1.3-1.2-2.7-1.3-4.1l0,0
					c0,1.5,0.4,2.8,1.3,4.1c0.8,1.3,2.2,2.6,4,4C467.2,41,467.9,41.7,468.6,42.4c0.6,0.8,0.9,1.6,1,2.4l0,0
					C469.5,43.9,469.2,43.1,468.6,42.4z"/>
			</g>
			<g>
				<path class="st11" d="M478,28.8c-0.8-0.5-1.8-0.7-2.9-0.7c-1.3,0-2.2,0.3-2.7,1s-0.8,1.5-0.8,2.4l0,0c0-0.9,0.3-1.7,0.8-2.4
					c0.6-0.7,1.5-1,2.7-1C476.2,28.1,477.2,28.4,478,28.8c0.8,0.6,1.6,1.2,2.2,2l1.6-7.4l0,0l-1.5,7.3
					C479.6,29.9,478.9,29.3,478,28.8z"/>
			</g>
			<g>
				<path class="st11" d="M474.2,20.9c-1.8,0-3.5,0.3-5.1,0.9s-3,1.5-4.2,2.5s-2.1,2.2-2.8,3.6c-0.7,1.3-1,2.7-1,4.2
					c0,1.5,0.4,2.8,1.3,4.1c0.8,1.3,2.2,2.6,4,4c0.8,0.6,1.6,1.3,2.2,2.1c0.6,0.7,1,1.5,1,2.4l0,0l0,0c0,2.3-1.3,3.5-3.7,3.5
					c-1.3,0-2.5-0.3-3.5-0.9c-1-0.6-2-1.4-2.7-2.3l-1.5,7.4c1.2,1,2.4,1.6,3.8,2s2.9,0.6,4.6,0.6c2,0,3.9-0.3,5.5-1
					c1.6-0.6,3-1.5,4.1-2.5s1.9-2.2,2.5-3.5s0.9-2.6,0.9-3.9c0-0.9-0.1-1.7-0.3-2.5c-0.2-0.7-0.5-1.4-0.9-2s-0.9-1.2-1.4-1.8
					c-0.6-0.6-1.2-1.2-1.9-1.8c-1-0.8-1.7-1.5-2.3-2.2c-0.6-0.6-0.9-1.4-0.9-2.5l0,0l0,0c0-0.9,0.3-1.7,0.8-2.4c0.6-0.7,1.5-1,2.7-1
					c1.1,0,2.1,0.2,2.9,0.7s1.6,1.1,2.2,1.9l1.5-7.3c-1.1-0.9-2.3-1.5-3.6-1.9C476.9,21.1,475.6,20.9,474.2,20.9z"/>
			</g>
			<g>
				<path class="st11" d="M446.2,20.8c-4.3,0-8.1,1.6-11.3,4.7c-3.2,3.1-5.3,7.3-6.2,12.5c-0.9,5.2-0.3,9.4,1.8,12.5
					c2.1,3.2,5.3,4.7,9.6,4.7c4.3,0,8-1.6,11.2-4.7c3.2-3.2,5.3-7.3,6.2-12.5c0.9-5.2,0.3-9.4-1.7-12.5
					C453.7,22.3,450.5,20.8,446.2,20.8z M447.6,38c-0.6,3.2-1.4,5.6-2.4,7.2c-1,1.7-2.3,2.5-3.7,2.5c-1.4,0-2.4-0.8-2.9-2.5
					s-0.4-4.1,0.2-7.2c0.6-3.2,1.4-5.6,2.4-7.3s2.3-2.5,3.7-2.5c1.4,0,2.4,0.8,2.8,2.5C448.2,32.4,448.1,34.8,447.6,38z"/>
			</g>
		</g>
	</g>
</g>
</svg>
